<?xml version="1.0" encoding="UTF-8"?>
<!DOCTYPE xmeml>
<xmeml version="4">
<sequence id="GN_L2_Bible">
	<uuid>1A3479E8-C7B6-495A-A66E-37AA7E595546</uuid>
	<updatebehavior>add</updatebehavior>
	<name>GN_L2_Bible</name>
	<duration>10071</duration>
	<rate>
		<ntsc>TRUE</ntsc>
		<timebase>30</timebase>
	</rate>
	<timecode>
		<rate>
			<ntsc>TRUE</ntsc>
			<timebase>30</timebase>
		</rate>
		<string>01:00:00;00</string>
		<frame>107892</frame>
		<source>source</source>
		<displayformat>DF</displayformat>
	</timecode>
	<in>-1</in>
	<out>-1</out>
	<media>
		<video>
			<format>
				<samplecharacteristics>
					<width>1920</width>
					<height>1080</height>
					<anamorphic>FALSE</anamorphic>
					<pixelaspectratio>Square</pixelaspectratio>
					<fielddominance>none</fielddominance>
					<rate>
						<ntsc>TRUE</ntsc>
						<timebase>30</timebase>
					</rate>
					<colordepth>24</colordepth>
					<codec>
						<name>Apple ProRes 422</name>
						<appspecificdata>
							<appname>Final Cut Pro</appname>
							<appmanufacturer>Apple Inc.</appmanufacturer>
							<appversion>7.0</appversion>
							<data>
								<qtcodec>
									<codecname>Apple ProRes 422</codecname>
									<codectypename>Apple ProRes 422</codectypename>
									<codectypecode>apcn</codectypecode>
									<codecvendorcode>appl</codecvendorcode>
									<spatialquality>1023</spatialquality>
									<temporalquality>0</temporalquality>
									<keyframerate>0</keyframerate>
									<datarate>0</datarate>
								</qtcodec>
							</data>
						</appspecificdata>
					</codec>
				</samplecharacteristics>
				<appspecificdata>
					<appname>Final Cut Pro</appname>
					<appmanufacturer>Apple Inc.</appmanufacturer>
					<appversion>7.0</appversion>
					<data>
						<fcpimageprocessing>
							<useyuv>TRUE</useyuv>
							<usesuperwhite>FALSE</usesuperwhite>
							<rendermode>Float10BPP</rendermode>
						</fcpimageprocessing>
					</data>
				</appspecificdata>
			</format>
			<track>
				<clipitem id="GN.ST-L1-wide_5 ">
					<name>GN.ST-L1-wide_5</name>
					<duration>1230</duration>
					<rate>
						<ntsc>TRUE</ntsc>
						<timebase>30</timebase>
					</rate>
					<in>210</in>
					<out>1133</out>
					<start>0</start>
					<end>923</end>
					<pixelaspectratio>Square</pixelaspectratio>
					<enabled>FALSE</enabled>
					<anamorphic>FALSE</anamorphic>
					<alphatype>none</alphatype>
					<masterclipid>GN.ST-L1-wide_5 1</masterclipid>
					<logginginfo>
						<scene/>
						<shottake/>
						<lognote/>
						<good>FALSE</good>
					</logginginfo>
					<labels>
						<label2/>
					</labels>
					<comments>
						<mastercomment1/>
						<mastercomment2/>
						<mastercomment3/>
						<mastercomment4/>
					</comments>
					<file id="GN.ST-L1-wide_5 2">
						<name>GN.ST-L1-wide_5.mov</name>
						<pathurl>file://localhost/Volumes/Xsan/ELEVATE/ELEVATE_FCP_Docs/Good_News_Kids/Capture_Scratch/BibleStories/L2/L2_VOX/GN.ST-L1-wide_5.mov</pathurl>
						<rate>
							<timebase>30</timebase>
							<ntsc>TRUE</ntsc>
						</rate>
						<duration>1230</duration>
						<timecode>
							<rate>
								<timebase>30</timebase>
								<ntsc>TRUE</ntsc>
							</rate>
							<string>09:38:53:22</string>
							<frame>1042012</frame>
							<displayformat>NDF</displayformat>
							<source>source</source>
							<reel>
								<name>1</name>
							</reel>
						</timecode>
						<media>
							<video>
								<duration>1230</duration>
								<samplecharacteristics>
									<width>1920</width>
									<height>1080</height>
								</samplecharacteristics>
							</video>
							<audio>
								<samplecharacteristics>
									<samplerate>48000</samplerate>
									<depth>24</depth>
								</samplecharacteristics>
								<channelcount>1</channelcount>
							</audio>
							<audio>
								<samplecharacteristics>
									<samplerate>48000</samplerate>
									<depth>24</depth>
								</samplecharacteristics>
								<channelcount>1</channelcount>
							</audio>
						</media>
					</file>
					<sourcetrack>
						<mediatype>video</mediatype>
					</sourcetrack>
					<link>
						<linkclipref>GN.ST-L1-wide_5 </linkclipref>
						<mediatype>video</mediatype>
						<trackindex>1</trackindex>
						<clipindex>1</clipindex>
					</link>
					<link>
						<linkclipref>GN.ST-L1-wide_5 3</linkclipref>
						<mediatype>audio</mediatype>
						<trackindex>1</trackindex>
						<clipindex>1</clipindex>
					</link>
					<link>
						<linkclipref>GN.ST-L1-wide_5 4</linkclipref>
						<mediatype>audio</mediatype>
						<trackindex>2</trackindex>
						<clipindex>1</clipindex>
					</link>
					<fielddominance>upper</fielddominance>
					<itemhistory>
						<uuid>3D46DC39-6FFE-4CD9-9EF6-FB9716ED0DA2</uuid>
					</itemhistory>
				</clipitem>
				<clipitem id="GN.ST-L1-tigt_27 ">
					<name>GN.ST-L1-tigt_27</name>
					<duration>6183</duration>
					<rate>
						<ntsc>TRUE</ntsc>
						<timebase>30</timebase>
					</rate>
					<in>589</in>
					<out>1214</out>
					<start>1026</start>
					<end>1651</end>
					<pixelaspectratio>Square</pixelaspectratio>
					<anamorphic>FALSE</anamorphic>
					<alphatype>none</alphatype>
					<logginginfo>
						<scene/>
						<shottake/>
						<lognote/>
						<good>FALSE</good>
					</logginginfo>
					<labels>
						<label2/>
					</labels>
					<comments>
						<mastercomment1/>
						<mastercomment2/>
						<mastercomment3/>
						<mastercomment4/>
					</comments>
					<file id="GN.ST-L1-tigt_27 1">
						<name>GN.ST-L1-tigt_27.mov</name>
						<pathurl>file://localhost/Volumes/Xsan/ELEVATE/ELEVATE_FCP_Docs/Good_News_Kids/Capture_Scratch/BibleStories/L2/Studio/GN.ST-L1-tigt_27.mov</pathurl>
						<rate>
							<timebase>30</timebase>
							<ntsc>TRUE</ntsc>
						</rate>
						<duration>6183</duration>
						<timecode>
							<rate>
								<timebase>30</timebase>
								<ntsc>TRUE</ntsc>
							</rate>
							<string>10:50:47:24</string>
							<frame>1171434</frame>
							<displayformat>NDF</displayformat>
							<source>source</source>
							<reel>
								<name>2</name>
							</reel>
						</timecode>
						<media>
							<video>
								<duration>6183</duration>
								<samplecharacteristics>
									<width>1920</width>
									<height>1080</height>
								</samplecharacteristics>
							</video>
							<audio>
								<samplecharacteristics>
									<samplerate>48000</samplerate>
									<depth>24</depth>
								</samplecharacteristics>
								<channelcount>1</channelcount>
							</audio>
							<audio>
								<samplecharacteristics>
									<samplerate>48000</samplerate>
									<depth>24</depth>
								</samplecharacteristics>
								<channelcount>1</channelcount>
							</audio>
						</media>
					</file>
					<sourcetrack>
						<mediatype>video</mediatype>
					</sourcetrack>
					<link>
						<linkclipref>GN.ST-L1-tigt_27 </linkclipref>
						<mediatype>video</mediatype>
						<trackindex>1</trackindex>
						<clipindex>2</clipindex>
					</link>
					<link>
						<linkclipref>GN.ST-L1-tigt_27 2</linkclipref>
						<mediatype>audio</mediatype>
						<trackindex>1</trackindex>
						<clipindex>2</clipindex>
					</link>
					<link>
						<linkclipref>GN.ST-L1-tigt_27 3</linkclipref>
						<mediatype>audio</mediatype>
						<trackindex>2</trackindex>
						<clipindex>2</clipindex>
					</link>
					<fielddominance>upper</fielddominance>
					<itemhistory>
						<uuid>E4F31A0E-EB31-4575-B774-909389B5F615</uuid>
					</itemhistory>
				</clipitem>
				<clipitem id="GN-L2-Tigt_34 ">
					<name>GN-L2-Tigt_34</name>
					<duration>1064</duration>
					<rate>
						<ntsc>TRUE</ntsc>
						<timebase>30</timebase>
					</rate>
					<in>387</in>
					<out>877</out>
					<start>1651</start>
					<end>2141</end>
					<pixelaspectratio>Square</pixelaspectratio>
					<anamorphic>FALSE</anamorphic>
					<alphatype>none</alphatype>
					<masterclipid>GN-L2-Tigt_34 1</masterclipid>
					<logginginfo>
						<scene/>
						<shottake/>
						<lognote/>
						<good>FALSE</good>
					</logginginfo>
					<labels>
						<label2/>
					</labels>
					<comments>
						<mastercomment1/>
						<mastercomment2/>
						<mastercomment3/>
						<mastercomment4/>
					</comments>
					<file id="GN-L2-Tigt_34 2">
						<name>GN-L2-Tigt_34.mov</name>
						<pathurl>file://localhost/Volumes/Xsan/ELEVATE/ELEVATE_FCP_Docs/Good_News_Kids/Capture_Scratch/BibleStories/L2/Location/GN-L2-Tigt_34.mov</pathurl>
						<rate>
							<timebase>30</timebase>
							<ntsc>TRUE</ntsc>
						</rate>
						<duration>1064</duration>
						<timecode>
							<rate>
								<timebase>30</timebase>
								<ntsc>TRUE</ntsc>
							</rate>
							<string>11:51:57:06</string>
							<frame>1281516</frame>
							<displayformat>NDF</displayformat>
							<source>source</source>
							<reel>
								<name>2</name>
							</reel>
						</timecode>
						<media>
							<video>
								<duration>1064</duration>
								<samplecharacteristics>
									<width>1920</width>
									<height>1080</height>
								</samplecharacteristics>
							</video>
							<audio>
								<samplecharacteristics>
									<samplerate>48000</samplerate>
									<depth>24</depth>
								</samplecharacteristics>
								<channelcount>1</channelcount>
							</audio>
							<audio>
								<samplecharacteristics>
									<samplerate>48000</samplerate>
									<depth>24</depth>
								</samplecharacteristics>
								<channelcount>1</channelcount>
							</audio>
						</media>
					</file>
					<sourcetrack>
						<mediatype>video</mediatype>
					</sourcetrack>
					<link>
						<linkclipref>GN-L2-Tigt_34 </linkclipref>
						<mediatype>video</mediatype>
						<trackindex>1</trackindex>
						<clipindex>3</clipindex>
					</link>
					<link>
						<linkclipref>GN-L2-Tigt_34 3</linkclipref>
						<mediatype>audio</mediatype>
						<trackindex>1</trackindex>
						<clipindex>3</clipindex>
					</link>
					<link>
						<linkclipref>GN-L2-Tigt_34 4</linkclipref>
						<mediatype>audio</mediatype>
						<trackindex>2</trackindex>
						<clipindex>3</clipindex>
					</link>
					<fielddominance>upper</fielddominance>
					<itemhistory>
						<uuid>CB512CAD-DBA4-4313-8AA2-51DCBE87C2A7</uuid>
					</itemhistory>
				</clipitem>
				<clipitem id="GN-L2-Tigt_36 ">
					<name>GN-L2-Tigt_36</name>
					<duration>1713</duration>
					<rate>
						<ntsc>TRUE</ntsc>
						<timebase>30</timebase>
					</rate>
					<in>639</in>
					<out>1500</out>
					<start>2141</start>
					<end>3002</end>
					<pixelaspectratio>Square</pixelaspectratio>
					<anamorphic>FALSE</anamorphic>
					<alphatype>none</alphatype>
					<masterclipid>GN-L2-Tigt_36 1</masterclipid>
					<logginginfo>
						<scene/>
						<shottake/>
						<lognote/>
						<good>FALSE</good>
					</logginginfo>
					<labels>
						<label2/>
					</labels>
					<comments>
						<mastercomment1/>
						<mastercomment2/>
						<mastercomment3/>
						<mastercomment4/>
					</comments>
					<file id="GN-L2-Tigt_36 2">
						<name>GN-L2-Tigt_36.mov</name>
						<pathurl>file://localhost/Volumes/Xsan/ELEVATE/ELEVATE_FCP_Docs/Good_News_Kids/Capture_Scratch/BibleStories/L2/Location/GN-L2-Tigt_36.mov</pathurl>
						<rate>
							<timebase>30</timebase>
							<ntsc>TRUE</ntsc>
						</rate>
						<duration>1713</duration>
						<timecode>
							<rate>
								<timebase>30</timebase>
								<ntsc>TRUE</ntsc>
							</rate>
							<string>11:55:59:23</string>
							<frame>1288793</frame>
							<displayformat>NDF</displayformat>
							<source>source</source>
							<reel>
								<name>2</name>
							</reel>
						</timecode>
						<media>
							<video>
								<duration>1713</duration>
								<samplecharacteristics>
									<width>1920</width>
									<height>1080</height>
								</samplecharacteristics>
							</video>
							<audio>
								<samplecharacteristics>
									<samplerate>48000</samplerate>
									<depth>24</depth>
								</samplecharacteristics>
								<channelcount>1</channelcount>
							</audio>
							<audio>
								<samplecharacteristics>
									<samplerate>48000</samplerate>
									<depth>24</depth>
								</samplecharacteristics>
								<channelcount>1</channelcount>
							</audio>
						</media>
					</file>
					<sourcetrack>
						<mediatype>video</mediatype>
					</sourcetrack>
					<link>
						<linkclipref>GN-L2-Tigt_36 </linkclipref>
						<mediatype>video</mediatype>
						<trackindex>1</trackindex>
						<clipindex>4</clipindex>
					</link>
					<link>
						<linkclipref>GN-L2-Tigt_36 3</linkclipref>
						<mediatype>audio</mediatype>
						<trackindex>1</trackindex>
						<clipindex>4</clipindex>
					</link>
					<link>
						<linkclipref>GN-L2-Tigt_36 4</linkclipref>
						<mediatype>audio</mediatype>
						<trackindex>2</trackindex>
						<clipindex>4</clipindex>
					</link>
					<fielddominance>upper</fielddominance>
					<itemhistory>
						<uuid>8A612A63-FC1C-4A64-9478-6E19A6E6EBD6</uuid>
					</itemhistory>
				</clipitem>
				<clipitem id="GN-L2-Tigt_38 ">
					<name>GN-L2-Tigt_38</name>
					<duration>1222</duration>
					<rate>
						<ntsc>TRUE</ntsc>
						<timebase>30</timebase>
					</rate>
					<in>654</in>
					<out>1073</out>
					<start>3002</start>
					<end>3421</end>
					<pixelaspectratio>Square</pixelaspectratio>
					<anamorphic>FALSE</anamorphic>
					<alphatype>none</alphatype>
					<masterclipid>GN-L2-Tigt_38 1</masterclipid>
					<logginginfo>
						<scene/>
						<shottake/>
						<lognote/>
						<good>FALSE</good>
					</logginginfo>
					<labels>
						<label2/>
					</labels>
					<comments>
						<mastercomment1/>
						<mastercomment2/>
						<mastercomment3/>
						<mastercomment4/>
					</comments>
					<file id="GN-L2-Tigt_38 2">
						<name>GN-L2-Tigt_38.mov</name>
						<pathurl>file://localhost/Volumes/Xsan/ELEVATE/ELEVATE_FCP_Docs/Good_News_Kids/Capture_Scratch/BibleStories/L2/Location/GN-L2-Tigt_38.mov</pathurl>
						<rate>
							<timebase>30</timebase>
							<ntsc>TRUE</ntsc>
						</rate>
						<duration>1222</duration>
						<timecode>
							<rate>
								<timebase>30</timebase>
								<ntsc>TRUE</ntsc>
							</rate>
							<string>11:59:19:05</string>
							<frame>1294775</frame>
							<displayformat>NDF</displayformat>
							<source>source</source>
							<reel>
								<name>2</name>
							</reel>
						</timecode>
						<media>
							<video>
								<duration>1222</duration>
								<samplecharacteristics>
									<width>1920</width>
									<height>1080</height>
								</samplecharacteristics>
							</video>
							<audio>
								<samplecharacteristics>
									<samplerate>48000</samplerate>
									<depth>24</depth>
								</samplecharacteristics>
								<channelcount>1</channelcount>
							</audio>
							<audio>
								<samplecharacteristics>
									<samplerate>48000</samplerate>
									<depth>24</depth>
								</samplecharacteristics>
								<channelcount>1</channelcount>
							</audio>
						</media>
					</file>
					<sourcetrack>
						<mediatype>video</mediatype>
					</sourcetrack>
					<link>
						<linkclipref>GN-L2-Tigt_38 </linkclipref>
						<mediatype>video</mediatype>
						<trackindex>1</trackindex>
						<clipindex>5</clipindex>
					</link>
					<link>
						<linkclipref>GN-L2-Tigt_38 3</linkclipref>
						<mediatype>audio</mediatype>
						<trackindex>1</trackindex>
						<clipindex>5</clipindex>
					</link>
					<link>
						<linkclipref>GN-L2-Tigt_38 4</linkclipref>
						<mediatype>audio</mediatype>
						<trackindex>2</trackindex>
						<clipindex>5</clipindex>
					</link>
					<fielddominance>upper</fielddominance>
					<itemhistory>
						<uuid>2FD90A16-0716-4B48-A019-D6D7153948FC</uuid>
					</itemhistory>
				</clipitem>
				<clipitem id="GN-L2-Tigt_42 ">
					<name>GN-L2-Tigt_42</name>
					<duration>2240</duration>
					<rate>
						<ntsc>TRUE</ntsc>
						<timebase>30</timebase>
					</rate>
					<in>389</in>
					<out>1449</out>
					<start>3421</start>
					<end>4481</end>
					<pixelaspectratio>Square</pixelaspectratio>
					<anamorphic>FALSE</anamorphic>
					<alphatype>none</alphatype>
					<masterclipid>GN-L2-Tigt_42 1</masterclipid>
					<logginginfo>
						<scene/>
						<shottake/>
						<lognote/>
						<good>FALSE</good>
					</logginginfo>
					<labels>
						<label2/>
					</labels>
					<comments>
						<mastercomment1/>
						<mastercomment2/>
						<mastercomment3/>
						<mastercomment4/>
					</comments>
					<file id="GN-L2-Tigt_42 2">
						<name>GN-L2-Tigt_42.mov</name>
						<pathurl>file://localhost/Volumes/Xsan/ELEVATE/ELEVATE_FCP_Docs/Good_News_Kids/Capture_Scratch/BibleStories/L2/Location/GN-L2-Tigt_42.mov</pathurl>
						<rate>
							<timebase>30</timebase>
							<ntsc>TRUE</ntsc>
						</rate>
						<duration>2240</duration>
						<timecode>
							<rate>
								<timebase>30</timebase>
								<ntsc>TRUE</ntsc>
							</rate>
							<string>12:03:26:23</string>
							<frame>1302203</frame>
							<displayformat>NDF</displayformat>
							<source>source</source>
							<reel>
								<name>2</name>
							</reel>
						</timecode>
						<media>
							<video>
								<duration>2240</duration>
								<samplecharacteristics>
									<width>1920</width>
									<height>1080</height>
								</samplecharacteristics>
							</video>
							<audio>
								<samplecharacteristics>
									<samplerate>48000</samplerate>
									<depth>24</depth>
								</samplecharacteristics>
								<channelcount>1</channelcount>
							</audio>
							<audio>
								<samplecharacteristics>
									<samplerate>48000</samplerate>
									<depth>24</depth>
								</samplecharacteristics>
								<channelcount>1</channelcount>
							</audio>
						</media>
					</file>
					<sourcetrack>
						<mediatype>video</mediatype>
					</sourcetrack>
					<link>
						<linkclipref>GN-L2-Tigt_42 </linkclipref>
						<mediatype>video</mediatype>
						<trackindex>1</trackindex>
						<clipindex>6</clipindex>
					</link>
					<link>
						<linkclipref>GN-L2-Tigt_42 3</linkclipref>
						<mediatype>audio</mediatype>
						<trackindex>1</trackindex>
						<clipindex>6</clipindex>
					</link>
					<link>
						<linkclipref>GN-L2-Tigt_42 4</linkclipref>
						<mediatype>audio</mediatype>
						<trackindex>2</trackindex>
						<clipindex>6</clipindex>
					</link>
					<fielddominance>upper</fielddominance>
					<itemhistory>
						<uuid>89B877B9-0CC0-4F3E-9805-9E6CABFACE22</uuid>
					</itemhistory>
				</clipitem>
				<clipitem id="GN-L2-Tigt_42 5">
					<name>GN-L2-Tigt_42</name>
					<duration>2240</duration>
					<rate>
						<ntsc>TRUE</ntsc>
						<timebase>30</timebase>
					</rate>
					<in>1585</in>
					<out>2122</out>
					<start>4481</start>
					<end>5018</end>
					<pixelaspectratio>Square</pixelaspectratio>
					<anamorphic>FALSE</anamorphic>
					<alphatype>none</alphatype>
					<masterclipid>GN-L2-Tigt_42 1</masterclipid>
					<logginginfo>
						<scene/>
						<shottake/>
						<lognote/>
						<good>FALSE</good>
					</logginginfo>
					<labels>
						<label2/>
					</labels>
					<comments>
						<mastercomment1/>
						<mastercomment2/>
						<mastercomment3/>
						<mastercomment4/>
					</comments>
					<file id="GN-L2-Tigt_42 2"/>
					<sourcetrack>
						<mediatype>video</mediatype>
					</sourcetrack>
					<link>
						<linkclipref>GN-L2-Tigt_42 5</linkclipref>
						<mediatype>video</mediatype>
						<trackindex>1</trackindex>
						<clipindex>7</clipindex>
					</link>
					<link>
						<linkclipref>GN-L2-Tigt_42 6</linkclipref>
						<mediatype>audio</mediatype>
						<trackindex>1</trackindex>
						<clipindex>7</clipindex>
					</link>
					<link>
						<linkclipref>GN-L2-Tigt_42 7</linkclipref>
						<mediatype>audio</mediatype>
						<trackindex>2</trackindex>
						<clipindex>7</clipindex>
					</link>
					<fielddominance>upper</fielddominance>
					<itemhistory>
						<uuid>89FE8680-87F6-4031-90D1-43373F55D018</uuid>
					</itemhistory>
				</clipitem>
				<clipitem id="GN-L2-Tigt_44 ">
					<name>GN-L2-Tigt_44</name>
					<duration>702</duration>
					<rate>
						<ntsc>TRUE</ntsc>
						<timebase>30</timebase>
					</rate>
					<in>387</in>
					<out>539</out>
					<start>5018</start>
					<end>5170</end>
					<pixelaspectratio>Square</pixelaspectratio>
					<anamorphic>FALSE</anamorphic>
					<alphatype>none</alphatype>
					<masterclipid>GN-L2-Tigt_44 1</masterclipid>
					<logginginfo>
						<scene/>
						<shottake/>
						<lognote/>
						<good>FALSE</good>
					</logginginfo>
					<labels>
						<label2/>
					</labels>
					<comments>
						<mastercomment1/>
						<mastercomment2/>
						<mastercomment3/>
						<mastercomment4/>
					</comments>
					<file id="GN-L2-Tigt_44 2">
						<name>GN-L2-Tigt_44.mov</name>
						<pathurl>file://localhost/Volumes/Xsan/ELEVATE/ELEVATE_FCP_Docs/Good_News_Kids/Capture_Scratch/BibleStories/L2/Location/GN-L2-Tigt_44.mov</pathurl>
						<rate>
							<timebase>30</timebase>
							<ntsc>TRUE</ntsc>
						</rate>
						<duration>702</duration>
						<timecode>
							<rate>
								<timebase>30</timebase>
								<ntsc>TRUE</ntsc>
							</rate>
							<string>12:08:31:16</string>
							<frame>1311346</frame>
							<displayformat>NDF</displayformat>
							<source>source</source>
							<reel>
								<name>2</name>
							</reel>
						</timecode>
						<media>
							<video>
								<duration>702</duration>
								<samplecharacteristics>
									<width>1920</width>
									<height>1080</height>
								</samplecharacteristics>
							</video>
							<audio>
								<samplecharacteristics>
									<samplerate>48000</samplerate>
									<depth>24</depth>
								</samplecharacteristics>
								<channelcount>1</channelcount>
							</audio>
							<audio>
								<samplecharacteristics>
									<samplerate>48000</samplerate>
									<depth>24</depth>
								</samplecharacteristics>
								<channelcount>1</channelcount>
							</audio>
						</media>
					</file>
					<sourcetrack>
						<mediatype>video</mediatype>
					</sourcetrack>
					<link>
						<linkclipref>GN-L2-Tigt_44 </linkclipref>
						<mediatype>video</mediatype>
						<trackindex>1</trackindex>
						<clipindex>8</clipindex>
					</link>
					<link>
						<linkclipref>GN-L2-Tigt_44 3</linkclipref>
						<mediatype>audio</mediatype>
						<trackindex>1</trackindex>
						<clipindex>8</clipindex>
					</link>
					<link>
						<linkclipref>GN-L2-Tigt_44 4</linkclipref>
						<mediatype>audio</mediatype>
						<trackindex>2</trackindex>
						<clipindex>8</clipindex>
					</link>
					<fielddominance>upper</fielddominance>
					<itemhistory>
						<uuid>309F1C07-47E2-43CA-8263-0A080640550E</uuid>
					</itemhistory>
				</clipitem>
				<clipitem id="GN-L2-Tigt_47 ">
					<name>GN-L2-Tigt_47</name>
					<duration>3006</duration>
					<rate>
						<ntsc>TRUE</ntsc>
						<timebase>30</timebase>
					</rate>
					<in>1755</in>
					<out>2874</out>
					<start>5698</start>
					<end>6817</end>
					<pixelaspectratio>Square</pixelaspectratio>
					<enabled>TRUE</enabled>
					<anamorphic>FALSE</anamorphic>
					<alphatype>none</alphatype>
					<masterclipid>GN-L2-Tigt_47 1</masterclipid>
					<logginginfo>
						<scene/>
						<shottake/>
						<lognote/>
						<good>FALSE</good>
					</logginginfo>
					<labels>
						<label2/>
					</labels>
					<comments>
						<mastercomment1/>
						<mastercomment2/>
						<mastercomment3/>
						<mastercomment4/>
					</comments>
					<file id="GN-L2-Tigt_47 2">
						<name>GN-L2-Tigt_47.mov</name>
						<pathurl>file://localhost/Volumes/Xsan/ELEVATE/ELEVATE_FCP_Docs/Good_News_Kids/Capture_Scratch/BibleStories/L2/Location/GN-L2-Tigt_47.mov</pathurl>
						<rate>
							<timebase>30</timebase>
							<ntsc>TRUE</ntsc>
						</rate>
						<duration>3006</duration>
						<timecode>
							<rate>
								<timebase>30</timebase>
								<ntsc>TRUE</ntsc>
							</rate>
							<string>12:11:08:15</string>
							<frame>1316055</frame>
							<displayformat>NDF</displayformat>
							<source>source</source>
							<reel>
								<name>2</name>
							</reel>
						</timecode>
						<media>
							<video>
								<duration>3006</duration>
								<samplecharacteristics>
									<width>1920</width>
									<height>1080</height>
								</samplecharacteristics>
							</video>
							<audio>
								<samplecharacteristics>
									<samplerate>48000</samplerate>
									<depth>24</depth>
								</samplecharacteristics>
								<channelcount>1</channelcount>
							</audio>
							<audio>
								<samplecharacteristics>
									<samplerate>48000</samplerate>
									<depth>24</depth>
								</samplecharacteristics>
								<channelcount>1</channelcount>
							</audio>
						</media>
					</file>
					<sourcetrack>
						<mediatype>video</mediatype>
					</sourcetrack>
					<link>
						<linkclipref>GN-L2-Tigt_47 </linkclipref>
						<mediatype>video</mediatype>
						<trackindex>1</trackindex>
						<clipindex>9</clipindex>
					</link>
					<link>
						<linkclipref>GN-L2-Tigt_47 3</linkclipref>
						<mediatype>audio</mediatype>
						<trackindex>1</trackindex>
						<clipindex>10</clipindex>
					</link>
					<link>
						<linkclipref>GN-L2-Tigt_47 4</linkclipref>
						<mediatype>audio</mediatype>
						<trackindex>2</trackindex>
						<clipindex>10</clipindex>
					</link>
					<fielddominance>upper</fielddominance>
					<itemhistory>
						<uuid>978695E0-367D-456F-AF1B-91058463B502</uuid>
					</itemhistory>
				</clipitem>
				<clipitem id="GN-L2-Tigt_48 ">
					<name>GN-L2-Tigt_48</name>
					<duration>1122</duration>
					<rate>
						<ntsc>TRUE</ntsc>
						<timebase>30</timebase>
					</rate>
					<in>393</in>
					<out>608</out>
					<start>6817</start>
					<end>7032</end>
					<pixelaspectratio>Square</pixelaspectratio>
					<anamorphic>FALSE</anamorphic>
					<alphatype>none</alphatype>
					<masterclipid>GN-L2-Tigt_48 1</masterclipid>
					<logginginfo>
						<scene/>
						<shottake/>
						<lognote/>
						<good>FALSE</good>
					</logginginfo>
					<labels>
						<label2/>
					</labels>
					<comments>
						<mastercomment1/>
						<mastercomment2/>
						<mastercomment3/>
						<mastercomment4/>
					</comments>
					<file id="GN-L2-Tigt_48 2">
						<name>GN-L2-Tigt_48.mov</name>
						<pathurl>file://localhost/Volumes/Xsan/ELEVATE/ELEVATE_FCP_Docs/Good_News_Kids/Capture_Scratch/BibleStories/L2/Location/GN-L2-Tigt_48.mov</pathurl>
						<rate>
							<timebase>30</timebase>
							<ntsc>TRUE</ntsc>
						</rate>
						<duration>1122</duration>
						<timecode>
							<rate>
								<timebase>30</timebase>
								<ntsc>TRUE</ntsc>
							</rate>
							<string>12:15:08:16</string>
							<frame>1323256</frame>
							<displayformat>NDF</displayformat>
							<source>source</source>
							<reel>
								<name>2</name>
							</reel>
						</timecode>
						<media>
							<video>
								<duration>1122</duration>
								<samplecharacteristics>
									<width>1920</width>
									<height>1080</height>
								</samplecharacteristics>
							</video>
							<audio>
								<samplecharacteristics>
									<samplerate>48000</samplerate>
									<depth>24</depth>
								</samplecharacteristics>
								<channelcount>1</channelcount>
							</audio>
							<audio>
								<samplecharacteristics>
									<samplerate>48000</samplerate>
									<depth>24</depth>
								</samplecharacteristics>
								<channelcount>1</channelcount>
							</audio>
						</media>
					</file>
					<sourcetrack>
						<mediatype>video</mediatype>
					</sourcetrack>
					<link>
						<linkclipref>GN-L2-Tigt_48 </linkclipref>
						<mediatype>video</mediatype>
						<trackindex>1</trackindex>
						<clipindex>10</clipindex>
					</link>
					<link>
						<linkclipref>GN-L2-Tigt_48 3</linkclipref>
						<mediatype>audio</mediatype>
						<trackindex>1</trackindex>
						<clipindex>11</clipindex>
					</link>
					<link>
						<linkclipref>GN-L2-Tigt_48 4</linkclipref>
						<mediatype>audio</mediatype>
						<trackindex>2</trackindex>
						<clipindex>11</clipindex>
					</link>
					<fielddominance>upper</fielddominance>
					<itemhistory>
						<uuid>16D0F590-C941-4889-B034-A4ACF74B5213</uuid>
					</itemhistory>
				</clipitem>
				<clipitem id="GN-L2-Tigt_49 ">
					<name>GN-L2-Tigt_49</name>
					<duration>2427</duration>
					<rate>
						<ntsc>TRUE</ntsc>
						<timebase>30</timebase>
					</rate>
					<in>1993</in>
					<out>2286</out>
					<start>7032</start>
					<end>7325</end>
					<pixelaspectratio>Square</pixelaspectratio>
					<anamorphic>FALSE</anamorphic>
					<alphatype>none</alphatype>
					<masterclipid>GN-L2-Tigt_49 1</masterclipid>
					<logginginfo>
						<scene/>
						<shottake/>
						<lognote/>
						<good>FALSE</good>
					</logginginfo>
					<labels>
						<label2/>
					</labels>
					<comments>
						<mastercomment1/>
						<mastercomment2/>
						<mastercomment3/>
						<mastercomment4/>
					</comments>
					<file id="GN-L2-Tigt_49 2">
						<name>GN-L2-Tigt_49.mov</name>
						<pathurl>file://localhost/Volumes/Xsan/ELEVATE/ELEVATE_FCP_Docs/Good_News_Kids/Capture_Scratch/BibleStories/L2/Location/GN-L2-Tigt_49.mov</pathurl>
						<rate>
							<timebase>30</timebase>
							<ntsc>TRUE</ntsc>
						</rate>
						<duration>2427</duration>
						<timecode>
							<rate>
								<timebase>30</timebase>
								<ntsc>TRUE</ntsc>
							</rate>
							<string>12:15:55:25</string>
							<frame>1324675</frame>
							<displayformat>NDF</displayformat>
							<source>source</source>
							<reel>
								<name>2</name>
							</reel>
						</timecode>
						<media>
							<video>
								<duration>2427</duration>
								<samplecharacteristics>
									<width>1920</width>
									<height>1080</height>
								</samplecharacteristics>
							</video>
							<audio>
								<samplecharacteristics>
									<samplerate>48000</samplerate>
									<depth>24</depth>
								</samplecharacteristics>
								<channelcount>1</channelcount>
							</audio>
							<audio>
								<samplecharacteristics>
									<samplerate>48000</samplerate>
									<depth>24</depth>
								</samplecharacteristics>
								<channelcount>1</channelcount>
							</audio>
						</media>
					</file>
					<sourcetrack>
						<mediatype>video</mediatype>
					</sourcetrack>
					<link>
						<linkclipref>GN-L2-Tigt_49 </linkclipref>
						<mediatype>video</mediatype>
						<trackindex>1</trackindex>
						<clipindex>11</clipindex>
					</link>
					<link>
						<linkclipref>GN-L2-Tigt_49 3</linkclipref>
						<mediatype>audio</mediatype>
						<trackindex>1</trackindex>
						<clipindex>12</clipindex>
					</link>
					<link>
						<linkclipref>GN-L2-Tigt_49 4</linkclipref>
						<mediatype>audio</mediatype>
						<trackindex>2</trackindex>
						<clipindex>12</clipindex>
					</link>
					<fielddominance>upper</fielddominance>
					<itemhistory>
						<uuid>20CC5A4F-41ED-4F34-B9BF-41741B1C50A9</uuid>
					</itemhistory>
				</clipitem>
				<clipitem id="GN.ST-L1-tigt_28 ">
					<name>GN.ST-L1-tigt_28</name>
					<duration>3148</duration>
					<rate>
						<ntsc>TRUE</ntsc>
						<timebase>30</timebase>
					</rate>
					<in>386</in>
					<out>3112</out>
					<start>7325</start>
					<end>10051</end>
					<pixelaspectratio>Square</pixelaspectratio>
					<anamorphic>FALSE</anamorphic>
					<alphatype>none</alphatype>
					<logginginfo>
						<scene/>
						<shottake/>
						<lognote/>
						<good>FALSE</good>
					</logginginfo>
					<labels>
						<label2/>
					</labels>
					<comments>
						<mastercomment1/>
						<mastercomment2/>
						<mastercomment3/>
						<mastercomment4/>
					</comments>
					<file id="GN.ST-L1-tigt_28 1">
						<name>GN.ST-L1-tigt_28.mov</name>
						<pathurl>file://localhost/Volumes/Xsan/ELEVATE/ELEVATE_FCP_Docs/Good_News_Kids/Capture_Scratch/BibleStories/L2/Studio/GN.ST-L1-tigt_28.mov</pathurl>
						<rate>
							<timebase>30</timebase>
							<ntsc>TRUE</ntsc>
						</rate>
						<duration>3148</duration>
						<timecode>
							<rate>
								<timebase>30</timebase>
								<ntsc>TRUE</ntsc>
							</rate>
							<string>10:55:06:18</string>
							<frame>1179198</frame>
							<displayformat>NDF</displayformat>
							<source>source</source>
							<reel>
								<name>2</name>
							</reel>
						</timecode>
						<media>
							<video>
								<duration>3148</duration>
								<samplecharacteristics>
									<width>1920</width>
									<height>1080</height>
								</samplecharacteristics>
							</video>
							<audio>
								<samplecharacteristics>
									<samplerate>48000</samplerate>
									<depth>24</depth>
								</samplecharacteristics>
								<channelcount>1</channelcount>
							</audio>
							<audio>
								<samplecharacteristics>
									<samplerate>48000</samplerate>
									<depth>24</depth>
								</samplecharacteristics>
								<channelcount>1</channelcount>
							</audio>
						</media>
					</file>
					<sourcetrack>
						<mediatype>video</mediatype>
					</sourcetrack>
					<link>
						<linkclipref>GN.ST-L1-tigt_28 </linkclipref>
						<mediatype>video</mediatype>
						<trackindex>1</trackindex>
						<clipindex>12</clipindex>
					</link>
					<link>
						<linkclipref>GN.ST-L1-tigt_28 2</linkclipref>
						<mediatype>audio</mediatype>
						<trackindex>1</trackindex>
						<clipindex>13</clipindex>
					</link>
					<link>
						<linkclipref>GN.ST-L1-tigt_28 3</linkclipref>
						<mediatype>audio</mediatype>
						<trackindex>2</trackindex>
						<clipindex>13</clipindex>
					</link>
					<fielddominance>upper</fielddominance>
					<itemhistory>
						<uuid>AEBC9424-02F0-4A66-A6D2-624D08AE1CE9</uuid>
					</itemhistory>
				</clipitem>
				<enabled>TRUE</enabled>
				<locked>TRUE</locked>
			</track>
			<track>
				<transitionitem>
					<rate>
						<ntsc>TRUE</ntsc>
						<timebase>30</timebase>
					</rate>
					<start>996</start>
					<end>1026</end>
					<alignment>center</alignment>
					<effect>
						<name>Cross Dissolve</name>
						<effectid>Cross Dissolve</effectid>
						<effectcategory>Dissolve</effectcategory>
						<effecttype>transition</effecttype>
						<mediatype>video</mediatype>
						<wipecode>0</wipecode>
						<wipeaccuracy>100</wipeaccuracy>
						<startratio>0</startratio>
						<endratio>1</endratio>
						<reverse>FALSE</reverse>
					</effect>
				</transitionitem>
				<clipitem id="GN.ST-L1-wide_27 ">
					<name>GN.ST-L1-wide_27</name>
					<duration>6179</duration>
					<rate>
						<ntsc>TRUE</ntsc>
						<timebase>30</timebase>
					</rate>
					<in>599</in>
					<out>1264</out>
					<start>-1</start>
					<end>-1</end>
					<pixelaspectratio>Square</pixelaspectratio>
					<anamorphic>FALSE</anamorphic>
					<alphatype>none</alphatype>
					<logginginfo>
						<scene/>
						<shottake/>
						<lognote/>
						<good>FALSE</good>
					</logginginfo>
					<labels>
						<label2/>
					</labels>
					<comments>
						<mastercomment1/>
						<mastercomment2/>
						<mastercomment3/>
						<mastercomment4/>
					</comments>
					<file id="GN.ST-L1-wide_27 1">
						<name>GN.ST-L1-wide_27.mov</name>
						<pathurl>file://localhost/Volumes/Xsan/ELEVATE/ELEVATE_FCP_Docs/Good_News_Kids/Capture_Scratch/BibleStories/L2/Studio/GN.ST-L1-wide_27.mov</pathurl>
						<rate>
							<timebase>30</timebase>
							<ntsc>TRUE</ntsc>
						</rate>
						<duration>6179</duration>
						<timecode>
							<rate>
								<timebase>30</timebase>
								<ntsc>TRUE</ntsc>
							</rate>
							<string>10:50:46:11</string>
							<frame>1171391</frame>
							<displayformat>NDF</displayformat>
							<source>source</source>
							<reel>
								<name>1</name>
							</reel>
						</timecode>
						<media>
							<video>
								<duration>6179</duration>
								<samplecharacteristics>
									<width>1920</width>
									<height>1080</height>
								</samplecharacteristics>
							</video>
							<audio>
								<samplecharacteristics>
									<samplerate>48000</samplerate>
									<depth>24</depth>
								</samplecharacteristics>
								<channelcount>1</channelcount>
							</audio>
							<audio>
								<samplecharacteristics>
									<samplerate>48000</samplerate>
									<depth>24</depth>
								</samplecharacteristics>
								<channelcount>1</channelcount>
							</audio>
						</media>
					</file>
					<sourcetrack>
						<mediatype>video</mediatype>
					</sourcetrack>
					<link>
						<linkclipref>GN.ST-L1-wide_27 </linkclipref>
						<mediatype>video</mediatype>
						<trackindex>2</trackindex>
						<clipindex>2</clipindex>
					</link>
					<link>
						<linkclipref>GN.ST-L1-wide_27 2</linkclipref>
						<mediatype>audio</mediatype>
						<trackindex>3</trackindex>
						<clipindex>1</clipindex>
					</link>
					<link>
						<linkclipref>GN.ST-L1-wide_27 3</linkclipref>
						<mediatype>audio</mediatype>
						<trackindex>4</trackindex>
						<clipindex>1</clipindex>
					</link>
					<fielddominance>upper</fielddominance>
					<itemhistory>
						<uuid>CFE28147-3EDF-4545-A048-ED93B67EBECE</uuid>
					</itemhistory>
				</clipitem>
				<transitionitem>
					<rate>
						<ntsc>TRUE</ntsc>
						<timebase>30</timebase>
					</rate>
					<start>1641</start>
					<end>1661</end>
					<alignment>center</alignment>
					<effect>
						<name>20F Dip to White</name>
						<effectid>Dip to Color Dissolve</effectid>
						<effectcategory>Dissolve</effectcategory>
						<effecttype>transition</effecttype>
						<mediatype>video</mediatype>
						<wipecode>0</wipecode>
						<wipeaccuracy>100</wipeaccuracy>
						<startratio>0</startratio>
						<endratio>1</endratio>
						<reverse>FALSE</reverse>
						<parameter>
							<parameterid>threshold</parameterid>
							<name>Threshold</name>
							<valuemin>0</valuemin>
							<valuemax>100</valuemax>
							<value>50</value>
						</parameter>
						<parameter>
							<parameterid>soft</parameterid>
							<name>Soft</name>
							<valuemin>0</valuemin>
							<valuemax>100</valuemax>
							<value>100</value>
						</parameter>
						<parameter>
							<parameterid>dipcolor</parameterid>
							<name>Color</name>
							<value>
								<alpha>255</alpha>
								<red>255</red>
								<green>255</green>
								<blue>255</blue>
							</value>
						</parameter>
					</effect>
				</transitionitem>
				<clipitem id="GN-L2-Wide_34 ">
					<name>GN-L2-Wide_34</name>
					<duration>1031</duration>
					<rate>
						<ntsc>TRUE</ntsc>
						<timebase>30</timebase>
					</rate>
					<in>326</in>
					<out>826</out>
					<start>-1</start>
					<end>2141</end>
					<pixelaspectratio>Square</pixelaspectratio>
					<anamorphic>FALSE</anamorphic>
					<alphatype>none</alphatype>
					<masterclipid>GN-L2-Wide_34 1</masterclipid>
					<logginginfo>
						<scene/>
						<shottake/>
						<lognote/>
						<good>FALSE</good>
					</logginginfo>
					<labels>
						<label2/>
					</labels>
					<comments>
						<mastercomment1/>
						<mastercomment2/>
						<mastercomment3/>
						<mastercomment4/>
					</comments>
					<file id="GN-L2-Wide_34 2">
						<name>GN-L2-Wide_34.mov</name>
						<pathurl>file://localhost/Volumes/Xsan/ELEVATE/ELEVATE_FCP_Docs/Good_News_Kids/Capture_Scratch/BibleStories/L2/Location/GN-L2-Wide_34.mov</pathurl>
						<rate>
							<timebase>30</timebase>
							<ntsc>TRUE</ntsc>
						</rate>
						<duration>1031</duration>
						<timecode>
							<rate>
								<timebase>30</timebase>
								<ntsc>TRUE</ntsc>
							</rate>
							<string>11:51:58:27</string>
							<frame>1281567</frame>
							<displayformat>NDF</displayformat>
							<source>source</source>
							<reel>
								<name>1</name>
							</reel>
						</timecode>
						<media>
							<video>
								<duration>1031</duration>
								<samplecharacteristics>
									<width>1920</width>
									<height>1080</height>
								</samplecharacteristics>
							</video>
							<audio>
								<samplecharacteristics>
									<samplerate>48000</samplerate>
									<depth>24</depth>
								</samplecharacteristics>
								<channelcount>1</channelcount>
							</audio>
							<audio>
								<samplecharacteristics>
									<samplerate>48000</samplerate>
									<depth>24</depth>
								</samplecharacteristics>
								<channelcount>1</channelcount>
							</audio>
						</media>
					</file>
					<sourcetrack>
						<mediatype>video</mediatype>
					</sourcetrack>
					<link>
						<linkclipref>GN-L2-Wide_34 </linkclipref>
						<mediatype>video</mediatype>
						<trackindex>2</trackindex>
						<clipindex>4</clipindex>
					</link>
					<link>
						<linkclipref>GN-L2-Wide_34 3</linkclipref>
						<mediatype>audio</mediatype>
						<trackindex>3</trackindex>
						<clipindex>2</clipindex>
					</link>
					<link>
						<linkclipref>GN-L2-Wide_34 4</linkclipref>
						<mediatype>audio</mediatype>
						<trackindex>4</trackindex>
						<clipindex>2</clipindex>
					</link>
					<fielddominance>upper</fielddominance>
					<itemhistory>
						<uuid>3C25799D-24F4-4763-9E00-6AE64BA74E7D</uuid>
					</itemhistory>
				</clipitem>
				<clipitem id="GN-L2-Wide_36 ">
					<name>GN-L2-Wide_36</name>
					<duration>1744</duration>
					<rate>
						<ntsc>TRUE</ntsc>
						<timebase>30</timebase>
					</rate>
					<in>590</in>
					<out>1451</out>
					<start>2141</start>
					<end>3002</end>
					<pixelaspectratio>Square</pixelaspectratio>
					<anamorphic>FALSE</anamorphic>
					<alphatype>none</alphatype>
					<masterclipid>GN-L2-Wide_36 1</masterclipid>
					<logginginfo>
						<scene/>
						<shottake/>
						<lognote/>
						<good>FALSE</good>
					</logginginfo>
					<labels>
						<label2/>
					</labels>
					<comments>
						<mastercomment1/>
						<mastercomment2/>
						<mastercomment3/>
						<mastercomment4/>
					</comments>
					<file id="GN-L2-Wide_36 2">
						<name>GN-L2-Wide_36.mov</name>
						<pathurl>file://localhost/Volumes/Xsan/ELEVATE/ELEVATE_FCP_Docs/Good_News_Kids/Capture_Scratch/BibleStories/L2/Location/GN-L2-Wide_36.mov</pathurl>
						<rate>
							<timebase>30</timebase>
							<ntsc>TRUE</ntsc>
						</rate>
						<duration>1744</duration>
						<timecode>
							<rate>
								<timebase>30</timebase>
								<ntsc>TRUE</ntsc>
							</rate>
							<string>11:56:01:12</string>
							<frame>1288842</frame>
							<displayformat>NDF</displayformat>
							<source>source</source>
							<reel>
								<name>1</name>
							</reel>
						</timecode>
						<media>
							<video>
								<duration>1744</duration>
								<samplecharacteristics>
									<width>1920</width>
									<height>1080</height>
								</samplecharacteristics>
							</video>
							<audio>
								<samplecharacteristics>
									<samplerate>48000</samplerate>
									<depth>24</depth>
								</samplecharacteristics>
								<channelcount>1</channelcount>
							</audio>
							<audio>
								<samplecharacteristics>
									<samplerate>48000</samplerate>
									<depth>24</depth>
								</samplecharacteristics>
								<channelcount>1</channelcount>
							</audio>
						</media>
					</file>
					<sourcetrack>
						<mediatype>video</mediatype>
					</sourcetrack>
					<link>
						<linkclipref>GN-L2-Wide_36 </linkclipref>
						<mediatype>video</mediatype>
						<trackindex>2</trackindex>
						<clipindex>5</clipindex>
					</link>
					<link>
						<linkclipref>GN-L2-Wide_36 3</linkclipref>
						<mediatype>audio</mediatype>
						<trackindex>3</trackindex>
						<clipindex>3</clipindex>
					</link>
					<link>
						<linkclipref>GN-L2-Wide_36 4</linkclipref>
						<mediatype>audio</mediatype>
						<trackindex>4</trackindex>
						<clipindex>3</clipindex>
					</link>
					<fielddominance>upper</fielddominance>
					<itemhistory>
						<uuid>FA1D7B78-E009-42D5-BB0A-AFF02A5E3785</uuid>
					</itemhistory>
				</clipitem>
				<clipitem id="GN-L2-Wide_38 ">
					<name>GN-L2-Wide_38</name>
					<duration>1206</duration>
					<rate>
						<ntsc>TRUE</ntsc>
						<timebase>30</timebase>
					</rate>
					<in>622</in>
					<out>1041</out>
					<start>3002</start>
					<end>3421</end>
					<pixelaspectratio>Square</pixelaspectratio>
					<anamorphic>FALSE</anamorphic>
					<alphatype>none</alphatype>
					<masterclipid>GN-L2-Wide_38 1</masterclipid>
					<logginginfo>
						<scene/>
						<shottake/>
						<lognote/>
						<good>FALSE</good>
					</logginginfo>
					<labels>
						<label2/>
					</labels>
					<comments>
						<mastercomment1/>
						<mastercomment2/>
						<mastercomment3/>
						<mastercomment4/>
					</comments>
					<file id="GN-L2-Wide_38 2">
						<name>GN-L2-Wide_38.mov</name>
						<pathurl>file://localhost/Volumes/Xsan/ELEVATE/ELEVATE_FCP_Docs/Good_News_Kids/Capture_Scratch/BibleStories/L2/Location/GN-L2-Wide_38.mov</pathurl>
						<rate>
							<timebase>30</timebase>
							<ntsc>TRUE</ntsc>
						</rate>
						<duration>1206</duration>
						<timecode>
							<rate>
								<timebase>30</timebase>
								<ntsc>TRUE</ntsc>
							</rate>
							<string>11:59:20:07</string>
							<frame>1294807</frame>
							<displayformat>NDF</displayformat>
							<source>source</source>
							<reel>
								<name>1</name>
							</reel>
						</timecode>
						<media>
							<video>
								<duration>1206</duration>
								<samplecharacteristics>
									<width>1920</width>
									<height>1080</height>
								</samplecharacteristics>
							</video>
							<audio>
								<samplecharacteristics>
									<samplerate>48000</samplerate>
									<depth>24</depth>
								</samplecharacteristics>
								<channelcount>1</channelcount>
							</audio>
							<audio>
								<samplecharacteristics>
									<samplerate>48000</samplerate>
									<depth>24</depth>
								</samplecharacteristics>
								<channelcount>1</channelcount>
							</audio>
						</media>
					</file>
					<sourcetrack>
						<mediatype>video</mediatype>
					</sourcetrack>
					<link>
						<linkclipref>GN-L2-Wide_38 </linkclipref>
						<mediatype>video</mediatype>
						<trackindex>2</trackindex>
						<clipindex>6</clipindex>
					</link>
					<link>
						<linkclipref>GN-L2-Wide_38 3</linkclipref>
						<mediatype>audio</mediatype>
						<trackindex>3</trackindex>
						<clipindex>4</clipindex>
					</link>
					<link>
						<linkclipref>GN-L2-Wide_38 4</linkclipref>
						<mediatype>audio</mediatype>
						<trackindex>4</trackindex>
						<clipindex>4</clipindex>
					</link>
					<fielddominance>upper</fielddominance>
					<itemhistory>
						<uuid>92E0F560-890B-4C49-9D44-E6748F0D8488</uuid>
					</itemhistory>
				</clipitem>
				<clipitem id="GN-L2-Wide_42 ">
					<name>GN-L2-Wide_42</name>
					<duration>2303</duration>
					<rate>
						<ntsc>TRUE</ntsc>
						<timebase>30</timebase>
					</rate>
					<in>410</in>
					<out>1470</out>
					<start>3421</start>
					<end>4481</end>
					<pixelaspectratio>Square</pixelaspectratio>
					<anamorphic>FALSE</anamorphic>
					<alphatype>none</alphatype>
					<masterclipid>GN-L2-Wide_42 1</masterclipid>
					<logginginfo>
						<scene/>
						<shottake/>
						<lognote/>
						<good>FALSE</good>
					</logginginfo>
					<labels>
						<label2/>
					</labels>
					<comments>
						<mastercomment1/>
						<mastercomment2/>
						<mastercomment3/>
						<mastercomment4/>
					</comments>
					<file id="GN-L2-Wide_42 2">
						<name>GN-L2-Wide_42.mov</name>
						<pathurl>file://localhost/Volumes/Xsan/ELEVATE/ELEVATE_FCP_Docs/Good_News_Kids/Capture_Scratch/BibleStories/L2/Location/GN-L2-Wide_42.mov</pathurl>
						<rate>
							<timebase>30</timebase>
							<ntsc>TRUE</ntsc>
						</rate>
						<duration>2303</duration>
						<timecode>
							<rate>
								<timebase>30</timebase>
								<ntsc>TRUE</ntsc>
							</rate>
							<string>12:03:26:02</string>
							<frame>1302182</frame>
							<displayformat>NDF</displayformat>
							<source>source</source>
							<reel>
								<name>1</name>
							</reel>
						</timecode>
						<media>
							<video>
								<duration>2303</duration>
								<samplecharacteristics>
									<width>1920</width>
									<height>1080</height>
								</samplecharacteristics>
							</video>
							<audio>
								<samplecharacteristics>
									<samplerate>48000</samplerate>
									<depth>24</depth>
								</samplecharacteristics>
								<channelcount>1</channelcount>
							</audio>
							<audio>
								<samplecharacteristics>
									<samplerate>48000</samplerate>
									<depth>24</depth>
								</samplecharacteristics>
								<channelcount>1</channelcount>
							</audio>
						</media>
					</file>
					<sourcetrack>
						<mediatype>video</mediatype>
					</sourcetrack>
					<link>
						<linkclipref>GN-L2-Wide_42 </linkclipref>
						<mediatype>video</mediatype>
						<trackindex>2</trackindex>
						<clipindex>7</clipindex>
					</link>
					<link>
						<linkclipref>GN-L2-Wide_42 3</linkclipref>
						<mediatype>audio</mediatype>
						<trackindex>3</trackindex>
						<clipindex>5</clipindex>
					</link>
					<link>
						<linkclipref>GN-L2-Wide_42 4</linkclipref>
						<mediatype>audio</mediatype>
						<trackindex>4</trackindex>
						<clipindex>5</clipindex>
					</link>
					<fielddominance>upper</fielddominance>
					<itemhistory>
						<uuid>1EFFF71F-E98D-4A6F-B253-924AADC71987</uuid>
					</itemhistory>
				</clipitem>
				<clipitem id="GN-L2-Wide_42 5">
					<name>GN-L2-Wide_42</name>
					<duration>2303</duration>
					<rate>
						<ntsc>TRUE</ntsc>
						<timebase>30</timebase>
					</rate>
					<in>1606</in>
					<out>2143</out>
					<start>4481</start>
					<end>5018</end>
					<pixelaspectratio>Square</pixelaspectratio>
					<anamorphic>FALSE</anamorphic>
					<alphatype>none</alphatype>
					<masterclipid>GN-L2-Wide_42 1</masterclipid>
					<logginginfo>
						<scene/>
						<shottake/>
						<lognote/>
						<good>FALSE</good>
					</logginginfo>
					<labels>
						<label2/>
					</labels>
					<comments>
						<mastercomment1/>
						<mastercomment2/>
						<mastercomment3/>
						<mastercomment4/>
					</comments>
					<file id="GN-L2-Wide_42 2"/>
					<sourcetrack>
						<mediatype>video</mediatype>
					</sourcetrack>
					<link>
						<linkclipref>GN-L2-Wide_42 5</linkclipref>
						<mediatype>video</mediatype>
						<trackindex>2</trackindex>
						<clipindex>8</clipindex>
					</link>
					<link>
						<linkclipref>GN-L2-Wide_42 6</linkclipref>
						<mediatype>audio</mediatype>
						<trackindex>3</trackindex>
						<clipindex>6</clipindex>
					</link>
					<link>
						<linkclipref>GN-L2-Wide_42 7</linkclipref>
						<mediatype>audio</mediatype>
						<trackindex>4</trackindex>
						<clipindex>6</clipindex>
					</link>
					<fielddominance>upper</fielddominance>
					<itemhistory>
						<uuid>FD84D245-FADE-4B0D-B376-7FBF4EE57663</uuid>
					</itemhistory>
				</clipitem>
				<clipitem id="GN-L2-Wide_44 ">
					<name>GN-L2-Wide_44</name>
					<duration>736</duration>
					<rate>
						<ntsc>TRUE</ntsc>
						<timebase>30</timebase>
					</rate>
					<in>404</in>
					<out>556</out>
					<start>5018</start>
					<end>5170</end>
					<pixelaspectratio>Square</pixelaspectratio>
					<anamorphic>FALSE</anamorphic>
					<alphatype>none</alphatype>
					<masterclipid>GN-L2-Wide_44 1</masterclipid>
					<logginginfo>
						<scene/>
						<shottake/>
						<lognote/>
						<good>FALSE</good>
					</logginginfo>
					<labels>
						<label2/>
					</labels>
					<comments>
						<mastercomment1/>
						<mastercomment2/>
						<mastercomment3/>
						<mastercomment4/>
					</comments>
					<file id="GN-L2-Wide_44 2">
						<name>GN-L2-Wide_44.mov</name>
						<pathurl>file://localhost/Volumes/Xsan/ELEVATE/ELEVATE_FCP_Docs/Good_News_Kids/Capture_Scratch/BibleStories/L2/Location/GN-L2-Wide_44.mov</pathurl>
						<rate>
							<timebase>30</timebase>
							<ntsc>TRUE</ntsc>
						</rate>
						<duration>736</duration>
						<timecode>
							<rate>
								<timebase>30</timebase>
								<ntsc>TRUE</ntsc>
							</rate>
							<string>12:08:30:29</string>
							<frame>1311329</frame>
							<displayformat>NDF</displayformat>
							<source>source</source>
							<reel>
								<name>1</name>
							</reel>
						</timecode>
						<media>
							<video>
								<duration>736</duration>
								<samplecharacteristics>
									<width>1920</width>
									<height>1080</height>
								</samplecharacteristics>
							</video>
							<audio>
								<samplecharacteristics>
									<samplerate>48000</samplerate>
									<depth>24</depth>
								</samplecharacteristics>
								<channelcount>1</channelcount>
							</audio>
							<audio>
								<samplecharacteristics>
									<samplerate>48000</samplerate>
									<depth>24</depth>
								</samplecharacteristics>
								<channelcount>1</channelcount>
							</audio>
						</media>
					</file>
					<sourcetrack>
						<mediatype>video</mediatype>
					</sourcetrack>
					<link>
						<linkclipref>GN-L2-Wide_44 </linkclipref>
						<mediatype>video</mediatype>
						<trackindex>2</trackindex>
						<clipindex>9</clipindex>
					</link>
					<link>
						<linkclipref>GN-L2-Wide_44 3</linkclipref>
						<mediatype>audio</mediatype>
						<trackindex>3</trackindex>
						<clipindex>7</clipindex>
					</link>
					<link>
						<linkclipref>GN-L2-Wide_44 4</linkclipref>
						<mediatype>audio</mediatype>
						<trackindex>4</trackindex>
						<clipindex>7</clipindex>
					</link>
					<fielddominance>upper</fielddominance>
					<itemhistory>
						<uuid>C641CC03-3BFC-44D6-B3D3-9BAE7B3E0E4E</uuid>
					</itemhistory>
				</clipitem>
				<clipitem id="GN-L2-Wide_47 ">
					<name>GN-L2-Wide_47</name>
					<duration>2983</duration>
					<rate>
						<ntsc>TRUE</ntsc>
						<timebase>30</timebase>
					</rate>
					<in>1722</in>
					<out>2841</out>
					<start>5698</start>
					<end>6817</end>
					<pixelaspectratio>Square</pixelaspectratio>
					<enabled>TRUE</enabled>
					<anamorphic>FALSE</anamorphic>
					<alphatype>none</alphatype>
					<masterclipid>GN-L2-Wide_47 1</masterclipid>
					<logginginfo>
						<scene/>
						<shottake/>
						<lognote/>
						<good>FALSE</good>
					</logginginfo>
					<labels>
						<label2/>
					</labels>
					<comments>
						<mastercomment1/>
						<mastercomment2/>
						<mastercomment3/>
						<mastercomment4/>
					</comments>
					<file id="GN-L2-Wide_47 2">
						<name>GN-L2-Wide_47.mov</name>
						<pathurl>file://localhost/Volumes/Xsan/ELEVATE/ELEVATE_FCP_Docs/Good_News_Kids/Capture_Scratch/BibleStories/L2/Location/GN-L2-Wide_47.mov</pathurl>
						<rate>
							<timebase>30</timebase>
							<ntsc>TRUE</ntsc>
						</rate>
						<duration>2983</duration>
						<timecode>
							<rate>
								<timebase>30</timebase>
								<ntsc>TRUE</ntsc>
							</rate>
							<string>12:11:09:18</string>
							<frame>1316088</frame>
							<displayformat>NDF</displayformat>
							<source>source</source>
							<reel>
								<name>1</name>
							</reel>
						</timecode>
						<media>
							<video>
								<duration>2983</duration>
								<samplecharacteristics>
									<width>1920</width>
									<height>1080</height>
								</samplecharacteristics>
							</video>
							<audio>
								<samplecharacteristics>
									<samplerate>48000</samplerate>
									<depth>24</depth>
								</samplecharacteristics>
								<channelcount>1</channelcount>
							</audio>
							<audio>
								<samplecharacteristics>
									<samplerate>48000</samplerate>
									<depth>24</depth>
								</samplecharacteristics>
								<channelcount>1</channelcount>
							</audio>
						</media>
					</file>
					<sourcetrack>
						<mediatype>video</mediatype>
					</sourcetrack>
					<link>
						<linkclipref>GN-L2-Wide_47 </linkclipref>
						<mediatype>video</mediatype>
						<trackindex>2</trackindex>
						<clipindex>10</clipindex>
					</link>
					<link>
						<linkclipref>GN-L2-Wide_47 3</linkclipref>
						<mediatype>audio</mediatype>
						<trackindex>3</trackindex>
						<clipindex>8</clipindex>
					</link>
					<link>
						<linkclipref>GN-L2-Wide_47 4</linkclipref>
						<mediatype>audio</mediatype>
						<trackindex>4</trackindex>
						<clipindex>8</clipindex>
					</link>
					<fielddominance>upper</fielddominance>
					<itemhistory>
						<uuid>91F1902F-796F-4406-9393-67B8394FFBB2</uuid>
					</itemhistory>
				</clipitem>
				<clipitem id="GN-L2-Wide_48 ">
					<name>GN-L2-Wide_48</name>
					<duration>1159</duration>
					<rate>
						<ntsc>TRUE</ntsc>
						<timebase>30</timebase>
					</rate>
					<in>420</in>
					<out>635</out>
					<start>6817</start>
					<end>7032</end>
					<pixelaspectratio>Square</pixelaspectratio>
					<anamorphic>FALSE</anamorphic>
					<alphatype>none</alphatype>
					<masterclipid>GN-L2-Wide_48 1</masterclipid>
					<logginginfo>
						<scene/>
						<shottake/>
						<lognote/>
						<good>FALSE</good>
					</logginginfo>
					<labels>
						<label2/>
					</labels>
					<comments>
						<mastercomment1/>
						<mastercomment2/>
						<mastercomment3/>
						<mastercomment4/>
					</comments>
					<file id="GN-L2-Wide_48 2">
						<name>GN-L2-Wide_48.mov</name>
						<pathurl>file://localhost/Volumes/Xsan/ELEVATE/ELEVATE_FCP_Docs/Good_News_Kids/Capture_Scratch/BibleStories/L2/Location/GN-L2-Wide_48.mov</pathurl>
						<rate>
							<timebase>30</timebase>
							<ntsc>TRUE</ntsc>
						</rate>
						<duration>1159</duration>
						<timecode>
							<rate>
								<timebase>30</timebase>
								<ntsc>TRUE</ntsc>
							</rate>
							<string>12:15:07:19</string>
							<frame>1323229</frame>
							<displayformat>NDF</displayformat>
							<source>source</source>
							<reel>
								<name>1</name>
							</reel>
						</timecode>
						<media>
							<video>
								<duration>1159</duration>
								<samplecharacteristics>
									<width>1920</width>
									<height>1080</height>
								</samplecharacteristics>
							</video>
							<audio>
								<samplecharacteristics>
									<samplerate>48000</samplerate>
									<depth>24</depth>
								</samplecharacteristics>
								<channelcount>1</channelcount>
							</audio>
							<audio>
								<samplecharacteristics>
									<samplerate>48000</samplerate>
									<depth>24</depth>
								</samplecharacteristics>
								<channelcount>1</channelcount>
							</audio>
						</media>
					</file>
					<sourcetrack>
						<mediatype>video</mediatype>
					</sourcetrack>
					<link>
						<linkclipref>GN-L2-Wide_48 </linkclipref>
						<mediatype>video</mediatype>
						<trackindex>2</trackindex>
						<clipindex>11</clipindex>
					</link>
					<link>
						<linkclipref>GN-L2-Wide_48 3</linkclipref>
						<mediatype>audio</mediatype>
						<trackindex>3</trackindex>
						<clipindex>9</clipindex>
					</link>
					<link>
						<linkclipref>GN-L2-Wide_48 4</linkclipref>
						<mediatype>audio</mediatype>
						<trackindex>4</trackindex>
						<clipindex>9</clipindex>
					</link>
					<fielddominance>upper</fielddominance>
					<itemhistory>
						<uuid>AF95586F-9A4D-4B7A-A48F-B1F6888CFC9B</uuid>
					</itemhistory>
				</clipitem>
				<clipitem id="GN-L2-Wide_49 ">
					<name>GN-L2-Wide_49</name>
					<duration>2432</duration>
					<rate>
						<ntsc>TRUE</ntsc>
						<timebase>30</timebase>
					</rate>
					<in>1968</in>
					<out>2271</out>
					<start>7032</start>
					<end>-1</end>
					<pixelaspectratio>Square</pixelaspectratio>
					<anamorphic>FALSE</anamorphic>
					<alphatype>none</alphatype>
					<masterclipid>GN-L2-Wide_49 1</masterclipid>
					<logginginfo>
						<scene/>
						<shottake/>
						<lognote/>
						<good>FALSE</good>
					</logginginfo>
					<labels>
						<label2/>
					</labels>
					<comments>
						<mastercomment1/>
						<mastercomment2/>
						<mastercomment3/>
						<mastercomment4/>
					</comments>
					<file id="GN-L2-Wide_49 2">
						<name>GN-L2-Wide_49.mov</name>
						<pathurl>file://localhost/Volumes/Xsan/ELEVATE/ELEVATE_FCP_Docs/Good_News_Kids/Capture_Scratch/BibleStories/L2/Location/GN-L2-Wide_49.mov</pathurl>
						<rate>
							<timebase>30</timebase>
							<ntsc>TRUE</ntsc>
						</rate>
						<duration>2432</duration>
						<timecode>
							<rate>
								<timebase>30</timebase>
								<ntsc>TRUE</ntsc>
							</rate>
							<string>12:15:56:20</string>
							<frame>1324700</frame>
							<displayformat>NDF</displayformat>
							<source>source</source>
							<reel>
								<name>1</name>
							</reel>
						</timecode>
						<media>
							<video>
								<duration>2432</duration>
								<samplecharacteristics>
									<width>1920</width>
									<height>1080</height>
								</samplecharacteristics>
							</video>
							<audio>
								<samplecharacteristics>
									<samplerate>48000</samplerate>
									<depth>24</depth>
								</samplecharacteristics>
								<channelcount>1</channelcount>
							</audio>
							<audio>
								<samplecharacteristics>
									<samplerate>48000</samplerate>
									<depth>24</depth>
								</samplecharacteristics>
								<channelcount>1</channelcount>
							</audio>
						</media>
					</file>
					<sourcetrack>
						<mediatype>video</mediatype>
					</sourcetrack>
					<link>
						<linkclipref>GN-L2-Wide_49 </linkclipref>
						<mediatype>video</mediatype>
						<trackindex>2</trackindex>
						<clipindex>12</clipindex>
					</link>
					<link>
						<linkclipref>GN-L2-Wide_49 3</linkclipref>
						<mediatype>audio</mediatype>
						<trackindex>3</trackindex>
						<clipindex>10</clipindex>
					</link>
					<link>
						<linkclipref>GN-L2-Wide_49 4</linkclipref>
						<mediatype>audio</mediatype>
						<trackindex>4</trackindex>
						<clipindex>10</clipindex>
					</link>
					<fielddominance>upper</fielddominance>
					<itemhistory>
						<uuid>B5449571-6D67-4A01-99C8-5A1F7403A6ED</uuid>
					</itemhistory>
				</clipitem>
				<transitionitem>
					<rate>
						<ntsc>TRUE</ntsc>
						<timebase>30</timebase>
					</rate>
					<start>7315</start>
					<end>7335</end>
					<alignment>center</alignment>
					<effect>
						<name>20F Dip to White</name>
						<effectid>Dip to Color Dissolve</effectid>
						<effectcategory>Dissolve</effectcategory>
						<effecttype>transition</effecttype>
						<mediatype>video</mediatype>
						<wipecode>0</wipecode>
						<wipeaccuracy>100</wipeaccuracy>
						<startratio>0</startratio>
						<endratio>1</endratio>
						<reverse>FALSE</reverse>
						<parameter>
							<parameterid>threshold</parameterid>
							<name>Threshold</name>
							<valuemin>0</valuemin>
							<valuemax>100</valuemax>
							<value>50</value>
						</parameter>
						<parameter>
							<parameterid>soft</parameterid>
							<name>Soft</name>
							<valuemin>0</valuemin>
							<valuemax>100</valuemax>
							<value>100</value>
						</parameter>
						<parameter>
							<parameterid>dipcolor</parameterid>
							<name>Color</name>
							<value>
								<alpha>255</alpha>
								<red>255</red>
								<green>255</green>
								<blue>255</blue>
							</value>
						</parameter>
					</effect>
				</transitionitem>
				<clipitem id="GN.ST-L1-wide_28 ">
					<name>GN.ST-L1-wide_28</name>
					<duration>3212</duration>
					<rate>
						<ntsc>TRUE</ntsc>
						<timebase>30</timebase>
					</rate>
					<in>400</in>
					<out>3136</out>
					<start>-1</start>
					<end>10051</end>
					<pixelaspectratio>Square</pixelaspectratio>
					<anamorphic>FALSE</anamorphic>
					<alphatype>none</alphatype>
					<logginginfo>
						<scene/>
						<shottake/>
						<lognote/>
						<good>FALSE</good>
					</logginginfo>
					<labels>
						<label2/>
					</labels>
					<comments>
						<mastercomment1/>
						<mastercomment2/>
						<mastercomment3/>
						<mastercomment4/>
					</comments>
					<file id="GN.ST-L1-wide_28 1">
						<name>GN.ST-L1-wide_28.mov</name>
						<pathurl>file://localhost/Volumes/Xsan/ELEVATE/ELEVATE_FCP_Docs/Good_News_Kids/Capture_Scratch/BibleStories/L2/Studio/GN.ST-L1-wide_28.mov</pathurl>
						<rate>
							<timebase>30</timebase>
							<ntsc>TRUE</ntsc>
						</rate>
						<duration>3212</duration>
						<timecode>
							<rate>
								<timebase>30</timebase>
								<ntsc>TRUE</ntsc>
							</rate>
							<string>10:55:05:21</string>
							<frame>1179171</frame>
							<displayformat>NDF</displayformat>
							<source>source</source>
							<reel>
								<name>1</name>
							</reel>
						</timecode>
						<media>
							<video>
								<duration>3212</duration>
								<samplecharacteristics>
									<width>1920</width>
									<height>1080</height>
								</samplecharacteristics>
							</video>
							<audio>
								<samplecharacteristics>
									<samplerate>48000</samplerate>
									<depth>24</depth>
								</samplecharacteristics>
								<channelcount>1</channelcount>
							</audio>
							<audio>
								<samplecharacteristics>
									<samplerate>48000</samplerate>
									<depth>24</depth>
								</samplecharacteristics>
								<channelcount>1</channelcount>
							</audio>
						</media>
					</file>
					<sourcetrack>
						<mediatype>video</mediatype>
					</sourcetrack>
					<link>
						<linkclipref>GN.ST-L1-wide_28 </linkclipref>
						<mediatype>video</mediatype>
						<trackindex>2</trackindex>
						<clipindex>14</clipindex>
					</link>
					<link>
						<linkclipref>GN.ST-L1-wide_28 2</linkclipref>
						<mediatype>audio</mediatype>
						<trackindex>3</trackindex>
						<clipindex>11</clipindex>
					</link>
					<link>
						<linkclipref>GN.ST-L1-wide_28 3</linkclipref>
						<mediatype>audio</mediatype>
						<trackindex>4</trackindex>
						<clipindex>11</clipindex>
					</link>
					<fielddominance>upper</fielddominance>
					<itemhistory>
						<uuid>B96752D6-C56C-4140-9D70-8CCCC6EC2635</uuid>
					</itemhistory>
				</clipitem>
				<enabled>TRUE</enabled>
				<locked>TRUE</locked>
			</track>
			<track>
				<generatoritem id="Text">
					<name>Text</name>
					<duration>3600</duration>
					<rate>
						<ntsc>TRUE</ntsc>
						<timebase>30</timebase>
					</rate>
					<in>941</in>
					<out>1857</out>
					<start>0</start>
					<end>-1</end>
					<enabled>TRUE</enabled>
					<anamorphic>FALSE</anamorphic>
					<alphatype>black</alphatype>
					<effect>
						<name>Text</name>
						<effectid>Text</effectid>
						<effectcategory>Text</effectcategory>
						<effecttype>generator</effecttype>
						<mediatype>video</mediatype>
						<parameter>
							<parameterid>str</parameterid>
							<name>Text</name>
							<value>Narrative Intro&#13; &amp; Pictures</value>
						</parameter>
						<parameter>
							<parameterid>fontname</parameterid>
							<name>Font</name>
							<value>Lucida Grande</value>
						</parameter>
						<parameter>
							<parameterid>fontsize</parameterid>
							<name>Size</name>
							<valuemin>0</valuemin>
							<valuemax>1000</valuemax>
							<value>36</value>
						</parameter>
						<parameter>
							<parameterid>fontstyle</parameterid>
							<name>Style</name>
							<valuemin>1</valuemin>
							<valuemax>4</valuemax>
							<valuelist>
								<valueentry>
									<name>Plain</name>
									<value>1</value>
								</valueentry>
								<valueentry>
									<name>Bold</name>
									<value>2</value>
								</valueentry>
								<valueentry>
									<name>Italic</name>
									<value>3</value>
								</valueentry>
								<valueentry>
									<name>Bold/Italic</name>
									<value>4</value>
								</valueentry>
							</valuelist>
							<value>1</value>
						</parameter>
						<parameter>
							<parameterid>fontalign</parameterid>
							<name>Alignment</name>
							<valuemin>1</valuemin>
							<valuemax>3</valuemax>
							<valuelist>
								<valueentry>
									<name>Left</name>
									<value>1</value>
								</valueentry>
								<valueentry>
									<name>Center</name>
									<value>2</value>
								</valueentry>
								<valueentry>
									<name>Right</name>
									<value>3</value>
								</valueentry>
							</valuelist>
							<value>2</value>
						</parameter>
						<parameter>
							<parameterid>fontcolor</parameterid>
							<name>Font Color</name>
							<value>
								<alpha>255</alpha>
								<red>255</red>
								<green>255</green>
								<blue>255</blue>
							</value>
						</parameter>
						<parameter>
							<parameterid>origin</parameterid>
							<name>Origin</name>
							<value>
								<horiz>0</horiz>
								<vert>0</vert>
							</value>
						</parameter>
						<parameter>
							<parameterid>fonttrack</parameterid>
							<name>Tracking</name>
							<valuemin>-200</valuemin>
							<valuemax>200</valuemax>
							<value>1</value>
						</parameter>
						<parameter>
							<parameterid>leading</parameterid>
							<name>Leading</name>
							<valuemin>-100</valuemin>
							<valuemax>100</valuemax>
							<value>0</value>
						</parameter>
						<parameter>
							<parameterid>aspect</parameterid>
							<name>Aspect</name>
							<valuemin>0.1</valuemin>
							<valuemax>5</valuemax>
							<value>1</value>
						</parameter>
						<parameter>
							<parameterid>autokern</parameterid>
							<name>Auto Kerning</name>
							<value>TRUE</value>
						</parameter>
						<parameter>
							<parameterid>subpixel</parameterid>
							<name>Use Subpixel</name>
							<value>TRUE</value>
						</parameter>
					</effect>
					<sourcetrack>
						<mediatype>video</mediatype>
					</sourcetrack>
					<itemhistory>
						<uuid>C960CEC3-56BE-4F2C-B9A9-CD98A968F730</uuid>
					</itemhistory>
				</generatoritem>
				<transitionitem>
					<rate>
						<ntsc>TRUE</ntsc>
						<timebase>30</timebase>
					</rate>
					<start>886</start>
					<end>916</end>
					<alignment>center</alignment>
					<effect>
						<name>Cross Dissolve</name>
						<effectid>Cross Dissolve</effectid>
						<effectcategory>Dissolve</effectcategory>
						<effecttype>transition</effecttype>
						<mediatype>video</mediatype>
						<wipecode>0</wipecode>
						<wipeaccuracy>100</wipeaccuracy>
						<startratio>0</startratio>
						<endratio>1</endratio>
						<reverse>FALSE</reverse>
					</effect>
				</transitionitem>
				<generatoritem id="Text1">
					<name>Text</name>
					<duration>3600</duration>
					<rate>
						<ntsc>TRUE</ntsc>
						<timebase>30</timebase>
					</rate>
					<in>1615</in>
					<out>1755</out>
					<start>-1</start>
					<end>-1</end>
					<enabled>TRUE</enabled>
					<anamorphic>FALSE</anamorphic>
					<alphatype>black</alphatype>
					<effect>
						<name>Text</name>
						<effectid>Text</effectid>
						<effectcategory>Text</effectcategory>
						<effecttype>generator</effecttype>
						<mediatype>video</mediatype>
						<parameter>
							<parameterid>str</parameterid>
							<name>Text</name>
							<value>3-5 Second&#13;"Good News"&#13;Logo &amp; Theme Music&#13;</value>
						</parameter>
						<parameter>
							<parameterid>fontname</parameterid>
							<name>Font</name>
							<value>Lucida Grande</value>
						</parameter>
						<parameter>
							<parameterid>fontsize</parameterid>
							<name>Size</name>
							<valuemin>0</valuemin>
							<valuemax>1000</valuemax>
							<value>36</value>
						</parameter>
						<parameter>
							<parameterid>fontstyle</parameterid>
							<name>Style</name>
							<valuemin>1</valuemin>
							<valuemax>4</valuemax>
							<valuelist>
								<valueentry>
									<name>Plain</name>
									<value>1</value>
								</valueentry>
								<valueentry>
									<name>Bold</name>
									<value>2</value>
								</valueentry>
								<valueentry>
									<name>Italic</name>
									<value>3</value>
								</valueentry>
								<valueentry>
									<name>Bold/Italic</name>
									<value>4</value>
								</valueentry>
							</valuelist>
							<value>1</value>
						</parameter>
						<parameter>
							<parameterid>fontalign</parameterid>
							<name>Alignment</name>
							<valuemin>1</valuemin>
							<valuemax>3</valuemax>
							<valuelist>
								<valueentry>
									<name>Left</name>
									<value>1</value>
								</valueentry>
								<valueentry>
									<name>Center</name>
									<value>2</value>
								</valueentry>
								<valueentry>
									<name>Right</name>
									<value>3</value>
								</valueentry>
							</valuelist>
							<value>2</value>
						</parameter>
						<parameter>
							<parameterid>fontcolor</parameterid>
							<name>Font Color</name>
							<value>
								<alpha>255</alpha>
								<red>255</red>
								<green>255</green>
								<blue>255</blue>
							</value>
						</parameter>
						<parameter>
							<parameterid>origin</parameterid>
							<name>Origin</name>
							<value>
								<horiz>0</horiz>
								<vert>0</vert>
							</value>
						</parameter>
						<parameter>
							<parameterid>fonttrack</parameterid>
							<name>Tracking</name>
							<valuemin>-200</valuemin>
							<valuemax>200</valuemax>
							<value>1</value>
						</parameter>
						<parameter>
							<parameterid>leading</parameterid>
							<name>Leading</name>
							<valuemin>-100</valuemin>
							<valuemax>100</valuemax>
							<value>0</value>
						</parameter>
						<parameter>
							<parameterid>aspect</parameterid>
							<name>Aspect</name>
							<valuemin>0.1</valuemin>
							<valuemax>5</valuemax>
							<value>1</value>
						</parameter>
						<parameter>
							<parameterid>autokern</parameterid>
							<name>Auto Kerning</name>
							<value>TRUE</value>
						</parameter>
						<parameter>
							<parameterid>subpixel</parameterid>
							<name>Use Subpixel</name>
							<value>TRUE</value>
						</parameter>
					</effect>
					<sourcetrack>
						<mediatype>video</mediatype>
					</sourcetrack>
					<itemhistory>
						<uuid>88A857F7-6243-4264-AF35-7E44C19AF9F7</uuid>
					</itemhistory>
				</generatoritem>
				<transitionitem>
					<rate>
						<ntsc>TRUE</ntsc>
						<timebase>30</timebase>
					</rate>
					<start>996</start>
					<end>1026</end>
					<alignment>center</alignment>
					<effect>
						<name>Cross Dissolve</name>
						<effectid>Cross Dissolve</effectid>
						<effectcategory>Dissolve</effectcategory>
						<effecttype>transition</effecttype>
						<mediatype>video</mediatype>
						<wipecode>0</wipecode>
						<wipeaccuracy>100</wipeaccuracy>
						<startratio>0</startratio>
						<endratio>1</endratio>
						<reverse>FALSE</reverse>
					</effect>
				</transitionitem>
				<transitionitem>
					<rate>
						<ntsc>TRUE</ntsc>
						<timebase>30</timebase>
					</rate>
					<start>9946</start>
					<end>9976</end>
					<alignment>center</alignment>
					<effect>
						<name>Cross Dissolve</name>
						<effectid>Cross Dissolve</effectid>
						<effectcategory>Dissolve</effectcategory>
						<effecttype>transition</effecttype>
						<mediatype>video</mediatype>
						<wipecode>0</wipecode>
						<wipeaccuracy>100</wipeaccuracy>
						<startratio>0</startratio>
						<endratio>1</endratio>
						<reverse>FALSE</reverse>
					</effect>
				</transitionitem>
				<generatoritem id="Text2">
					<name>Text</name>
					<duration>3600</duration>
					<rate>
						<ntsc>TRUE</ntsc>
						<timebase>30</timebase>
					</rate>
					<in>1615</in>
					<out>1740</out>
					<start>-1</start>
					<end>10071</end>
					<enabled>TRUE</enabled>
					<anamorphic>FALSE</anamorphic>
					<alphatype>black</alphatype>
					<effect>
						<name>Text</name>
						<effectid>Text</effectid>
						<effectcategory>Text</effectcategory>
						<effecttype>generator</effecttype>
						<mediatype>video</mediatype>
						<parameter>
							<parameterid>str</parameterid>
							<name>Text</name>
							<value>3-5 Second&#13;"Good News"&#13;Logo &amp; Theme Music&#13;</value>
						</parameter>
						<parameter>
							<parameterid>fontname</parameterid>
							<name>Font</name>
							<value>Lucida Grande</value>
						</parameter>
						<parameter>
							<parameterid>fontsize</parameterid>
							<name>Size</name>
							<valuemin>0</valuemin>
							<valuemax>1000</valuemax>
							<value>36</value>
						</parameter>
						<parameter>
							<parameterid>fontstyle</parameterid>
							<name>Style</name>
							<valuemin>1</valuemin>
							<valuemax>4</valuemax>
							<valuelist>
								<valueentry>
									<name>Plain</name>
									<value>1</value>
								</valueentry>
								<valueentry>
									<name>Bold</name>
									<value>2</value>
								</valueentry>
								<valueentry>
									<name>Italic</name>
									<value>3</value>
								</valueentry>
								<valueentry>
									<name>Bold/Italic</name>
									<value>4</value>
								</valueentry>
							</valuelist>
							<value>1</value>
						</parameter>
						<parameter>
							<parameterid>fontalign</parameterid>
							<name>Alignment</name>
							<valuemin>1</valuemin>
							<valuemax>3</valuemax>
							<valuelist>
								<valueentry>
									<name>Left</name>
									<value>1</value>
								</valueentry>
								<valueentry>
									<name>Center</name>
									<value>2</value>
								</valueentry>
								<valueentry>
									<name>Right</name>
									<value>3</value>
								</valueentry>
							</valuelist>
							<value>2</value>
						</parameter>
						<parameter>
							<parameterid>fontcolor</parameterid>
							<name>Font Color</name>
							<value>
								<alpha>255</alpha>
								<red>255</red>
								<green>255</green>
								<blue>255</blue>
							</value>
						</parameter>
						<parameter>
							<parameterid>origin</parameterid>
							<name>Origin</name>
							<value>
								<horiz>0</horiz>
								<vert>0</vert>
							</value>
						</parameter>
						<parameter>
							<parameterid>fonttrack</parameterid>
							<name>Tracking</name>
							<valuemin>-200</valuemin>
							<valuemax>200</valuemax>
							<value>1</value>
						</parameter>
						<parameter>
							<parameterid>leading</parameterid>
							<name>Leading</name>
							<valuemin>-100</valuemin>
							<valuemax>100</valuemax>
							<value>0</value>
						</parameter>
						<parameter>
							<parameterid>aspect</parameterid>
							<name>Aspect</name>
							<valuemin>0.1</valuemin>
							<valuemax>5</valuemax>
							<value>1</value>
						</parameter>
						<parameter>
							<parameterid>autokern</parameterid>
							<name>Auto Kerning</name>
							<value>TRUE</value>
						</parameter>
						<parameter>
							<parameterid>subpixel</parameterid>
							<name>Use Subpixel</name>
							<value>TRUE</value>
						</parameter>
					</effect>
					<sourcetrack>
						<mediatype>video</mediatype>
					</sourcetrack>
					<itemhistory>
						<uuid>A0CA493C-7B89-4CB0-94CC-81D0B73622F4</uuid>
					</itemhistory>
				</generatoritem>
				<enabled>TRUE</enabled>
				<locked>TRUE</locked>
			</track>
		</video>
		<audio>
			<format>
				<samplecharacteristics>
					<depth>24</depth>
					<samplerate>48000</samplerate>
				</samplecharacteristics>
			</format>
			<outputs>
				<group>
					<index>1</index>
					<numchannels>2</numchannels>
					<downmix>0</downmix>
					<channel>
						<index>1</index>
					</channel>
					<channel>
						<index>2</index>
					</channel>
				</group>
			</outputs>
			<in>-1</in>
			<out>-1</out>
			<track>
				<clipitem id="GN.ST-L1-wide_5 3">
					<name>GN.ST-L1-wide_5</name>
					<duration>1230</duration>
					<rate>
						<ntsc>TRUE</ntsc>
						<timebase>30</timebase>
					</rate>
					<in>210</in>
					<out>1133</out>
					<start>0</start>
					<end>923</end>
					<masterclipid>GN.ST-L1-wide_5 1</masterclipid>
					<logginginfo>
						<scene/>
						<shottake/>
						<lognote/>
						<good>FALSE</good>
					</logginginfo>
					<labels>
						<label2/>
					</labels>
					<comments>
						<mastercomment1/>
						<mastercomment2/>
						<mastercomment3/>
						<mastercomment4/>
					</comments>
					<file id="GN.ST-L1-wide_5 2"/>
					<filter>
						<effect>
							<name>Audio Levels</name>
							<effectid>audiolevels</effectid>
							<effectcategory>audiolevels</effectcategory>
							<effecttype>audiolevels</effecttype>
							<mediatype>audio</mediatype>
							<parameter>
								<name>Level</name>
								<parameterid>level</parameterid>
								<valuemin>0</valuemin>
								<valuemax>3.98109</valuemax>
								<value>1</value>
							</parameter>
						</effect>
					</filter>
					<filter>
						<effect>
							<name>Audio Pan</name>
							<effectid>audiopan</effectid>
							<effectcategory>audiopan</effectcategory>
							<effecttype>audiopan</effecttype>
							<mediatype>audio</mediatype>
							<parameter>
								<name>Pan</name>
								<parameterid>pan</parameterid>
								<valuemin>-1</valuemin>
								<valuemax>1</valuemax>
								<value>0</value>
							</parameter>
						</effect>
					</filter>
					<sourcetrack>
						<mediatype>audio</mediatype>
						<trackindex>1</trackindex>
					</sourcetrack>
					<link>
						<linkclipref>GN.ST-L1-wide_5 </linkclipref>
						<mediatype>video</mediatype>
						<trackindex>1</trackindex>
						<clipindex>1</clipindex>
					</link>
					<link>
						<linkclipref>GN.ST-L1-wide_5 3</linkclipref>
						<mediatype>audio</mediatype>
						<trackindex>1</trackindex>
						<clipindex>1</clipindex>
					</link>
					<link>
						<linkclipref>GN.ST-L1-wide_5 4</linkclipref>
						<mediatype>audio</mediatype>
						<trackindex>2</trackindex>
						<clipindex>1</clipindex>
					</link>
					<itemhistory>
						<uuid>C06710BF-1CA5-453A-B676-16B9F6C794F1</uuid>
					</itemhistory>
				</clipitem>
				<clipitem id="GN.ST-L1-tigt_27 2">
					<name>GN.ST-L1-tigt_27</name>
					<duration>6183</duration>
					<rate>
						<ntsc>TRUE</ntsc>
						<timebase>30</timebase>
					</rate>
					<in>559</in>
					<out>1214</out>
					<start>996</start>
					<end>1651</end>
					<logginginfo>
						<scene/>
						<shottake/>
						<lognote/>
						<good>FALSE</good>
					</logginginfo>
					<labels>
						<label2/>
					</labels>
					<comments>
						<mastercomment1/>
						<mastercomment2/>
						<mastercomment3/>
						<mastercomment4/>
					</comments>
					<file id="GN.ST-L1-tigt_27 1"/>
					<filter>
						<effect>
							<name>Audio Levels</name>
							<effectid>audiolevels</effectid>
							<effectcategory>audiolevels</effectcategory>
							<effecttype>audiolevels</effecttype>
							<mediatype>audio</mediatype>
							<parameter>
								<name>Level</name>
								<parameterid>level</parameterid>
								<valuemin>0</valuemin>
								<valuemax>3.98109</valuemax>
								<value>1</value>
							</parameter>
						</effect>
					</filter>
					<filter>
						<effect>
							<name>Audio Pan</name>
							<effectid>audiopan</effectid>
							<effectcategory>audiopan</effectcategory>
							<effecttype>audiopan</effecttype>
							<mediatype>audio</mediatype>
							<parameter>
								<name>Pan</name>
								<parameterid>pan</parameterid>
								<valuemin>-1</valuemin>
								<valuemax>1</valuemax>
								<value>0</value>
							</parameter>
						</effect>
					</filter>
					<sourcetrack>
						<mediatype>audio</mediatype>
						<trackindex>1</trackindex>
					</sourcetrack>
					<link>
						<linkclipref>GN.ST-L1-tigt_27 </linkclipref>
						<mediatype>video</mediatype>
						<trackindex>1</trackindex>
						<clipindex>2</clipindex>
					</link>
					<link>
						<linkclipref>GN.ST-L1-tigt_27 2</linkclipref>
						<mediatype>audio</mediatype>
						<trackindex>1</trackindex>
						<clipindex>2</clipindex>
					</link>
					<link>
						<linkclipref>GN.ST-L1-tigt_27 3</linkclipref>
						<mediatype>audio</mediatype>
						<trackindex>2</trackindex>
						<clipindex>2</clipindex>
					</link>
					<itemhistory>
						<uuid>13E247A7-6170-4722-A910-9597DB71844E</uuid>
					</itemhistory>
				</clipitem>
				<clipitem id="GN-L2-Tigt_34 3">
					<name>GN-L2-Tigt_34</name>
					<duration>1064</duration>
					<rate>
						<ntsc>TRUE</ntsc>
						<timebase>30</timebase>
					</rate>
					<in>387</in>
					<out>877</out>
					<start>1651</start>
					<end>2141</end>
					<masterclipid>GN-L2-Tigt_34 5</masterclipid>
					<logginginfo>
						<scene/>
						<shottake/>
						<lognote/>
						<good>FALSE</good>
					</logginginfo>
					<labels>
						<label2/>
					</labels>
					<comments>
						<mastercomment1/>
						<mastercomment2/>
						<mastercomment3/>
						<mastercomment4/>
					</comments>
					<file id="GN-L2-Tigt_34 2"/>
					<filter>
						<effect>
							<name>Audio Levels</name>
							<effectid>audiolevels</effectid>
							<effectcategory>audiolevels</effectcategory>
							<effecttype>audiolevels</effecttype>
							<mediatype>audio</mediatype>
							<parameter>
								<name>Level</name>
								<parameterid>level</parameterid>
								<valuemin>0</valuemin>
								<valuemax>3.98109</valuemax>
								<value>1</value>
							</parameter>
						</effect>
					</filter>
					<filter>
						<effect>
							<name>Audio Pan</name>
							<effectid>audiopan</effectid>
							<effectcategory>audiopan</effectcategory>
							<effecttype>audiopan</effecttype>
							<mediatype>audio</mediatype>
							<parameter>
								<name>Pan</name>
								<parameterid>pan</parameterid>
								<valuemin>-1</valuemin>
								<valuemax>1</valuemax>
								<value>0</value>
							</parameter>
						</effect>
					</filter>
					<sourcetrack>
						<mediatype>audio</mediatype>
						<trackindex>1</trackindex>
					</sourcetrack>
					<link>
						<linkclipref>GN-L2-Tigt_34 </linkclipref>
						<mediatype>video</mediatype>
						<trackindex>1</trackindex>
						<clipindex>3</clipindex>
					</link>
					<link>
						<linkclipref>GN-L2-Tigt_34 3</linkclipref>
						<mediatype>audio</mediatype>
						<trackindex>1</trackindex>
						<clipindex>3</clipindex>
					</link>
					<link>
						<linkclipref>GN-L2-Tigt_34 4</linkclipref>
						<mediatype>audio</mediatype>
						<trackindex>2</trackindex>
						<clipindex>3</clipindex>
					</link>
					<itemhistory>
						<uuid>EBA8B5D6-8D08-4176-AF9F-01F8E5973AE3</uuid>
					</itemhistory>
				</clipitem>
				<clipitem id="GN-L2-Tigt_36 3">
					<name>GN-L2-Tigt_36</name>
					<duration>1713</duration>
					<rate>
						<ntsc>TRUE</ntsc>
						<timebase>30</timebase>
					</rate>
					<in>639</in>
					<out>1500</out>
					<start>2141</start>
					<end>3002</end>
					<masterclipid>GN-L2-Tigt_36 5</masterclipid>
					<logginginfo>
						<scene/>
						<shottake/>
						<lognote/>
						<good>FALSE</good>
					</logginginfo>
					<labels>
						<label2/>
					</labels>
					<comments>
						<mastercomment1/>
						<mastercomment2/>
						<mastercomment3/>
						<mastercomment4/>
					</comments>
					<file id="GN-L2-Tigt_36 2"/>
					<filter>
						<effect>
							<name>Audio Levels</name>
							<effectid>audiolevels</effectid>
							<effectcategory>audiolevels</effectcategory>
							<effecttype>audiolevels</effecttype>
							<mediatype>audio</mediatype>
							<parameter>
								<name>Level</name>
								<parameterid>level</parameterid>
								<valuemin>0</valuemin>
								<valuemax>3.98109</valuemax>
								<value>1</value>
							</parameter>
						</effect>
					</filter>
					<filter>
						<effect>
							<name>Audio Pan</name>
							<effectid>audiopan</effectid>
							<effectcategory>audiopan</effectcategory>
							<effecttype>audiopan</effecttype>
							<mediatype>audio</mediatype>
							<parameter>
								<name>Pan</name>
								<parameterid>pan</parameterid>
								<valuemin>-1</valuemin>
								<valuemax>1</valuemax>
								<value>0</value>
							</parameter>
						</effect>
					</filter>
					<sourcetrack>
						<mediatype>audio</mediatype>
						<trackindex>1</trackindex>
					</sourcetrack>
					<link>
						<linkclipref>GN-L2-Tigt_36 </linkclipref>
						<mediatype>video</mediatype>
						<trackindex>1</trackindex>
						<clipindex>4</clipindex>
					</link>
					<link>
						<linkclipref>GN-L2-Tigt_36 3</linkclipref>
						<mediatype>audio</mediatype>
						<trackindex>1</trackindex>
						<clipindex>4</clipindex>
					</link>
					<link>
						<linkclipref>GN-L2-Tigt_36 4</linkclipref>
						<mediatype>audio</mediatype>
						<trackindex>2</trackindex>
						<clipindex>4</clipindex>
					</link>
					<itemhistory>
						<uuid>43ED74A5-0207-454A-A0DD-2347ECEB574E</uuid>
					</itemhistory>
				</clipitem>
				<clipitem id="GN-L2-Tigt_38 3">
					<name>GN-L2-Tigt_38</name>
					<duration>1222</duration>
					<rate>
						<ntsc>TRUE</ntsc>
						<timebase>30</timebase>
					</rate>
					<in>654</in>
					<out>1073</out>
					<start>3002</start>
					<end>3421</end>
					<masterclipid>GN-L2-Tigt_38 5</masterclipid>
					<logginginfo>
						<scene/>
						<shottake/>
						<lognote/>
						<good>FALSE</good>
					</logginginfo>
					<labels>
						<label2/>
					</labels>
					<comments>
						<mastercomment1/>
						<mastercomment2/>
						<mastercomment3/>
						<mastercomment4/>
					</comments>
					<file id="GN-L2-Tigt_38 2"/>
					<filter>
						<effect>
							<name>Audio Levels</name>
							<effectid>audiolevels</effectid>
							<effectcategory>audiolevels</effectcategory>
							<effecttype>audiolevels</effecttype>
							<mediatype>audio</mediatype>
							<parameter>
								<name>Level</name>
								<parameterid>level</parameterid>
								<valuemin>0</valuemin>
								<valuemax>3.98109</valuemax>
								<value>1</value>
							</parameter>
						</effect>
					</filter>
					<filter>
						<effect>
							<name>Audio Pan</name>
							<effectid>audiopan</effectid>
							<effectcategory>audiopan</effectcategory>
							<effecttype>audiopan</effecttype>
							<mediatype>audio</mediatype>
							<parameter>
								<name>Pan</name>
								<parameterid>pan</parameterid>
								<valuemin>-1</valuemin>
								<valuemax>1</valuemax>
								<value>0</value>
							</parameter>
						</effect>
					</filter>
					<sourcetrack>
						<mediatype>audio</mediatype>
						<trackindex>1</trackindex>
					</sourcetrack>
					<link>
						<linkclipref>GN-L2-Tigt_38 </linkclipref>
						<mediatype>video</mediatype>
						<trackindex>1</trackindex>
						<clipindex>5</clipindex>
					</link>
					<link>
						<linkclipref>GN-L2-Tigt_38 3</linkclipref>
						<mediatype>audio</mediatype>
						<trackindex>1</trackindex>
						<clipindex>5</clipindex>
					</link>
					<link>
						<linkclipref>GN-L2-Tigt_38 4</linkclipref>
						<mediatype>audio</mediatype>
						<trackindex>2</trackindex>
						<clipindex>5</clipindex>
					</link>
					<itemhistory>
						<uuid>FD64C40C-0330-4C63-AE81-0C7966D22758</uuid>
					</itemhistory>
				</clipitem>
				<clipitem id="GN-L2-Tigt_42 3">
					<name>GN-L2-Tigt_42</name>
					<duration>2240</duration>
					<rate>
						<ntsc>TRUE</ntsc>
						<timebase>30</timebase>
					</rate>
					<in>389</in>
					<out>1449</out>
					<start>3421</start>
					<end>4481</end>
					<masterclipid>GN-L2-Tigt_42 8</masterclipid>
					<logginginfo>
						<scene/>
						<shottake/>
						<lognote/>
						<good>FALSE</good>
					</logginginfo>
					<labels>
						<label2/>
					</labels>
					<comments>
						<mastercomment1/>
						<mastercomment2/>
						<mastercomment3/>
						<mastercomment4/>
					</comments>
					<file id="GN-L2-Tigt_42 2"/>
					<filter>
						<effect>
							<name>Audio Levels</name>
							<effectid>audiolevels</effectid>
							<effectcategory>audiolevels</effectcategory>
							<effecttype>audiolevels</effecttype>
							<mediatype>audio</mediatype>
							<parameter>
								<name>Level</name>
								<parameterid>level</parameterid>
								<valuemin>0</valuemin>
								<valuemax>3.98109</valuemax>
								<value>1</value>
							</parameter>
						</effect>
					</filter>
					<filter>
						<effect>
							<name>Audio Pan</name>
							<effectid>audiopan</effectid>
							<effectcategory>audiopan</effectcategory>
							<effecttype>audiopan</effecttype>
							<mediatype>audio</mediatype>
							<parameter>
								<name>Pan</name>
								<parameterid>pan</parameterid>
								<valuemin>-1</valuemin>
								<valuemax>1</valuemax>
								<value>0</value>
							</parameter>
						</effect>
					</filter>
					<sourcetrack>
						<mediatype>audio</mediatype>
						<trackindex>1</trackindex>
					</sourcetrack>
					<link>
						<linkclipref>GN-L2-Tigt_42 </linkclipref>
						<mediatype>video</mediatype>
						<trackindex>1</trackindex>
						<clipindex>6</clipindex>
					</link>
					<link>
						<linkclipref>GN-L2-Tigt_42 3</linkclipref>
						<mediatype>audio</mediatype>
						<trackindex>1</trackindex>
						<clipindex>6</clipindex>
					</link>
					<link>
						<linkclipref>GN-L2-Tigt_42 4</linkclipref>
						<mediatype>audio</mediatype>
						<trackindex>2</trackindex>
						<clipindex>6</clipindex>
					</link>
					<itemhistory>
						<uuid>45CD0E1B-D733-4781-9A22-2E89F640DB2E</uuid>
					</itemhistory>
				</clipitem>
				<clipitem id="GN-L2-Tigt_42 6">
					<name>GN-L2-Tigt_42</name>
					<duration>2240</duration>
					<rate>
						<ntsc>TRUE</ntsc>
						<timebase>30</timebase>
					</rate>
					<in>1585</in>
					<out>2122</out>
					<start>4481</start>
					<end>5018</end>
					<masterclipid>GN-L2-Tigt_42 8</masterclipid>
					<logginginfo>
						<scene/>
						<shottake/>
						<lognote/>
						<good>FALSE</good>
					</logginginfo>
					<labels>
						<label2/>
					</labels>
					<comments>
						<mastercomment1/>
						<mastercomment2/>
						<mastercomment3/>
						<mastercomment4/>
					</comments>
					<file id="GN-L2-Tigt_42 2"/>
					<filter>
						<effect>
							<name>Audio Levels</name>
							<effectid>audiolevels</effectid>
							<effectcategory>audiolevels</effectcategory>
							<effecttype>audiolevels</effecttype>
							<mediatype>audio</mediatype>
							<parameter>
								<name>Level</name>
								<parameterid>level</parameterid>
								<valuemin>0</valuemin>
								<valuemax>3.98109</valuemax>
								<value>1</value>
							</parameter>
						</effect>
					</filter>
					<filter>
						<effect>
							<name>Audio Pan</name>
							<effectid>audiopan</effectid>
							<effectcategory>audiopan</effectcategory>
							<effecttype>audiopan</effecttype>
							<mediatype>audio</mediatype>
							<parameter>
								<name>Pan</name>
								<parameterid>pan</parameterid>
								<valuemin>-1</valuemin>
								<valuemax>1</valuemax>
								<value>0</value>
							</parameter>
						</effect>
					</filter>
					<sourcetrack>
						<mediatype>audio</mediatype>
						<trackindex>1</trackindex>
					</sourcetrack>
					<link>
						<linkclipref>GN-L2-Tigt_42 5</linkclipref>
						<mediatype>video</mediatype>
						<trackindex>1</trackindex>
						<clipindex>7</clipindex>
					</link>
					<link>
						<linkclipref>GN-L2-Tigt_42 6</linkclipref>
						<mediatype>audio</mediatype>
						<trackindex>1</trackindex>
						<clipindex>7</clipindex>
					</link>
					<link>
						<linkclipref>GN-L2-Tigt_42 7</linkclipref>
						<mediatype>audio</mediatype>
						<trackindex>2</trackindex>
						<clipindex>7</clipindex>
					</link>
					<itemhistory>
						<uuid>B2BADCC0-0A20-4370-B3C2-CA34C1F22ACA</uuid>
					</itemhistory>
				</clipitem>
				<clipitem id="GN-L2-Tigt_44 3">
					<name>GN-L2-Tigt_44</name>
					<duration>702</duration>
					<rate>
						<ntsc>TRUE</ntsc>
						<timebase>30</timebase>
					</rate>
					<in>387</in>
					<out>539</out>
					<start>5018</start>
					<end>5170</end>
					<masterclipid>GN-L2-Tigt_44 5</masterclipid>
					<logginginfo>
						<scene/>
						<shottake/>
						<lognote/>
						<good>FALSE</good>
					</logginginfo>
					<labels>
						<label2/>
					</labels>
					<comments>
						<mastercomment1/>
						<mastercomment2/>
						<mastercomment3/>
						<mastercomment4/>
					</comments>
					<file id="GN-L2-Tigt_44 2"/>
					<filter>
						<effect>
							<name>Audio Levels</name>
							<effectid>audiolevels</effectid>
							<effectcategory>audiolevels</effectcategory>
							<effecttype>audiolevels</effecttype>
							<mediatype>audio</mediatype>
							<parameter>
								<name>Level</name>
								<parameterid>level</parameterid>
								<valuemin>0</valuemin>
								<valuemax>3.98109</valuemax>
								<value>1</value>
							</parameter>
						</effect>
					</filter>
					<filter>
						<effect>
							<name>Audio Pan</name>
							<effectid>audiopan</effectid>
							<effectcategory>audiopan</effectcategory>
							<effecttype>audiopan</effecttype>
							<mediatype>audio</mediatype>
							<parameter>
								<name>Pan</name>
								<parameterid>pan</parameterid>
								<valuemin>-1</valuemin>
								<valuemax>1</valuemax>
								<value>0</value>
							</parameter>
						</effect>
					</filter>
					<sourcetrack>
						<mediatype>audio</mediatype>
						<trackindex>1</trackindex>
					</sourcetrack>
					<link>
						<linkclipref>GN-L2-Tigt_44 </linkclipref>
						<mediatype>video</mediatype>
						<trackindex>1</trackindex>
						<clipindex>8</clipindex>
					</link>
					<link>
						<linkclipref>GN-L2-Tigt_44 3</linkclipref>
						<mediatype>audio</mediatype>
						<trackindex>1</trackindex>
						<clipindex>8</clipindex>
					</link>
					<link>
						<linkclipref>GN-L2-Tigt_44 4</linkclipref>
						<mediatype>audio</mediatype>
						<trackindex>2</trackindex>
						<clipindex>8</clipindex>
					</link>
					<itemhistory>
						<uuid>927A7B05-630C-48E5-978D-B1214D7342C7</uuid>
					</itemhistory>
				</clipitem>
				<clipitem id="Jesus.wav">
					<name>Jesus.wav</name>
					<duration>528</duration>
					<rate>
						<ntsc>TRUE</ntsc>
						<timebase>30</timebase>
					</rate>
					<in>0</in>
					<out>528</out>
					<start>5170</start>
					<end>5698</end>
					<masterclipid>Jesus.wav1</masterclipid>
					<logginginfo>
						<scene/>
						<shottake/>
						<lognote/>
						<good>FALSE</good>
					</logginginfo>
					<labels>
						<label2/>
					</labels>
					<comments>
						<mastercomment1/>
						<mastercomment2/>
						<mastercomment3/>
						<mastercomment4/>
					</comments>
					<file id="Jesus">
						<name>Jesus.wav</name>
						<pathurl>file://localhost/Volumes/Xsan/ELEVATE/ELEVATE_Kids/GoodNews/Audio_Assets/GN_Kids_VO_Bounces/L2/Jesus.wav</pathurl>
						<rate>
							<timebase>30</timebase>
							<ntsc>TRUE</ntsc>
						</rate>
						<duration>528</duration>
						<timecode>
							<rate>
								<timebase>30</timebase>
								<ntsc>TRUE</ntsc>
							</rate>
							<string>00:00:29:25</string>
							<frame>895</frame>
							<displayformat>NDF</displayformat>
							<source>source</source>
						</timecode>
						<media>
							<audio>
								<samplecharacteristics>
									<samplerate>96000</samplerate>
									<depth>24</depth>
								</samplecharacteristics>
								<channelcount>2</channelcount>
							</audio>
						</media>
					</file>
					<filter>
						<effect>
							<name>Audio Levels</name>
							<effectid>audiolevels</effectid>
							<effectcategory>audiolevels</effectcategory>
							<effecttype>audiolevels</effecttype>
							<mediatype>audio</mediatype>
							<parameter>
								<name>Level</name>
								<parameterid>level</parameterid>
								<valuemin>0</valuemin>
								<valuemax>3.98109</valuemax>
								<value>1</value>
							</parameter>
						</effect>
					</filter>
					<filter>
						<effect>
							<name>Audio Pan</name>
							<effectid>audiopan</effectid>
							<effectcategory>audiopan</effectcategory>
							<effecttype>audiopan</effecttype>
							<mediatype>audio</mediatype>
							<parameter>
								<name>Pan</name>
								<parameterid>pan</parameterid>
								<valuemin>-1</valuemin>
								<valuemax>1</valuemax>
								<value>-1</value>
							</parameter>
						</effect>
					</filter>
					<sourcetrack>
						<mediatype>audio</mediatype>
						<trackindex>1</trackindex>
					</sourcetrack>
					<link>
						<linkclipref>Jesus.wav</linkclipref>
						<mediatype>audio</mediatype>
						<trackindex>1</trackindex>
						<clipindex>9</clipindex>
						<groupindex>1</groupindex>
					</link>
					<link>
						<linkclipref>Jesus.wav2</linkclipref>
						<mediatype>audio</mediatype>
						<trackindex>2</trackindex>
						<clipindex>9</clipindex>
						<groupindex>1</groupindex>
					</link>
					<itemhistory>
						<uuid>1919F047-8904-4814-8174-AC66C18124C4</uuid>
					</itemhistory>
				</clipitem>
				<clipitem id="GN-L2-Tigt_47 3">
					<name>GN-L2-Tigt_47</name>
					<duration>3006</duration>
					<rate>
						<ntsc>TRUE</ntsc>
						<timebase>30</timebase>
					</rate>
					<in>1755</in>
					<out>2874</out>
					<start>5698</start>
					<end>6817</end>
					<masterclipid>GN-L2-Tigt_47 5</masterclipid>
					<logginginfo>
						<scene/>
						<shottake/>
						<lognote/>
						<good>FALSE</good>
					</logginginfo>
					<labels>
						<label2/>
					</labels>
					<comments>
						<mastercomment1/>
						<mastercomment2/>
						<mastercomment3/>
						<mastercomment4/>
					</comments>
					<file id="GN-L2-Tigt_47 2"/>
					<filter>
						<effect>
							<name>Audio Levels</name>
							<effectid>audiolevels</effectid>
							<effectcategory>audiolevels</effectcategory>
							<effecttype>audiolevels</effecttype>
							<mediatype>audio</mediatype>
							<parameter>
								<name>Level</name>
								<parameterid>level</parameterid>
								<valuemin>0</valuemin>
								<valuemax>3.98109</valuemax>
								<value>1</value>
							</parameter>
						</effect>
					</filter>
					<filter>
						<effect>
							<name>Audio Pan</name>
							<effectid>audiopan</effectid>
							<effectcategory>audiopan</effectcategory>
							<effecttype>audiopan</effecttype>
							<mediatype>audio</mediatype>
							<parameter>
								<name>Pan</name>
								<parameterid>pan</parameterid>
								<valuemin>-1</valuemin>
								<valuemax>1</valuemax>
								<value>0</value>
							</parameter>
						</effect>
					</filter>
					<sourcetrack>
						<mediatype>audio</mediatype>
						<trackindex>1</trackindex>
					</sourcetrack>
					<link>
						<linkclipref>GN-L2-Tigt_47 </linkclipref>
						<mediatype>video</mediatype>
						<trackindex>1</trackindex>
						<clipindex>9</clipindex>
					</link>
					<link>
						<linkclipref>GN-L2-Tigt_47 3</linkclipref>
						<mediatype>audio</mediatype>
						<trackindex>1</trackindex>
						<clipindex>10</clipindex>
					</link>
					<link>
						<linkclipref>GN-L2-Tigt_47 4</linkclipref>
						<mediatype>audio</mediatype>
						<trackindex>2</trackindex>
						<clipindex>10</clipindex>
					</link>
					<itemhistory>
						<uuid>5129317B-648A-4572-B683-9A17C6D88402</uuid>
					</itemhistory>
				</clipitem>
				<clipitem id="GN-L2-Tigt_48 3">
					<name>GN-L2-Tigt_48</name>
					<duration>1122</duration>
					<rate>
						<ntsc>TRUE</ntsc>
						<timebase>30</timebase>
					</rate>
					<in>393</in>
					<out>608</out>
					<start>6817</start>
					<end>7032</end>
					<masterclipid>GN-L2-Tigt_48 5</masterclipid>
					<logginginfo>
						<scene/>
						<shottake/>
						<lognote/>
						<good>FALSE</good>
					</logginginfo>
					<labels>
						<label2/>
					</labels>
					<comments>
						<mastercomment1/>
						<mastercomment2/>
						<mastercomment3/>
						<mastercomment4/>
					</comments>
					<file id="GN-L2-Tigt_48 2"/>
					<filter>
						<effect>
							<name>Audio Levels</name>
							<effectid>audiolevels</effectid>
							<effectcategory>audiolevels</effectcategory>
							<effecttype>audiolevels</effecttype>
							<mediatype>audio</mediatype>
							<parameter>
								<name>Level</name>
								<parameterid>level</parameterid>
								<valuemin>0</valuemin>
								<valuemax>3.98109</valuemax>
								<value>1</value>
							</parameter>
						</effect>
					</filter>
					<filter>
						<effect>
							<name>Audio Pan</name>
							<effectid>audiopan</effectid>
							<effectcategory>audiopan</effectcategory>
							<effecttype>audiopan</effecttype>
							<mediatype>audio</mediatype>
							<parameter>
								<name>Pan</name>
								<parameterid>pan</parameterid>
								<valuemin>-1</valuemin>
								<valuemax>1</valuemax>
								<value>0</value>
							</parameter>
						</effect>
					</filter>
					<sourcetrack>
						<mediatype>audio</mediatype>
						<trackindex>1</trackindex>
					</sourcetrack>
					<link>
						<linkclipref>GN-L2-Tigt_48 </linkclipref>
						<mediatype>video</mediatype>
						<trackindex>1</trackindex>
						<clipindex>10</clipindex>
					</link>
					<link>
						<linkclipref>GN-L2-Tigt_48 3</linkclipref>
						<mediatype>audio</mediatype>
						<trackindex>1</trackindex>
						<clipindex>11</clipindex>
					</link>
					<link>
						<linkclipref>GN-L2-Tigt_48 4</linkclipref>
						<mediatype>audio</mediatype>
						<trackindex>2</trackindex>
						<clipindex>11</clipindex>
					</link>
					<itemhistory>
						<uuid>DB0AE323-9C9B-42A0-ADAD-085A8454A8D2</uuid>
					</itemhistory>
				</clipitem>
				<clipitem id="GN-L2-Tigt_49 3">
					<name>GN-L2-Tigt_49</name>
					<duration>2427</duration>
					<rate>
						<ntsc>TRUE</ntsc>
						<timebase>30</timebase>
					</rate>
					<in>1993</in>
					<out>2286</out>
					<start>7032</start>
					<end>7325</end>
					<masterclipid>GN-L2-Tigt_49 5</masterclipid>
					<logginginfo>
						<scene/>
						<shottake/>
						<lognote/>
						<good>FALSE</good>
					</logginginfo>
					<labels>
						<label2/>
					</labels>
					<comments>
						<mastercomment1/>
						<mastercomment2/>
						<mastercomment3/>
						<mastercomment4/>
					</comments>
					<file id="GN-L2-Tigt_49 2"/>
					<filter>
						<effect>
							<name>Audio Levels</name>
							<effectid>audiolevels</effectid>
							<effectcategory>audiolevels</effectcategory>
							<effecttype>audiolevels</effecttype>
							<mediatype>audio</mediatype>
							<parameter>
								<name>Level</name>
								<parameterid>level</parameterid>
								<valuemin>0</valuemin>
								<valuemax>3.98109</valuemax>
								<value>1</value>
							</parameter>
						</effect>
					</filter>
					<filter>
						<effect>
							<name>Audio Pan</name>
							<effectid>audiopan</effectid>
							<effectcategory>audiopan</effectcategory>
							<effecttype>audiopan</effecttype>
							<mediatype>audio</mediatype>
							<parameter>
								<name>Pan</name>
								<parameterid>pan</parameterid>
								<valuemin>-1</valuemin>
								<valuemax>1</valuemax>
								<value>0</value>
							</parameter>
						</effect>
					</filter>
					<sourcetrack>
						<mediatype>audio</mediatype>
						<trackindex>1</trackindex>
					</sourcetrack>
					<link>
						<linkclipref>GN-L2-Tigt_49 </linkclipref>
						<mediatype>video</mediatype>
						<trackindex>1</trackindex>
						<clipindex>11</clipindex>
					</link>
					<link>
						<linkclipref>GN-L2-Tigt_49 3</linkclipref>
						<mediatype>audio</mediatype>
						<trackindex>1</trackindex>
						<clipindex>12</clipindex>
					</link>
					<link>
						<linkclipref>GN-L2-Tigt_49 4</linkclipref>
						<mediatype>audio</mediatype>
						<trackindex>2</trackindex>
						<clipindex>12</clipindex>
					</link>
					<itemhistory>
						<uuid>79894A8D-7C10-4D44-A174-02A1852FB01C</uuid>
					</itemhistory>
				</clipitem>
				<clipitem id="GN.ST-L1-tigt_28 2">
					<name>GN.ST-L1-tigt_28</name>
					<duration>3148</duration>
					<rate>
						<ntsc>TRUE</ntsc>
						<timebase>30</timebase>
					</rate>
					<in>386</in>
					<out>3112</out>
					<start>7325</start>
					<end>10051</end>
					<logginginfo>
						<scene/>
						<shottake/>
						<lognote/>
						<good>FALSE</good>
					</logginginfo>
					<labels>
						<label2/>
					</labels>
					<comments>
						<mastercomment1/>
						<mastercomment2/>
						<mastercomment3/>
						<mastercomment4/>
					</comments>
					<file id="GN.ST-L1-tigt_28 1"/>
					<filter>
						<effect>
							<name>Audio Levels</name>
							<effectid>audiolevels</effectid>
							<effectcategory>audiolevels</effectcategory>
							<effecttype>audiolevels</effecttype>
							<mediatype>audio</mediatype>
							<parameter>
								<name>Level</name>
								<parameterid>level</parameterid>
								<valuemin>0</valuemin>
								<valuemax>3.98109</valuemax>
								<value>1</value>
							</parameter>
						</effect>
					</filter>
					<filter>
						<effect>
							<name>Audio Pan</name>
							<effectid>audiopan</effectid>
							<effectcategory>audiopan</effectcategory>
							<effecttype>audiopan</effecttype>
							<mediatype>audio</mediatype>
							<parameter>
								<name>Pan</name>
								<parameterid>pan</parameterid>
								<valuemin>-1</valuemin>
								<valuemax>1</valuemax>
								<value>0</value>
							</parameter>
						</effect>
					</filter>
					<sourcetrack>
						<mediatype>audio</mediatype>
						<trackindex>1</trackindex>
					</sourcetrack>
					<link>
						<linkclipref>GN.ST-L1-tigt_28 </linkclipref>
						<mediatype>video</mediatype>
						<trackindex>1</trackindex>
						<clipindex>12</clipindex>
					</link>
					<link>
						<linkclipref>GN.ST-L1-tigt_28 2</linkclipref>
						<mediatype>audio</mediatype>
						<trackindex>1</trackindex>
						<clipindex>13</clipindex>
					</link>
					<link>
						<linkclipref>GN.ST-L1-tigt_28 3</linkclipref>
						<mediatype>audio</mediatype>
						<trackindex>2</trackindex>
						<clipindex>13</clipindex>
					</link>
					<itemhistory>
						<uuid>CD3546AC-8C6F-4279-959E-4B4F922775BD</uuid>
					</itemhistory>
				</clipitem>
				<enabled>TRUE</enabled>
				<locked>TRUE</locked>
				<outputchannelindex>1</outputchannelindex>
			</track>
			<track>
				<clipitem id="GN.ST-L1-wide_5 4">
					<name>GN.ST-L1-wide_5</name>
					<duration>1230</duration>
					<rate>
						<ntsc>TRUE</ntsc>
						<timebase>30</timebase>
					</rate>
					<in>210</in>
					<out>1133</out>
					<start>0</start>
					<end>923</end>
					<masterclipid>GN.ST-L1-wide_5 1</masterclipid>
					<logginginfo>
						<scene/>
						<shottake/>
						<lognote/>
						<good>FALSE</good>
					</logginginfo>
					<labels>
						<label2/>
					</labels>
					<comments>
						<mastercomment1/>
						<mastercomment2/>
						<mastercomment3/>
						<mastercomment4/>
					</comments>
					<file id="GN.ST-L1-wide_5 2"/>
					<filter>
						<effect>
							<name>Audio Levels</name>
							<effectid>audiolevels</effectid>
							<effectcategory>audiolevels</effectcategory>
							<effecttype>audiolevels</effecttype>
							<mediatype>audio</mediatype>
							<parameter>
								<name>Level</name>
								<parameterid>level</parameterid>
								<valuemin>0</valuemin>
								<valuemax>3.98109</valuemax>
								<value>1</value>
							</parameter>
						</effect>
					</filter>
					<filter>
						<effect>
							<name>Audio Pan</name>
							<effectid>audiopan</effectid>
							<effectcategory>audiopan</effectcategory>
							<effecttype>audiopan</effecttype>
							<mediatype>audio</mediatype>
							<parameter>
								<name>Pan</name>
								<parameterid>pan</parameterid>
								<valuemin>-1</valuemin>
								<valuemax>1</valuemax>
								<value>0</value>
							</parameter>
						</effect>
					</filter>
					<sourcetrack>
						<mediatype>audio</mediatype>
						<trackindex>2</trackindex>
					</sourcetrack>
					<link>
						<linkclipref>GN.ST-L1-wide_5 </linkclipref>
						<mediatype>video</mediatype>
						<trackindex>1</trackindex>
						<clipindex>1</clipindex>
					</link>
					<link>
						<linkclipref>GN.ST-L1-wide_5 3</linkclipref>
						<mediatype>audio</mediatype>
						<trackindex>1</trackindex>
						<clipindex>1</clipindex>
					</link>
					<link>
						<linkclipref>GN.ST-L1-wide_5 4</linkclipref>
						<mediatype>audio</mediatype>
						<trackindex>2</trackindex>
						<clipindex>1</clipindex>
					</link>
					<itemhistory>
						<uuid>8983E1F9-8F31-4776-8DE1-48FA13F2FA09</uuid>
					</itemhistory>
				</clipitem>
				<clipitem id="GN.ST-L1-tigt_27 3">
					<name>GN.ST-L1-tigt_27</name>
					<duration>6183</duration>
					<rate>
						<ntsc>TRUE</ntsc>
						<timebase>30</timebase>
					</rate>
					<in>559</in>
					<out>1214</out>
					<start>996</start>
					<end>1651</end>
					<logginginfo>
						<scene/>
						<shottake/>
						<lognote/>
						<good>FALSE</good>
					</logginginfo>
					<labels>
						<label2/>
					</labels>
					<comments>
						<mastercomment1/>
						<mastercomment2/>
						<mastercomment3/>
						<mastercomment4/>
					</comments>
					<file id="GN.ST-L1-tigt_27 1"/>
					<filter>
						<effect>
							<name>Audio Levels</name>
							<effectid>audiolevels</effectid>
							<effectcategory>audiolevels</effectcategory>
							<effecttype>audiolevels</effecttype>
							<mediatype>audio</mediatype>
							<parameter>
								<name>Level</name>
								<parameterid>level</parameterid>
								<valuemin>0</valuemin>
								<valuemax>3.98109</valuemax>
								<value>1</value>
							</parameter>
						</effect>
					</filter>
					<filter>
						<effect>
							<name>Audio Pan</name>
							<effectid>audiopan</effectid>
							<effectcategory>audiopan</effectcategory>
							<effecttype>audiopan</effecttype>
							<mediatype>audio</mediatype>
							<parameter>
								<name>Pan</name>
								<parameterid>pan</parameterid>
								<valuemin>-1</valuemin>
								<valuemax>1</valuemax>
								<value>0</value>
							</parameter>
						</effect>
					</filter>
					<sourcetrack>
						<mediatype>audio</mediatype>
						<trackindex>2</trackindex>
					</sourcetrack>
					<link>
						<linkclipref>GN.ST-L1-tigt_27 </linkclipref>
						<mediatype>video</mediatype>
						<trackindex>1</trackindex>
						<clipindex>2</clipindex>
					</link>
					<link>
						<linkclipref>GN.ST-L1-tigt_27 2</linkclipref>
						<mediatype>audio</mediatype>
						<trackindex>1</trackindex>
						<clipindex>2</clipindex>
					</link>
					<link>
						<linkclipref>GN.ST-L1-tigt_27 3</linkclipref>
						<mediatype>audio</mediatype>
						<trackindex>2</trackindex>
						<clipindex>2</clipindex>
					</link>
					<itemhistory>
						<uuid>B117272F-FEC9-46BB-90F9-E82BA250FBB6</uuid>
					</itemhistory>
				</clipitem>
				<clipitem id="GN-L2-Tigt_34 4">
					<name>GN-L2-Tigt_34</name>
					<duration>1064</duration>
					<rate>
						<ntsc>TRUE</ntsc>
						<timebase>30</timebase>
					</rate>
					<in>387</in>
					<out>877</out>
					<start>1651</start>
					<end>2141</end>
					<masterclipid>GN-L2-Tigt_34 6</masterclipid>
					<logginginfo>
						<scene/>
						<shottake/>
						<lognote/>
						<good>FALSE</good>
					</logginginfo>
					<labels>
						<label2/>
					</labels>
					<comments>
						<mastercomment1/>
						<mastercomment2/>
						<mastercomment3/>
						<mastercomment4/>
					</comments>
					<file id="GN-L2-Tigt_34 2"/>
					<filter>
						<effect>
							<name>Audio Levels</name>
							<effectid>audiolevels</effectid>
							<effectcategory>audiolevels</effectcategory>
							<effecttype>audiolevels</effecttype>
							<mediatype>audio</mediatype>
							<parameter>
								<name>Level</name>
								<parameterid>level</parameterid>
								<valuemin>0</valuemin>
								<valuemax>3.98109</valuemax>
								<value>1</value>
							</parameter>
						</effect>
					</filter>
					<filter>
						<effect>
							<name>Audio Pan</name>
							<effectid>audiopan</effectid>
							<effectcategory>audiopan</effectcategory>
							<effecttype>audiopan</effecttype>
							<mediatype>audio</mediatype>
							<parameter>
								<name>Pan</name>
								<parameterid>pan</parameterid>
								<valuemin>-1</valuemin>
								<valuemax>1</valuemax>
								<value>0</value>
							</parameter>
						</effect>
					</filter>
					<sourcetrack>
						<mediatype>audio</mediatype>
						<trackindex>2</trackindex>
					</sourcetrack>
					<link>
						<linkclipref>GN-L2-Tigt_34 </linkclipref>
						<mediatype>video</mediatype>
						<trackindex>1</trackindex>
						<clipindex>3</clipindex>
					</link>
					<link>
						<linkclipref>GN-L2-Tigt_34 3</linkclipref>
						<mediatype>audio</mediatype>
						<trackindex>1</trackindex>
						<clipindex>3</clipindex>
					</link>
					<link>
						<linkclipref>GN-L2-Tigt_34 4</linkclipref>
						<mediatype>audio</mediatype>
						<trackindex>2</trackindex>
						<clipindex>3</clipindex>
					</link>
					<itemhistory>
						<uuid>6170CC7E-7035-4899-A876-729D8092C009</uuid>
					</itemhistory>
				</clipitem>
				<clipitem id="GN-L2-Tigt_36 4">
					<name>GN-L2-Tigt_36</name>
					<duration>1713</duration>
					<rate>
						<ntsc>TRUE</ntsc>
						<timebase>30</timebase>
					</rate>
					<in>639</in>
					<out>1500</out>
					<start>2141</start>
					<end>3002</end>
					<masterclipid>GN-L2-Tigt_36 6</masterclipid>
					<logginginfo>
						<scene/>
						<shottake/>
						<lognote/>
						<good>FALSE</good>
					</logginginfo>
					<labels>
						<label2/>
					</labels>
					<comments>
						<mastercomment1/>
						<mastercomment2/>
						<mastercomment3/>
						<mastercomment4/>
					</comments>
					<file id="GN-L2-Tigt_36 2"/>
					<filter>
						<effect>
							<name>Audio Levels</name>
							<effectid>audiolevels</effectid>
							<effectcategory>audiolevels</effectcategory>
							<effecttype>audiolevels</effecttype>
							<mediatype>audio</mediatype>
							<parameter>
								<name>Level</name>
								<parameterid>level</parameterid>
								<valuemin>0</valuemin>
								<valuemax>3.98109</valuemax>
								<value>1</value>
							</parameter>
						</effect>
					</filter>
					<filter>
						<effect>
							<name>Audio Pan</name>
							<effectid>audiopan</effectid>
							<effectcategory>audiopan</effectcategory>
							<effecttype>audiopan</effecttype>
							<mediatype>audio</mediatype>
							<parameter>
								<name>Pan</name>
								<parameterid>pan</parameterid>
								<valuemin>-1</valuemin>
								<valuemax>1</valuemax>
								<value>0</value>
							</parameter>
						</effect>
					</filter>
					<sourcetrack>
						<mediatype>audio</mediatype>
						<trackindex>2</trackindex>
					</sourcetrack>
					<link>
						<linkclipref>GN-L2-Tigt_36 </linkclipref>
						<mediatype>video</mediatype>
						<trackindex>1</trackindex>
						<clipindex>4</clipindex>
					</link>
					<link>
						<linkclipref>GN-L2-Tigt_36 3</linkclipref>
						<mediatype>audio</mediatype>
						<trackindex>1</trackindex>
						<clipindex>4</clipindex>
					</link>
					<link>
						<linkclipref>GN-L2-Tigt_36 4</linkclipref>
						<mediatype>audio</mediatype>
						<trackindex>2</trackindex>
						<clipindex>4</clipindex>
					</link>
					<itemhistory>
						<uuid>674C30E6-47A8-4C86-8A2D-1624183997B5</uuid>
					</itemhistory>
				</clipitem>
				<clipitem id="GN-L2-Tigt_38 4">
					<name>GN-L2-Tigt_38</name>
					<duration>1222</duration>
					<rate>
						<ntsc>TRUE</ntsc>
						<timebase>30</timebase>
					</rate>
					<in>654</in>
					<out>1073</out>
					<start>3002</start>
					<end>3421</end>
					<masterclipid>GN-L2-Tigt_38 6</masterclipid>
					<logginginfo>
						<scene/>
						<shottake/>
						<lognote/>
						<good>FALSE</good>
					</logginginfo>
					<labels>
						<label2/>
					</labels>
					<comments>
						<mastercomment1/>
						<mastercomment2/>
						<mastercomment3/>
						<mastercomment4/>
					</comments>
					<file id="GN-L2-Tigt_38 2"/>
					<filter>
						<effect>
							<name>Audio Levels</name>
							<effectid>audiolevels</effectid>
							<effectcategory>audiolevels</effectcategory>
							<effecttype>audiolevels</effecttype>
							<mediatype>audio</mediatype>
							<parameter>
								<name>Level</name>
								<parameterid>level</parameterid>
								<valuemin>0</valuemin>
								<valuemax>3.98109</valuemax>
								<value>1</value>
							</parameter>
						</effect>
					</filter>
					<filter>
						<effect>
							<name>Audio Pan</name>
							<effectid>audiopan</effectid>
							<effectcategory>audiopan</effectcategory>
							<effecttype>audiopan</effecttype>
							<mediatype>audio</mediatype>
							<parameter>
								<name>Pan</name>
								<parameterid>pan</parameterid>
								<valuemin>-1</valuemin>
								<valuemax>1</valuemax>
								<value>0</value>
							</parameter>
						</effect>
					</filter>
					<sourcetrack>
						<mediatype>audio</mediatype>
						<trackindex>2</trackindex>
					</sourcetrack>
					<link>
						<linkclipref>GN-L2-Tigt_38 </linkclipref>
						<mediatype>video</mediatype>
						<trackindex>1</trackindex>
						<clipindex>5</clipindex>
					</link>
					<link>
						<linkclipref>GN-L2-Tigt_38 3</linkclipref>
						<mediatype>audio</mediatype>
						<trackindex>1</trackindex>
						<clipindex>5</clipindex>
					</link>
					<link>
						<linkclipref>GN-L2-Tigt_38 4</linkclipref>
						<mediatype>audio</mediatype>
						<trackindex>2</trackindex>
						<clipindex>5</clipindex>
					</link>
					<itemhistory>
						<uuid>14D00639-B11A-40FE-B373-5C320B7F962D</uuid>
					</itemhistory>
				</clipitem>
				<clipitem id="GN-L2-Tigt_42 4">
					<name>GN-L2-Tigt_42</name>
					<duration>2240</duration>
					<rate>
						<ntsc>TRUE</ntsc>
						<timebase>30</timebase>
					</rate>
					<in>389</in>
					<out>1449</out>
					<start>3421</start>
					<end>4481</end>
					<masterclipid>GN-L2-Tigt_42 9</masterclipid>
					<logginginfo>
						<scene/>
						<shottake/>
						<lognote/>
						<good>FALSE</good>
					</logginginfo>
					<labels>
						<label2/>
					</labels>
					<comments>
						<mastercomment1/>
						<mastercomment2/>
						<mastercomment3/>
						<mastercomment4/>
					</comments>
					<file id="GN-L2-Tigt_42 2"/>
					<filter>
						<effect>
							<name>Audio Levels</name>
							<effectid>audiolevels</effectid>
							<effectcategory>audiolevels</effectcategory>
							<effecttype>audiolevels</effecttype>
							<mediatype>audio</mediatype>
							<parameter>
								<name>Level</name>
								<parameterid>level</parameterid>
								<valuemin>0</valuemin>
								<valuemax>3.98109</valuemax>
								<value>1</value>
							</parameter>
						</effect>
					</filter>
					<filter>
						<effect>
							<name>Audio Pan</name>
							<effectid>audiopan</effectid>
							<effectcategory>audiopan</effectcategory>
							<effecttype>audiopan</effecttype>
							<mediatype>audio</mediatype>
							<parameter>
								<name>Pan</name>
								<parameterid>pan</parameterid>
								<valuemin>-1</valuemin>
								<valuemax>1</valuemax>
								<value>0</value>
							</parameter>
						</effect>
					</filter>
					<sourcetrack>
						<mediatype>audio</mediatype>
						<trackindex>2</trackindex>
					</sourcetrack>
					<link>
						<linkclipref>GN-L2-Tigt_42 </linkclipref>
						<mediatype>video</mediatype>
						<trackindex>1</trackindex>
						<clipindex>6</clipindex>
					</link>
					<link>
						<linkclipref>GN-L2-Tigt_42 3</linkclipref>
						<mediatype>audio</mediatype>
						<trackindex>1</trackindex>
						<clipindex>6</clipindex>
					</link>
					<link>
						<linkclipref>GN-L2-Tigt_42 4</linkclipref>
						<mediatype>audio</mediatype>
						<trackindex>2</trackindex>
						<clipindex>6</clipindex>
					</link>
					<itemhistory>
						<uuid>63D3FDE5-985A-45AF-B68A-A7243C402721</uuid>
					</itemhistory>
				</clipitem>
				<clipitem id="GN-L2-Tigt_42 7">
					<name>GN-L2-Tigt_42</name>
					<duration>2240</duration>
					<rate>
						<ntsc>TRUE</ntsc>
						<timebase>30</timebase>
					</rate>
					<in>1585</in>
					<out>2122</out>
					<start>4481</start>
					<end>5018</end>
					<masterclipid>GN-L2-Tigt_42 9</masterclipid>
					<logginginfo>
						<scene/>
						<shottake/>
						<lognote/>
						<good>FALSE</good>
					</logginginfo>
					<labels>
						<label2/>
					</labels>
					<comments>
						<mastercomment1/>
						<mastercomment2/>
						<mastercomment3/>
						<mastercomment4/>
					</comments>
					<file id="GN-L2-Tigt_42 2"/>
					<filter>
						<effect>
							<name>Audio Levels</name>
							<effectid>audiolevels</effectid>
							<effectcategory>audiolevels</effectcategory>
							<effecttype>audiolevels</effecttype>
							<mediatype>audio</mediatype>
							<parameter>
								<name>Level</name>
								<parameterid>level</parameterid>
								<valuemin>0</valuemin>
								<valuemax>3.98109</valuemax>
								<value>1</value>
							</parameter>
						</effect>
					</filter>
					<filter>
						<effect>
							<name>Audio Pan</name>
							<effectid>audiopan</effectid>
							<effectcategory>audiopan</effectcategory>
							<effecttype>audiopan</effecttype>
							<mediatype>audio</mediatype>
							<parameter>
								<name>Pan</name>
								<parameterid>pan</parameterid>
								<valuemin>-1</valuemin>
								<valuemax>1</valuemax>
								<value>0</value>
							</parameter>
						</effect>
					</filter>
					<sourcetrack>
						<mediatype>audio</mediatype>
						<trackindex>2</trackindex>
					</sourcetrack>
					<link>
						<linkclipref>GN-L2-Tigt_42 5</linkclipref>
						<mediatype>video</mediatype>
						<trackindex>1</trackindex>
						<clipindex>7</clipindex>
					</link>
					<link>
						<linkclipref>GN-L2-Tigt_42 6</linkclipref>
						<mediatype>audio</mediatype>
						<trackindex>1</trackindex>
						<clipindex>7</clipindex>
					</link>
					<link>
						<linkclipref>GN-L2-Tigt_42 7</linkclipref>
						<mediatype>audio</mediatype>
						<trackindex>2</trackindex>
						<clipindex>7</clipindex>
					</link>
					<itemhistory>
						<uuid>85AA3659-6BA4-4870-ABAB-EF4D7B905AB1</uuid>
					</itemhistory>
				</clipitem>
				<clipitem id="GN-L2-Tigt_44 4">
					<name>GN-L2-Tigt_44</name>
					<duration>702</duration>
					<rate>
						<ntsc>TRUE</ntsc>
						<timebase>30</timebase>
					</rate>
					<in>387</in>
					<out>539</out>
					<start>5018</start>
					<end>5170</end>
					<masterclipid>GN-L2-Tigt_44 6</masterclipid>
					<logginginfo>
						<scene/>
						<shottake/>
						<lognote/>
						<good>FALSE</good>
					</logginginfo>
					<labels>
						<label2/>
					</labels>
					<comments>
						<mastercomment1/>
						<mastercomment2/>
						<mastercomment3/>
						<mastercomment4/>
					</comments>
					<file id="GN-L2-Tigt_44 2"/>
					<filter>
						<effect>
							<name>Audio Levels</name>
							<effectid>audiolevels</effectid>
							<effectcategory>audiolevels</effectcategory>
							<effecttype>audiolevels</effecttype>
							<mediatype>audio</mediatype>
							<parameter>
								<name>Level</name>
								<parameterid>level</parameterid>
								<valuemin>0</valuemin>
								<valuemax>3.98109</valuemax>
								<value>1</value>
							</parameter>
						</effect>
					</filter>
					<filter>
						<effect>
							<name>Audio Pan</name>
							<effectid>audiopan</effectid>
							<effectcategory>audiopan</effectcategory>
							<effecttype>audiopan</effecttype>
							<mediatype>audio</mediatype>
							<parameter>
								<name>Pan</name>
								<parameterid>pan</parameterid>
								<valuemin>-1</valuemin>
								<valuemax>1</valuemax>
								<value>0</value>
							</parameter>
						</effect>
					</filter>
					<sourcetrack>
						<mediatype>audio</mediatype>
						<trackindex>2</trackindex>
					</sourcetrack>
					<link>
						<linkclipref>GN-L2-Tigt_44 </linkclipref>
						<mediatype>video</mediatype>
						<trackindex>1</trackindex>
						<clipindex>8</clipindex>
					</link>
					<link>
						<linkclipref>GN-L2-Tigt_44 3</linkclipref>
						<mediatype>audio</mediatype>
						<trackindex>1</trackindex>
						<clipindex>8</clipindex>
					</link>
					<link>
						<linkclipref>GN-L2-Tigt_44 4</linkclipref>
						<mediatype>audio</mediatype>
						<trackindex>2</trackindex>
						<clipindex>8</clipindex>
					</link>
					<itemhistory>
						<uuid>E6D64040-8AE8-4A38-A69D-2D71FD1C2860</uuid>
					</itemhistory>
				</clipitem>
				<clipitem id="Jesus.wav2">
					<name>Jesus.wav</name>
					<duration>528</duration>
					<rate>
						<ntsc>TRUE</ntsc>
						<timebase>30</timebase>
					</rate>
					<in>0</in>
					<out>528</out>
					<start>5170</start>
					<end>5698</end>
					<masterclipid>Jesus.wav1</masterclipid>
					<logginginfo>
						<scene/>
						<shottake/>
						<lognote/>
						<good>FALSE</good>
					</logginginfo>
					<labels>
						<label2/>
					</labels>
					<comments>
						<mastercomment1/>
						<mastercomment2/>
						<mastercomment3/>
						<mastercomment4/>
					</comments>
					<file id="Jesus"/>
					<filter>
						<effect>
							<name>Audio Levels</name>
							<effectid>audiolevels</effectid>
							<effectcategory>audiolevels</effectcategory>
							<effecttype>audiolevels</effecttype>
							<mediatype>audio</mediatype>
							<parameter>
								<name>Level</name>
								<parameterid>level</parameterid>
								<valuemin>0</valuemin>
								<valuemax>3.98109</valuemax>
								<value>1</value>
							</parameter>
						</effect>
					</filter>
					<filter>
						<effect>
							<name>Audio Pan</name>
							<effectid>audiopan</effectid>
							<effectcategory>audiopan</effectcategory>
							<effecttype>audiopan</effecttype>
							<mediatype>audio</mediatype>
							<parameter>
								<name>Pan</name>
								<parameterid>pan</parameterid>
								<valuemin>-1</valuemin>
								<valuemax>1</valuemax>
								<value>1</value>
							</parameter>
						</effect>
					</filter>
					<sourcetrack>
						<mediatype>audio</mediatype>
						<trackindex>2</trackindex>
					</sourcetrack>
					<link>
						<linkclipref>Jesus.wav</linkclipref>
						<mediatype>audio</mediatype>
						<trackindex>1</trackindex>
						<clipindex>9</clipindex>
						<groupindex>1</groupindex>
					</link>
					<link>
						<linkclipref>Jesus.wav2</linkclipref>
						<mediatype>audio</mediatype>
						<trackindex>2</trackindex>
						<clipindex>9</clipindex>
						<groupindex>1</groupindex>
					</link>
					<itemhistory>
						<uuid>6C5E775E-188E-43DD-B2B9-3FDAD5613FAC</uuid>
					</itemhistory>
				</clipitem>
				<clipitem id="GN-L2-Tigt_47 4">
					<name>GN-L2-Tigt_47</name>
					<duration>3006</duration>
					<rate>
						<ntsc>TRUE</ntsc>
						<timebase>30</timebase>
					</rate>
					<in>1755</in>
					<out>2874</out>
					<start>5698</start>
					<end>6817</end>
					<masterclipid>GN-L2-Tigt_47 6</masterclipid>
					<logginginfo>
						<scene/>
						<shottake/>
						<lognote/>
						<good>FALSE</good>
					</logginginfo>
					<labels>
						<label2/>
					</labels>
					<comments>
						<mastercomment1/>
						<mastercomment2/>
						<mastercomment3/>
						<mastercomment4/>
					</comments>
					<file id="GN-L2-Tigt_47 2"/>
					<filter>
						<effect>
							<name>Audio Levels</name>
							<effectid>audiolevels</effectid>
							<effectcategory>audiolevels</effectcategory>
							<effecttype>audiolevels</effecttype>
							<mediatype>audio</mediatype>
							<parameter>
								<name>Level</name>
								<parameterid>level</parameterid>
								<valuemin>0</valuemin>
								<valuemax>3.98109</valuemax>
								<value>1</value>
							</parameter>
						</effect>
					</filter>
					<filter>
						<effect>
							<name>Audio Pan</name>
							<effectid>audiopan</effectid>
							<effectcategory>audiopan</effectcategory>
							<effecttype>audiopan</effecttype>
							<mediatype>audio</mediatype>
							<parameter>
								<name>Pan</name>
								<parameterid>pan</parameterid>
								<valuemin>-1</valuemin>
								<valuemax>1</valuemax>
								<value>0</value>
							</parameter>
						</effect>
					</filter>
					<sourcetrack>
						<mediatype>audio</mediatype>
						<trackindex>2</trackindex>
					</sourcetrack>
					<link>
						<linkclipref>GN-L2-Tigt_47 </linkclipref>
						<mediatype>video</mediatype>
						<trackindex>1</trackindex>
						<clipindex>9</clipindex>
					</link>
					<link>
						<linkclipref>GN-L2-Tigt_47 3</linkclipref>
						<mediatype>audio</mediatype>
						<trackindex>1</trackindex>
						<clipindex>10</clipindex>
					</link>
					<link>
						<linkclipref>GN-L2-Tigt_47 4</linkclipref>
						<mediatype>audio</mediatype>
						<trackindex>2</trackindex>
						<clipindex>10</clipindex>
					</link>
					<itemhistory>
						<uuid>CCA30ED6-AD93-4DFA-B1D3-59167AFF663B</uuid>
					</itemhistory>
				</clipitem>
				<clipitem id="GN-L2-Tigt_48 4">
					<name>GN-L2-Tigt_48</name>
					<duration>1122</duration>
					<rate>
						<ntsc>TRUE</ntsc>
						<timebase>30</timebase>
					</rate>
					<in>393</in>
					<out>608</out>
					<start>6817</start>
					<end>7032</end>
					<masterclipid>GN-L2-Tigt_48 6</masterclipid>
					<logginginfo>
						<scene/>
						<shottake/>
						<lognote/>
						<good>FALSE</good>
					</logginginfo>
					<labels>
						<label2/>
					</labels>
					<comments>
						<mastercomment1/>
						<mastercomment2/>
						<mastercomment3/>
						<mastercomment4/>
					</comments>
					<file id="GN-L2-Tigt_48 2"/>
					<filter>
						<effect>
							<name>Audio Levels</name>
							<effectid>audiolevels</effectid>
							<effectcategory>audiolevels</effectcategory>
							<effecttype>audiolevels</effecttype>
							<mediatype>audio</mediatype>
							<parameter>
								<name>Level</name>
								<parameterid>level</parameterid>
								<valuemin>0</valuemin>
								<valuemax>3.98109</valuemax>
								<value>1</value>
							</parameter>
						</effect>
					</filter>
					<filter>
						<effect>
							<name>Audio Pan</name>
							<effectid>audiopan</effectid>
							<effectcategory>audiopan</effectcategory>
							<effecttype>audiopan</effecttype>
							<mediatype>audio</mediatype>
							<parameter>
								<name>Pan</name>
								<parameterid>pan</parameterid>
								<valuemin>-1</valuemin>
								<valuemax>1</valuemax>
								<value>0</value>
							</parameter>
						</effect>
					</filter>
					<sourcetrack>
						<mediatype>audio</mediatype>
						<trackindex>2</trackindex>
					</sourcetrack>
					<link>
						<linkclipref>GN-L2-Tigt_48 </linkclipref>
						<mediatype>video</mediatype>
						<trackindex>1</trackindex>
						<clipindex>10</clipindex>
					</link>
					<link>
						<linkclipref>GN-L2-Tigt_48 3</linkclipref>
						<mediatype>audio</mediatype>
						<trackindex>1</trackindex>
						<clipindex>11</clipindex>
					</link>
					<link>
						<linkclipref>GN-L2-Tigt_48 4</linkclipref>
						<mediatype>audio</mediatype>
						<trackindex>2</trackindex>
						<clipindex>11</clipindex>
					</link>
					<itemhistory>
						<uuid>B09B6176-EF69-4732-A881-0D1592C08152</uuid>
					</itemhistory>
				</clipitem>
				<clipitem id="GN-L2-Tigt_49 4">
					<name>GN-L2-Tigt_49</name>
					<duration>2427</duration>
					<rate>
						<ntsc>TRUE</ntsc>
						<timebase>30</timebase>
					</rate>
					<in>1993</in>
					<out>2286</out>
					<start>7032</start>
					<end>7325</end>
					<masterclipid>GN-L2-Tigt_49 6</masterclipid>
					<logginginfo>
						<scene/>
						<shottake/>
						<lognote/>
						<good>FALSE</good>
					</logginginfo>
					<labels>
						<label2/>
					</labels>
					<comments>
						<mastercomment1/>
						<mastercomment2/>
						<mastercomment3/>
						<mastercomment4/>
					</comments>
					<file id="GN-L2-Tigt_49 2"/>
					<filter>
						<effect>
							<name>Audio Levels</name>
							<effectid>audiolevels</effectid>
							<effectcategory>audiolevels</effectcategory>
							<effecttype>audiolevels</effecttype>
							<mediatype>audio</mediatype>
							<parameter>
								<name>Level</name>
								<parameterid>level</parameterid>
								<valuemin>0</valuemin>
								<valuemax>3.98109</valuemax>
								<value>1</value>
							</parameter>
						</effect>
					</filter>
					<filter>
						<effect>
							<name>Audio Pan</name>
							<effectid>audiopan</effectid>
							<effectcategory>audiopan</effectcategory>
							<effecttype>audiopan</effecttype>
							<mediatype>audio</mediatype>
							<parameter>
								<name>Pan</name>
								<parameterid>pan</parameterid>
								<valuemin>-1</valuemin>
								<valuemax>1</valuemax>
								<value>0</value>
							</parameter>
						</effect>
					</filter>
					<sourcetrack>
						<mediatype>audio</mediatype>
						<trackindex>2</trackindex>
					</sourcetrack>
					<link>
						<linkclipref>GN-L2-Tigt_49 </linkclipref>
						<mediatype>video</mediatype>
						<trackindex>1</trackindex>
						<clipindex>11</clipindex>
					</link>
					<link>
						<linkclipref>GN-L2-Tigt_49 3</linkclipref>
						<mediatype>audio</mediatype>
						<trackindex>1</trackindex>
						<clipindex>12</clipindex>
					</link>
					<link>
						<linkclipref>GN-L2-Tigt_49 4</linkclipref>
						<mediatype>audio</mediatype>
						<trackindex>2</trackindex>
						<clipindex>12</clipindex>
					</link>
					<itemhistory>
						<uuid>AC108798-8FED-40CA-BCA0-9804ABE6FF65</uuid>
					</itemhistory>
				</clipitem>
				<clipitem id="GN.ST-L1-tigt_28 3">
					<name>GN.ST-L1-tigt_28</name>
					<duration>3148</duration>
					<rate>
						<ntsc>TRUE</ntsc>
						<timebase>30</timebase>
					</rate>
					<in>386</in>
					<out>3112</out>
					<start>7325</start>
					<end>10051</end>
					<logginginfo>
						<scene/>
						<shottake/>
						<lognote/>
						<good>FALSE</good>
					</logginginfo>
					<labels>
						<label2/>
					</labels>
					<comments>
						<mastercomment1/>
						<mastercomment2/>
						<mastercomment3/>
						<mastercomment4/>
					</comments>
					<file id="GN.ST-L1-tigt_28 1"/>
					<filter>
						<effect>
							<name>Audio Levels</name>
							<effectid>audiolevels</effectid>
							<effectcategory>audiolevels</effectcategory>
							<effecttype>audiolevels</effecttype>
							<mediatype>audio</mediatype>
							<parameter>
								<name>Level</name>
								<parameterid>level</parameterid>
								<valuemin>0</valuemin>
								<valuemax>3.98109</valuemax>
								<value>1</value>
							</parameter>
						</effect>
					</filter>
					<filter>
						<effect>
							<name>Audio Pan</name>
							<effectid>audiopan</effectid>
							<effectcategory>audiopan</effectcategory>
							<effecttype>audiopan</effecttype>
							<mediatype>audio</mediatype>
							<parameter>
								<name>Pan</name>
								<parameterid>pan</parameterid>
								<valuemin>-1</valuemin>
								<valuemax>1</valuemax>
								<value>0</value>
							</parameter>
						</effect>
					</filter>
					<sourcetrack>
						<mediatype>audio</mediatype>
						<trackindex>2</trackindex>
					</sourcetrack>
					<link>
						<linkclipref>GN.ST-L1-tigt_28 </linkclipref>
						<mediatype>video</mediatype>
						<trackindex>1</trackindex>
						<clipindex>12</clipindex>
					</link>
					<link>
						<linkclipref>GN.ST-L1-tigt_28 2</linkclipref>
						<mediatype>audio</mediatype>
						<trackindex>1</trackindex>
						<clipindex>13</clipindex>
					</link>
					<link>
						<linkclipref>GN.ST-L1-tigt_28 3</linkclipref>
						<mediatype>audio</mediatype>
						<trackindex>2</trackindex>
						<clipindex>13</clipindex>
					</link>
					<itemhistory>
						<uuid>FA515537-381F-4089-848C-55829D59E938</uuid>
					</itemhistory>
				</clipitem>
				<enabled>TRUE</enabled>
				<locked>TRUE</locked>
				<outputchannelindex>2</outputchannelindex>
			</track>
			<track>
				<clipitem id="GN.ST-L1-wide_27 2">
					<name>GN.ST-L1-wide_27</name>
					<duration>6179</duration>
					<rate>
						<ntsc>TRUE</ntsc>
						<timebase>30</timebase>
					</rate>
					<in>599</in>
					<out>1254</out>
					<start>996</start>
					<end>1651</end>
					<logginginfo>
						<scene/>
						<shottake/>
						<lognote/>
						<good>FALSE</good>
					</logginginfo>
					<labels>
						<label2/>
					</labels>
					<comments>
						<mastercomment1/>
						<mastercomment2/>
						<mastercomment3/>
						<mastercomment4/>
					</comments>
					<file id="GN.ST-L1-wide_27 1"/>
					<filter>
						<effect>
							<name>Audio Levels</name>
							<effectid>audiolevels</effectid>
							<effectcategory>audiolevels</effectcategory>
							<effecttype>audiolevels</effecttype>
							<mediatype>audio</mediatype>
							<parameter>
								<name>Level</name>
								<parameterid>level</parameterid>
								<valuemin>0</valuemin>
								<valuemax>3.98109</valuemax>
								<value>1</value>
							</parameter>
						</effect>
					</filter>
					<filter>
						<effect>
							<name>Audio Pan</name>
							<effectid>audiopan</effectid>
							<effectcategory>audiopan</effectcategory>
							<effecttype>audiopan</effecttype>
							<mediatype>audio</mediatype>
							<parameter>
								<name>Pan</name>
								<parameterid>pan</parameterid>
								<valuemin>-1</valuemin>
								<valuemax>1</valuemax>
								<value>0</value>
							</parameter>
						</effect>
					</filter>
					<sourcetrack>
						<mediatype>audio</mediatype>
						<trackindex>1</trackindex>
					</sourcetrack>
					<link>
						<linkclipref>GN.ST-L1-wide_27 </linkclipref>
						<mediatype>video</mediatype>
						<trackindex>2</trackindex>
						<clipindex>2</clipindex>
					</link>
					<link>
						<linkclipref>GN.ST-L1-wide_27 2</linkclipref>
						<mediatype>audio</mediatype>
						<trackindex>3</trackindex>
						<clipindex>1</clipindex>
					</link>
					<link>
						<linkclipref>GN.ST-L1-wide_27 3</linkclipref>
						<mediatype>audio</mediatype>
						<trackindex>4</trackindex>
						<clipindex>1</clipindex>
					</link>
					<itemhistory>
						<uuid>E8F33293-055A-4505-9D79-35BF249C39F4</uuid>
					</itemhistory>
				</clipitem>
				<clipitem id="GN-L2-Wide_34 3">
					<name>GN-L2-Wide_34</name>
					<duration>1031</duration>
					<rate>
						<ntsc>TRUE</ntsc>
						<timebase>30</timebase>
					</rate>
					<in>336</in>
					<out>826</out>
					<start>1651</start>
					<end>2141</end>
					<masterclipid>GN-L2-Wide_34 5</masterclipid>
					<logginginfo>
						<scene/>
						<shottake/>
						<lognote/>
						<good>FALSE</good>
					</logginginfo>
					<labels>
						<label2/>
					</labels>
					<comments>
						<mastercomment1/>
						<mastercomment2/>
						<mastercomment3/>
						<mastercomment4/>
					</comments>
					<file id="GN-L2-Wide_34 2"/>
					<filter>
						<effect>
							<name>Audio Levels</name>
							<effectid>audiolevels</effectid>
							<effectcategory>audiolevels</effectcategory>
							<effecttype>audiolevels</effecttype>
							<mediatype>audio</mediatype>
							<parameter>
								<name>Level</name>
								<parameterid>level</parameterid>
								<valuemin>0</valuemin>
								<valuemax>3.98109</valuemax>
								<value>1</value>
							</parameter>
						</effect>
					</filter>
					<filter>
						<effect>
							<name>Audio Pan</name>
							<effectid>audiopan</effectid>
							<effectcategory>audiopan</effectcategory>
							<effecttype>audiopan</effecttype>
							<mediatype>audio</mediatype>
							<parameter>
								<name>Pan</name>
								<parameterid>pan</parameterid>
								<valuemin>-1</valuemin>
								<valuemax>1</valuemax>
								<value>0</value>
							</parameter>
						</effect>
					</filter>
					<sourcetrack>
						<mediatype>audio</mediatype>
						<trackindex>1</trackindex>
					</sourcetrack>
					<link>
						<linkclipref>GN-L2-Wide_34 </linkclipref>
						<mediatype>video</mediatype>
						<trackindex>2</trackindex>
						<clipindex>4</clipindex>
					</link>
					<link>
						<linkclipref>GN-L2-Wide_34 3</linkclipref>
						<mediatype>audio</mediatype>
						<trackindex>3</trackindex>
						<clipindex>2</clipindex>
					</link>
					<link>
						<linkclipref>GN-L2-Wide_34 4</linkclipref>
						<mediatype>audio</mediatype>
						<trackindex>4</trackindex>
						<clipindex>2</clipindex>
					</link>
					<itemhistory>
						<uuid>75ECC45A-267C-4E57-BE49-393BF9F87C11</uuid>
					</itemhistory>
				</clipitem>
				<clipitem id="GN-L2-Wide_36 3">
					<name>GN-L2-Wide_36</name>
					<duration>1744</duration>
					<rate>
						<ntsc>TRUE</ntsc>
						<timebase>30</timebase>
					</rate>
					<in>590</in>
					<out>1451</out>
					<start>2141</start>
					<end>3002</end>
					<masterclipid>GN-L2-Wide_36 5</masterclipid>
					<logginginfo>
						<scene/>
						<shottake/>
						<lognote/>
						<good>FALSE</good>
					</logginginfo>
					<labels>
						<label2/>
					</labels>
					<comments>
						<mastercomment1/>
						<mastercomment2/>
						<mastercomment3/>
						<mastercomment4/>
					</comments>
					<file id="GN-L2-Wide_36 2"/>
					<filter>
						<effect>
							<name>Audio Levels</name>
							<effectid>audiolevels</effectid>
							<effectcategory>audiolevels</effectcategory>
							<effecttype>audiolevels</effecttype>
							<mediatype>audio</mediatype>
							<parameter>
								<name>Level</name>
								<parameterid>level</parameterid>
								<valuemin>0</valuemin>
								<valuemax>3.98109</valuemax>
								<value>1</value>
							</parameter>
						</effect>
					</filter>
					<filter>
						<effect>
							<name>Audio Pan</name>
							<effectid>audiopan</effectid>
							<effectcategory>audiopan</effectcategory>
							<effecttype>audiopan</effecttype>
							<mediatype>audio</mediatype>
							<parameter>
								<name>Pan</name>
								<parameterid>pan</parameterid>
								<valuemin>-1</valuemin>
								<valuemax>1</valuemax>
								<value>0</value>
							</parameter>
						</effect>
					</filter>
					<sourcetrack>
						<mediatype>audio</mediatype>
						<trackindex>1</trackindex>
					</sourcetrack>
					<link>
						<linkclipref>GN-L2-Wide_36 </linkclipref>
						<mediatype>video</mediatype>
						<trackindex>2</trackindex>
						<clipindex>5</clipindex>
					</link>
					<link>
						<linkclipref>GN-L2-Wide_36 3</linkclipref>
						<mediatype>audio</mediatype>
						<trackindex>3</trackindex>
						<clipindex>3</clipindex>
					</link>
					<link>
						<linkclipref>GN-L2-Wide_36 4</linkclipref>
						<mediatype>audio</mediatype>
						<trackindex>4</trackindex>
						<clipindex>3</clipindex>
					</link>
					<itemhistory>
						<uuid>F0E5AC0C-7A6A-4559-941A-5A7C556B2A19</uuid>
					</itemhistory>
				</clipitem>
				<clipitem id="GN-L2-Wide_38 3">
					<name>GN-L2-Wide_38</name>
					<duration>1206</duration>
					<rate>
						<ntsc>TRUE</ntsc>
						<timebase>30</timebase>
					</rate>
					<in>622</in>
					<out>1041</out>
					<start>3002</start>
					<end>3421</end>
					<masterclipid>GN-L2-Wide_38 5</masterclipid>
					<logginginfo>
						<scene/>
						<shottake/>
						<lognote/>
						<good>FALSE</good>
					</logginginfo>
					<labels>
						<label2/>
					</labels>
					<comments>
						<mastercomment1/>
						<mastercomment2/>
						<mastercomment3/>
						<mastercomment4/>
					</comments>
					<file id="GN-L2-Wide_38 2"/>
					<filter>
						<effect>
							<name>Audio Levels</name>
							<effectid>audiolevels</effectid>
							<effectcategory>audiolevels</effectcategory>
							<effecttype>audiolevels</effecttype>
							<mediatype>audio</mediatype>
							<parameter>
								<name>Level</name>
								<parameterid>level</parameterid>
								<valuemin>0</valuemin>
								<valuemax>3.98109</valuemax>
								<value>1</value>
							</parameter>
						</effect>
					</filter>
					<filter>
						<effect>
							<name>Audio Pan</name>
							<effectid>audiopan</effectid>
							<effectcategory>audiopan</effectcategory>
							<effecttype>audiopan</effecttype>
							<mediatype>audio</mediatype>
							<parameter>
								<name>Pan</name>
								<parameterid>pan</parameterid>
								<valuemin>-1</valuemin>
								<valuemax>1</valuemax>
								<value>0</value>
							</parameter>
						</effect>
					</filter>
					<sourcetrack>
						<mediatype>audio</mediatype>
						<trackindex>1</trackindex>
					</sourcetrack>
					<link>
						<linkclipref>GN-L2-Wide_38 </linkclipref>
						<mediatype>video</mediatype>
						<trackindex>2</trackindex>
						<clipindex>6</clipindex>
					</link>
					<link>
						<linkclipref>GN-L2-Wide_38 3</linkclipref>
						<mediatype>audio</mediatype>
						<trackindex>3</trackindex>
						<clipindex>4</clipindex>
					</link>
					<link>
						<linkclipref>GN-L2-Wide_38 4</linkclipref>
						<mediatype>audio</mediatype>
						<trackindex>4</trackindex>
						<clipindex>4</clipindex>
					</link>
					<itemhistory>
						<uuid>7694A74C-2D82-4E88-9BE8-BFF92F7C0C23</uuid>
					</itemhistory>
				</clipitem>
				<clipitem id="GN-L2-Wide_42 3">
					<name>GN-L2-Wide_42</name>
					<duration>2303</duration>
					<rate>
						<ntsc>TRUE</ntsc>
						<timebase>30</timebase>
					</rate>
					<in>410</in>
					<out>1470</out>
					<start>3421</start>
					<end>4481</end>
					<masterclipid>GN-L2-Wide_42 8</masterclipid>
					<logginginfo>
						<scene/>
						<shottake/>
						<lognote/>
						<good>FALSE</good>
					</logginginfo>
					<labels>
						<label2/>
					</labels>
					<comments>
						<mastercomment1/>
						<mastercomment2/>
						<mastercomment3/>
						<mastercomment4/>
					</comments>
					<file id="GN-L2-Wide_42 2"/>
					<filter>
						<effect>
							<name>Audio Levels</name>
							<effectid>audiolevels</effectid>
							<effectcategory>audiolevels</effectcategory>
							<effecttype>audiolevels</effecttype>
							<mediatype>audio</mediatype>
							<parameter>
								<name>Level</name>
								<parameterid>level</parameterid>
								<valuemin>0</valuemin>
								<valuemax>3.98109</valuemax>
								<value>1</value>
							</parameter>
						</effect>
					</filter>
					<filter>
						<effect>
							<name>Audio Pan</name>
							<effectid>audiopan</effectid>
							<effectcategory>audiopan</effectcategory>
							<effecttype>audiopan</effecttype>
							<mediatype>audio</mediatype>
							<parameter>
								<name>Pan</name>
								<parameterid>pan</parameterid>
								<valuemin>-1</valuemin>
								<valuemax>1</valuemax>
								<value>0</value>
							</parameter>
						</effect>
					</filter>
					<sourcetrack>
						<mediatype>audio</mediatype>
						<trackindex>1</trackindex>
					</sourcetrack>
					<link>
						<linkclipref>GN-L2-Wide_42 </linkclipref>
						<mediatype>video</mediatype>
						<trackindex>2</trackindex>
						<clipindex>7</clipindex>
					</link>
					<link>
						<linkclipref>GN-L2-Wide_42 3</linkclipref>
						<mediatype>audio</mediatype>
						<trackindex>3</trackindex>
						<clipindex>5</clipindex>
					</link>
					<link>
						<linkclipref>GN-L2-Wide_42 4</linkclipref>
						<mediatype>audio</mediatype>
						<trackindex>4</trackindex>
						<clipindex>5</clipindex>
					</link>
					<itemhistory>
						<uuid>7BAADB5E-D33D-48BB-BDAF-274B7DCF3610</uuid>
					</itemhistory>
				</clipitem>
				<clipitem id="GN-L2-Wide_42 6">
					<name>GN-L2-Wide_42</name>
					<duration>2303</duration>
					<rate>
						<ntsc>TRUE</ntsc>
						<timebase>30</timebase>
					</rate>
					<in>1606</in>
					<out>2143</out>
					<start>4481</start>
					<end>5018</end>
					<masterclipid>GN-L2-Wide_42 8</masterclipid>
					<logginginfo>
						<scene/>
						<shottake/>
						<lognote/>
						<good>FALSE</good>
					</logginginfo>
					<labels>
						<label2/>
					</labels>
					<comments>
						<mastercomment1/>
						<mastercomment2/>
						<mastercomment3/>
						<mastercomment4/>
					</comments>
					<file id="GN-L2-Wide_42 2"/>
					<filter>
						<effect>
							<name>Audio Levels</name>
							<effectid>audiolevels</effectid>
							<effectcategory>audiolevels</effectcategory>
							<effecttype>audiolevels</effecttype>
							<mediatype>audio</mediatype>
							<parameter>
								<name>Level</name>
								<parameterid>level</parameterid>
								<valuemin>0</valuemin>
								<valuemax>3.98109</valuemax>
								<value>1</value>
							</parameter>
						</effect>
					</filter>
					<filter>
						<effect>
							<name>Audio Pan</name>
							<effectid>audiopan</effectid>
							<effectcategory>audiopan</effectcategory>
							<effecttype>audiopan</effecttype>
							<mediatype>audio</mediatype>
							<parameter>
								<name>Pan</name>
								<parameterid>pan</parameterid>
								<valuemin>-1</valuemin>
								<valuemax>1</valuemax>
								<value>0</value>
							</parameter>
						</effect>
					</filter>
					<sourcetrack>
						<mediatype>audio</mediatype>
						<trackindex>1</trackindex>
					</sourcetrack>
					<link>
						<linkclipref>GN-L2-Wide_42 5</linkclipref>
						<mediatype>video</mediatype>
						<trackindex>2</trackindex>
						<clipindex>8</clipindex>
					</link>
					<link>
						<linkclipref>GN-L2-Wide_42 6</linkclipref>
						<mediatype>audio</mediatype>
						<trackindex>3</trackindex>
						<clipindex>6</clipindex>
					</link>
					<link>
						<linkclipref>GN-L2-Wide_42 7</linkclipref>
						<mediatype>audio</mediatype>
						<trackindex>4</trackindex>
						<clipindex>6</clipindex>
					</link>
					<itemhistory>
						<uuid>282267C7-A016-4BDB-A604-89B2B5803CB7</uuid>
					</itemhistory>
				</clipitem>
				<clipitem id="GN-L2-Wide_44 3">
					<name>GN-L2-Wide_44</name>
					<duration>736</duration>
					<rate>
						<ntsc>TRUE</ntsc>
						<timebase>30</timebase>
					</rate>
					<in>404</in>
					<out>556</out>
					<start>5018</start>
					<end>5170</end>
					<masterclipid>GN-L2-Wide_44 5</masterclipid>
					<logginginfo>
						<scene/>
						<shottake/>
						<lognote/>
						<good>FALSE</good>
					</logginginfo>
					<labels>
						<label2/>
					</labels>
					<comments>
						<mastercomment1/>
						<mastercomment2/>
						<mastercomment3/>
						<mastercomment4/>
					</comments>
					<file id="GN-L2-Wide_44 2"/>
					<filter>
						<effect>
							<name>Audio Levels</name>
							<effectid>audiolevels</effectid>
							<effectcategory>audiolevels</effectcategory>
							<effecttype>audiolevels</effecttype>
							<mediatype>audio</mediatype>
							<parameter>
								<name>Level</name>
								<parameterid>level</parameterid>
								<valuemin>0</valuemin>
								<valuemax>3.98109</valuemax>
								<value>1</value>
							</parameter>
						</effect>
					</filter>
					<filter>
						<effect>
							<name>Audio Pan</name>
							<effectid>audiopan</effectid>
							<effectcategory>audiopan</effectcategory>
							<effecttype>audiopan</effecttype>
							<mediatype>audio</mediatype>
							<parameter>
								<name>Pan</name>
								<parameterid>pan</parameterid>
								<valuemin>-1</valuemin>
								<valuemax>1</valuemax>
								<value>0</value>
							</parameter>
						</effect>
					</filter>
					<sourcetrack>
						<mediatype>audio</mediatype>
						<trackindex>1</trackindex>
					</sourcetrack>
					<link>
						<linkclipref>GN-L2-Wide_44 </linkclipref>
						<mediatype>video</mediatype>
						<trackindex>2</trackindex>
						<clipindex>9</clipindex>
					</link>
					<link>
						<linkclipref>GN-L2-Wide_44 3</linkclipref>
						<mediatype>audio</mediatype>
						<trackindex>3</trackindex>
						<clipindex>7</clipindex>
					</link>
					<link>
						<linkclipref>GN-L2-Wide_44 4</linkclipref>
						<mediatype>audio</mediatype>
						<trackindex>4</trackindex>
						<clipindex>7</clipindex>
					</link>
					<itemhistory>
						<uuid>44DA78DB-3E3F-4226-84EC-6C5E95158F9B</uuid>
					</itemhistory>
				</clipitem>
				<clipitem id="GN-L2-Wide_47 3">
					<name>GN-L2-Wide_47</name>
					<duration>2983</duration>
					<rate>
						<ntsc>TRUE</ntsc>
						<timebase>30</timebase>
					</rate>
					<in>1722</in>
					<out>2841</out>
					<start>5698</start>
					<end>6817</end>
					<masterclipid>GN-L2-Wide_47 5</masterclipid>
					<logginginfo>
						<scene/>
						<shottake/>
						<lognote/>
						<good>FALSE</good>
					</logginginfo>
					<labels>
						<label2/>
					</labels>
					<comments>
						<mastercomment1/>
						<mastercomment2/>
						<mastercomment3/>
						<mastercomment4/>
					</comments>
					<file id="GN-L2-Wide_47 2"/>
					<filter>
						<effect>
							<name>Audio Levels</name>
							<effectid>audiolevels</effectid>
							<effectcategory>audiolevels</effectcategory>
							<effecttype>audiolevels</effecttype>
							<mediatype>audio</mediatype>
							<parameter>
								<name>Level</name>
								<parameterid>level</parameterid>
								<valuemin>0</valuemin>
								<valuemax>3.98109</valuemax>
								<value>1</value>
							</parameter>
						</effect>
					</filter>
					<filter>
						<effect>
							<name>Audio Pan</name>
							<effectid>audiopan</effectid>
							<effectcategory>audiopan</effectcategory>
							<effecttype>audiopan</effecttype>
							<mediatype>audio</mediatype>
							<parameter>
								<name>Pan</name>
								<parameterid>pan</parameterid>
								<valuemin>-1</valuemin>
								<valuemax>1</valuemax>
								<value>0</value>
							</parameter>
						</effect>
					</filter>
					<sourcetrack>
						<mediatype>audio</mediatype>
						<trackindex>1</trackindex>
					</sourcetrack>
					<link>
						<linkclipref>GN-L2-Wide_47 </linkclipref>
						<mediatype>video</mediatype>
						<trackindex>2</trackindex>
						<clipindex>10</clipindex>
					</link>
					<link>
						<linkclipref>GN-L2-Wide_47 3</linkclipref>
						<mediatype>audio</mediatype>
						<trackindex>3</trackindex>
						<clipindex>8</clipindex>
					</link>
					<link>
						<linkclipref>GN-L2-Wide_47 4</linkclipref>
						<mediatype>audio</mediatype>
						<trackindex>4</trackindex>
						<clipindex>8</clipindex>
					</link>
					<itemhistory>
						<uuid>6CEB5425-5A59-457C-8937-8F9271CD95DE</uuid>
					</itemhistory>
				</clipitem>
				<clipitem id="GN-L2-Wide_48 3">
					<name>GN-L2-Wide_48</name>
					<duration>1159</duration>
					<rate>
						<ntsc>TRUE</ntsc>
						<timebase>30</timebase>
					</rate>
					<in>420</in>
					<out>635</out>
					<start>6817</start>
					<end>7032</end>
					<masterclipid>GN-L2-Wide_48 5</masterclipid>
					<logginginfo>
						<scene/>
						<shottake/>
						<lognote/>
						<good>FALSE</good>
					</logginginfo>
					<labels>
						<label2/>
					</labels>
					<comments>
						<mastercomment1/>
						<mastercomment2/>
						<mastercomment3/>
						<mastercomment4/>
					</comments>
					<file id="GN-L2-Wide_48 2"/>
					<filter>
						<effect>
							<name>Audio Levels</name>
							<effectid>audiolevels</effectid>
							<effectcategory>audiolevels</effectcategory>
							<effecttype>audiolevels</effecttype>
							<mediatype>audio</mediatype>
							<parameter>
								<name>Level</name>
								<parameterid>level</parameterid>
								<valuemin>0</valuemin>
								<valuemax>3.98109</valuemax>
								<value>1</value>
							</parameter>
						</effect>
					</filter>
					<filter>
						<effect>
							<name>Audio Pan</name>
							<effectid>audiopan</effectid>
							<effectcategory>audiopan</effectcategory>
							<effecttype>audiopan</effecttype>
							<mediatype>audio</mediatype>
							<parameter>
								<name>Pan</name>
								<parameterid>pan</parameterid>
								<valuemin>-1</valuemin>
								<valuemax>1</valuemax>
								<value>0</value>
							</parameter>
						</effect>
					</filter>
					<sourcetrack>
						<mediatype>audio</mediatype>
						<trackindex>1</trackindex>
					</sourcetrack>
					<link>
						<linkclipref>GN-L2-Wide_48 </linkclipref>
						<mediatype>video</mediatype>
						<trackindex>2</trackindex>
						<clipindex>11</clipindex>
					</link>
					<link>
						<linkclipref>GN-L2-Wide_48 3</linkclipref>
						<mediatype>audio</mediatype>
						<trackindex>3</trackindex>
						<clipindex>9</clipindex>
					</link>
					<link>
						<linkclipref>GN-L2-Wide_48 4</linkclipref>
						<mediatype>audio</mediatype>
						<trackindex>4</trackindex>
						<clipindex>9</clipindex>
					</link>
					<itemhistory>
						<uuid>E82AD494-EEDB-4073-B01E-1A245CB656DE</uuid>
					</itemhistory>
				</clipitem>
				<clipitem id="GN-L2-Wide_49 3">
					<name>GN-L2-Wide_49</name>
					<duration>2432</duration>
					<rate>
						<ntsc>TRUE</ntsc>
						<timebase>30</timebase>
					</rate>
					<in>1968</in>
					<out>2261</out>
					<start>7032</start>
					<end>7325</end>
					<masterclipid>GN-L2-Wide_49 5</masterclipid>
					<logginginfo>
						<scene/>
						<shottake/>
						<lognote/>
						<good>FALSE</good>
					</logginginfo>
					<labels>
						<label2/>
					</labels>
					<comments>
						<mastercomment1/>
						<mastercomment2/>
						<mastercomment3/>
						<mastercomment4/>
					</comments>
					<file id="GN-L2-Wide_49 2"/>
					<filter>
						<effect>
							<name>Audio Levels</name>
							<effectid>audiolevels</effectid>
							<effectcategory>audiolevels</effectcategory>
							<effecttype>audiolevels</effecttype>
							<mediatype>audio</mediatype>
							<parameter>
								<name>Level</name>
								<parameterid>level</parameterid>
								<valuemin>0</valuemin>
								<valuemax>3.98109</valuemax>
								<value>1</value>
							</parameter>
						</effect>
					</filter>
					<filter>
						<effect>
							<name>Audio Pan</name>
							<effectid>audiopan</effectid>
							<effectcategory>audiopan</effectcategory>
							<effecttype>audiopan</effecttype>
							<mediatype>audio</mediatype>
							<parameter>
								<name>Pan</name>
								<parameterid>pan</parameterid>
								<valuemin>-1</valuemin>
								<valuemax>1</valuemax>
								<value>0</value>
							</parameter>
						</effect>
					</filter>
					<sourcetrack>
						<mediatype>audio</mediatype>
						<trackindex>1</trackindex>
					</sourcetrack>
					<link>
						<linkclipref>GN-L2-Wide_49 </linkclipref>
						<mediatype>video</mediatype>
						<trackindex>2</trackindex>
						<clipindex>12</clipindex>
					</link>
					<link>
						<linkclipref>GN-L2-Wide_49 3</linkclipref>
						<mediatype>audio</mediatype>
						<trackindex>3</trackindex>
						<clipindex>10</clipindex>
					</link>
					<link>
						<linkclipref>GN-L2-Wide_49 4</linkclipref>
						<mediatype>audio</mediatype>
						<trackindex>4</trackindex>
						<clipindex>10</clipindex>
					</link>
					<itemhistory>
						<uuid>8FAD08AA-7814-457B-8FDF-3403E5876FBB</uuid>
					</itemhistory>
				</clipitem>
				<clipitem id="GN.ST-L1-wide_28 2">
					<name>GN.ST-L1-wide_28</name>
					<duration>3212</duration>
					<rate>
						<ntsc>TRUE</ntsc>
						<timebase>30</timebase>
					</rate>
					<in>410</in>
					<out>3136</out>
					<start>7325</start>
					<end>10051</end>
					<logginginfo>
						<scene/>
						<shottake/>
						<lognote/>
						<good>FALSE</good>
					</logginginfo>
					<labels>
						<label2/>
					</labels>
					<comments>
						<mastercomment1/>
						<mastercomment2/>
						<mastercomment3/>
						<mastercomment4/>
					</comments>
					<file id="GN.ST-L1-wide_28 1"/>
					<filter>
						<effect>
							<name>Audio Levels</name>
							<effectid>audiolevels</effectid>
							<effectcategory>audiolevels</effectcategory>
							<effecttype>audiolevels</effecttype>
							<mediatype>audio</mediatype>
							<parameter>
								<name>Level</name>
								<parameterid>level</parameterid>
								<valuemin>0</valuemin>
								<valuemax>3.98109</valuemax>
								<value>1</value>
							</parameter>
						</effect>
					</filter>
					<filter>
						<effect>
							<name>Audio Pan</name>
							<effectid>audiopan</effectid>
							<effectcategory>audiopan</effectcategory>
							<effecttype>audiopan</effecttype>
							<mediatype>audio</mediatype>
							<parameter>
								<name>Pan</name>
								<parameterid>pan</parameterid>
								<valuemin>-1</valuemin>
								<valuemax>1</valuemax>
								<value>0</value>
							</parameter>
						</effect>
					</filter>
					<sourcetrack>
						<mediatype>audio</mediatype>
						<trackindex>1</trackindex>
					</sourcetrack>
					<link>
						<linkclipref>GN.ST-L1-wide_28 </linkclipref>
						<mediatype>video</mediatype>
						<trackindex>2</trackindex>
						<clipindex>14</clipindex>
					</link>
					<link>
						<linkclipref>GN.ST-L1-wide_28 2</linkclipref>
						<mediatype>audio</mediatype>
						<trackindex>3</trackindex>
						<clipindex>11</clipindex>
					</link>
					<link>
						<linkclipref>GN.ST-L1-wide_28 3</linkclipref>
						<mediatype>audio</mediatype>
						<trackindex>4</trackindex>
						<clipindex>11</clipindex>
					</link>
					<itemhistory>
						<uuid>AF198BCF-ADDF-47C5-9B50-9C1C02ADD8E3</uuid>
					</itemhistory>
				</clipitem>
				<enabled>FALSE</enabled>
				<locked>TRUE</locked>
				<outputchannelindex>1</outputchannelindex>
			</track>
			<track>
				<clipitem id="GN.ST-L1-wide_27 3">
					<name>GN.ST-L1-wide_27</name>
					<duration>6179</duration>
					<rate>
						<ntsc>TRUE</ntsc>
						<timebase>30</timebase>
					</rate>
					<in>599</in>
					<out>1254</out>
					<start>996</start>
					<end>1651</end>
					<logginginfo>
						<scene/>
						<shottake/>
						<lognote/>
						<good>FALSE</good>
					</logginginfo>
					<labels>
						<label2/>
					</labels>
					<comments>
						<mastercomment1/>
						<mastercomment2/>
						<mastercomment3/>
						<mastercomment4/>
					</comments>
					<file id="GN.ST-L1-wide_27 1"/>
					<filter>
						<effect>
							<name>Audio Levels</name>
							<effectid>audiolevels</effectid>
							<effectcategory>audiolevels</effectcategory>
							<effecttype>audiolevels</effecttype>
							<mediatype>audio</mediatype>
							<parameter>
								<name>Level</name>
								<parameterid>level</parameterid>
								<valuemin>0</valuemin>
								<valuemax>3.98109</valuemax>
								<value>1</value>
							</parameter>
						</effect>
					</filter>
					<filter>
						<effect>
							<name>Audio Pan</name>
							<effectid>audiopan</effectid>
							<effectcategory>audiopan</effectcategory>
							<effecttype>audiopan</effecttype>
							<mediatype>audio</mediatype>
							<parameter>
								<name>Pan</name>
								<parameterid>pan</parameterid>
								<valuemin>-1</valuemin>
								<valuemax>1</valuemax>
								<value>0</value>
							</parameter>
						</effect>
					</filter>
					<sourcetrack>
						<mediatype>audio</mediatype>
						<trackindex>2</trackindex>
					</sourcetrack>
					<link>
						<linkclipref>GN.ST-L1-wide_27 </linkclipref>
						<mediatype>video</mediatype>
						<trackindex>2</trackindex>
						<clipindex>2</clipindex>
					</link>
					<link>
						<linkclipref>GN.ST-L1-wide_27 2</linkclipref>
						<mediatype>audio</mediatype>
						<trackindex>3</trackindex>
						<clipindex>1</clipindex>
					</link>
					<link>
						<linkclipref>GN.ST-L1-wide_27 3</linkclipref>
						<mediatype>audio</mediatype>
						<trackindex>4</trackindex>
						<clipindex>1</clipindex>
					</link>
					<itemhistory>
						<uuid>C5D7F830-D4CA-45DF-A275-41284140A99C</uuid>
					</itemhistory>
				</clipitem>
				<clipitem id="GN-L2-Wide_34 4">
					<name>GN-L2-Wide_34</name>
					<duration>1031</duration>
					<rate>
						<ntsc>TRUE</ntsc>
						<timebase>30</timebase>
					</rate>
					<in>336</in>
					<out>826</out>
					<start>1651</start>
					<end>2141</end>
					<masterclipid>GN-L2-Wide_34 6</masterclipid>
					<logginginfo>
						<scene/>
						<shottake/>
						<lognote/>
						<good>FALSE</good>
					</logginginfo>
					<labels>
						<label2/>
					</labels>
					<comments>
						<mastercomment1/>
						<mastercomment2/>
						<mastercomment3/>
						<mastercomment4/>
					</comments>
					<file id="GN-L2-Wide_34 2"/>
					<filter>
						<effect>
							<name>Audio Levels</name>
							<effectid>audiolevels</effectid>
							<effectcategory>audiolevels</effectcategory>
							<effecttype>audiolevels</effecttype>
							<mediatype>audio</mediatype>
							<parameter>
								<name>Level</name>
								<parameterid>level</parameterid>
								<valuemin>0</valuemin>
								<valuemax>3.98109</valuemax>
								<value>1</value>
							</parameter>
						</effect>
					</filter>
					<filter>
						<effect>
							<name>Audio Pan</name>
							<effectid>audiopan</effectid>
							<effectcategory>audiopan</effectcategory>
							<effecttype>audiopan</effecttype>
							<mediatype>audio</mediatype>
							<parameter>
								<name>Pan</name>
								<parameterid>pan</parameterid>
								<valuemin>-1</valuemin>
								<valuemax>1</valuemax>
								<value>0</value>
							</parameter>
						</effect>
					</filter>
					<sourcetrack>
						<mediatype>audio</mediatype>
						<trackindex>2</trackindex>
					</sourcetrack>
					<link>
						<linkclipref>GN-L2-Wide_34 </linkclipref>
						<mediatype>video</mediatype>
						<trackindex>2</trackindex>
						<clipindex>4</clipindex>
					</link>
					<link>
						<linkclipref>GN-L2-Wide_34 3</linkclipref>
						<mediatype>audio</mediatype>
						<trackindex>3</trackindex>
						<clipindex>2</clipindex>
					</link>
					<link>
						<linkclipref>GN-L2-Wide_34 4</linkclipref>
						<mediatype>audio</mediatype>
						<trackindex>4</trackindex>
						<clipindex>2</clipindex>
					</link>
					<itemhistory>
						<uuid>76E352BF-27C7-4081-B80D-902BB164F442</uuid>
					</itemhistory>
				</clipitem>
				<clipitem id="GN-L2-Wide_36 4">
					<name>GN-L2-Wide_36</name>
					<duration>1744</duration>
					<rate>
						<ntsc>TRUE</ntsc>
						<timebase>30</timebase>
					</rate>
					<in>590</in>
					<out>1451</out>
					<start>2141</start>
					<end>3002</end>
					<masterclipid>GN-L2-Wide_36 6</masterclipid>
					<logginginfo>
						<scene/>
						<shottake/>
						<lognote/>
						<good>FALSE</good>
					</logginginfo>
					<labels>
						<label2/>
					</labels>
					<comments>
						<mastercomment1/>
						<mastercomment2/>
						<mastercomment3/>
						<mastercomment4/>
					</comments>
					<file id="GN-L2-Wide_36 2"/>
					<filter>
						<effect>
							<name>Audio Levels</name>
							<effectid>audiolevels</effectid>
							<effectcategory>audiolevels</effectcategory>
							<effecttype>audiolevels</effecttype>
							<mediatype>audio</mediatype>
							<parameter>
								<name>Level</name>
								<parameterid>level</parameterid>
								<valuemin>0</valuemin>
								<valuemax>3.98109</valuemax>
								<value>1</value>
							</parameter>
						</effect>
					</filter>
					<filter>
						<effect>
							<name>Audio Pan</name>
							<effectid>audiopan</effectid>
							<effectcategory>audiopan</effectcategory>
							<effecttype>audiopan</effecttype>
							<mediatype>audio</mediatype>
							<parameter>
								<name>Pan</name>
								<parameterid>pan</parameterid>
								<valuemin>-1</valuemin>
								<valuemax>1</valuemax>
								<value>0</value>
							</parameter>
						</effect>
					</filter>
					<sourcetrack>
						<mediatype>audio</mediatype>
						<trackindex>2</trackindex>
					</sourcetrack>
					<link>
						<linkclipref>GN-L2-Wide_36 </linkclipref>
						<mediatype>video</mediatype>
						<trackindex>2</trackindex>
						<clipindex>5</clipindex>
					</link>
					<link>
						<linkclipref>GN-L2-Wide_36 3</linkclipref>
						<mediatype>audio</mediatype>
						<trackindex>3</trackindex>
						<clipindex>3</clipindex>
					</link>
					<link>
						<linkclipref>GN-L2-Wide_36 4</linkclipref>
						<mediatype>audio</mediatype>
						<trackindex>4</trackindex>
						<clipindex>3</clipindex>
					</link>
					<itemhistory>
						<uuid>94B9DE87-558A-4CD7-B1DD-EE3C3108C5B7</uuid>
					</itemhistory>
				</clipitem>
				<clipitem id="GN-L2-Wide_38 4">
					<name>GN-L2-Wide_38</name>
					<duration>1206</duration>
					<rate>
						<ntsc>TRUE</ntsc>
						<timebase>30</timebase>
					</rate>
					<in>622</in>
					<out>1041</out>
					<start>3002</start>
					<end>3421</end>
					<masterclipid>GN-L2-Wide_38 6</masterclipid>
					<logginginfo>
						<scene/>
						<shottake/>
						<lognote/>
						<good>FALSE</good>
					</logginginfo>
					<labels>
						<label2/>
					</labels>
					<comments>
						<mastercomment1/>
						<mastercomment2/>
						<mastercomment3/>
						<mastercomment4/>
					</comments>
					<file id="GN-L2-Wide_38 2"/>
					<filter>
						<effect>
							<name>Audio Levels</name>
							<effectid>audiolevels</effectid>
							<effectcategory>audiolevels</effectcategory>
							<effecttype>audiolevels</effecttype>
							<mediatype>audio</mediatype>
							<parameter>
								<name>Level</name>
								<parameterid>level</parameterid>
								<valuemin>0</valuemin>
								<valuemax>3.98109</valuemax>
								<value>1</value>
							</parameter>
						</effect>
					</filter>
					<filter>
						<effect>
							<name>Audio Pan</name>
							<effectid>audiopan</effectid>
							<effectcategory>audiopan</effectcategory>
							<effecttype>audiopan</effecttype>
							<mediatype>audio</mediatype>
							<parameter>
								<name>Pan</name>
								<parameterid>pan</parameterid>
								<valuemin>-1</valuemin>
								<valuemax>1</valuemax>
								<value>0</value>
							</parameter>
						</effect>
					</filter>
					<sourcetrack>
						<mediatype>audio</mediatype>
						<trackindex>2</trackindex>
					</sourcetrack>
					<link>
						<linkclipref>GN-L2-Wide_38 </linkclipref>
						<mediatype>video</mediatype>
						<trackindex>2</trackindex>
						<clipindex>6</clipindex>
					</link>
					<link>
						<linkclipref>GN-L2-Wide_38 3</linkclipref>
						<mediatype>audio</mediatype>
						<trackindex>3</trackindex>
						<clipindex>4</clipindex>
					</link>
					<link>
						<linkclipref>GN-L2-Wide_38 4</linkclipref>
						<mediatype>audio</mediatype>
						<trackindex>4</trackindex>
						<clipindex>4</clipindex>
					</link>
					<itemhistory>
						<uuid>55D4A2A7-F735-42EA-B8F0-031160871DED</uuid>
					</itemhistory>
				</clipitem>
				<clipitem id="GN-L2-Wide_42 4">
					<name>GN-L2-Wide_42</name>
					<duration>2303</duration>
					<rate>
						<ntsc>TRUE</ntsc>
						<timebase>30</timebase>
					</rate>
					<in>410</in>
					<out>1470</out>
					<start>3421</start>
					<end>4481</end>
					<masterclipid>GN-L2-Wide_42 9</masterclipid>
					<logginginfo>
						<scene/>
						<shottake/>
						<lognote/>
						<good>FALSE</good>
					</logginginfo>
					<labels>
						<label2/>
					</labels>
					<comments>
						<mastercomment1/>
						<mastercomment2/>
						<mastercomment3/>
						<mastercomment4/>
					</comments>
					<file id="GN-L2-Wide_42 2"/>
					<filter>
						<effect>
							<name>Audio Levels</name>
							<effectid>audiolevels</effectid>
							<effectcategory>audiolevels</effectcategory>
							<effecttype>audiolevels</effecttype>
							<mediatype>audio</mediatype>
							<parameter>
								<name>Level</name>
								<parameterid>level</parameterid>
								<valuemin>0</valuemin>
								<valuemax>3.98109</valuemax>
								<value>1</value>
							</parameter>
						</effect>
					</filter>
					<filter>
						<effect>
							<name>Audio Pan</name>
							<effectid>audiopan</effectid>
							<effectcategory>audiopan</effectcategory>
							<effecttype>audiopan</effecttype>
							<mediatype>audio</mediatype>
							<parameter>
								<name>Pan</name>
								<parameterid>pan</parameterid>
								<valuemin>-1</valuemin>
								<valuemax>1</valuemax>
								<value>0</value>
							</parameter>
						</effect>
					</filter>
					<sourcetrack>
						<mediatype>audio</mediatype>
						<trackindex>2</trackindex>
					</sourcetrack>
					<link>
						<linkclipref>GN-L2-Wide_42 </linkclipref>
						<mediatype>video</mediatype>
						<trackindex>2</trackindex>
						<clipindex>7</clipindex>
					</link>
					<link>
						<linkclipref>GN-L2-Wide_42 3</linkclipref>
						<mediatype>audio</mediatype>
						<trackindex>3</trackindex>
						<clipindex>5</clipindex>
					</link>
					<link>
						<linkclipref>GN-L2-Wide_42 4</linkclipref>
						<mediatype>audio</mediatype>
						<trackindex>4</trackindex>
						<clipindex>5</clipindex>
					</link>
					<itemhistory>
						<uuid>5F71D0D6-8FCD-483A-BD5E-3400595F122F</uuid>
					</itemhistory>
				</clipitem>
				<clipitem id="GN-L2-Wide_42 7">
					<name>GN-L2-Wide_42</name>
					<duration>2303</duration>
					<rate>
						<ntsc>TRUE</ntsc>
						<timebase>30</timebase>
					</rate>
					<in>1606</in>
					<out>2143</out>
					<start>4481</start>
					<end>5018</end>
					<masterclipid>GN-L2-Wide_42 9</masterclipid>
					<logginginfo>
						<scene/>
						<shottake/>
						<lognote/>
						<good>FALSE</good>
					</logginginfo>
					<labels>
						<label2/>
					</labels>
					<comments>
						<mastercomment1/>
						<mastercomment2/>
						<mastercomment3/>
						<mastercomment4/>
					</comments>
					<file id="GN-L2-Wide_42 2"/>
					<filter>
						<effect>
							<name>Audio Levels</name>
							<effectid>audiolevels</effectid>
							<effectcategory>audiolevels</effectcategory>
							<effecttype>audiolevels</effecttype>
							<mediatype>audio</mediatype>
							<parameter>
								<name>Level</name>
								<parameterid>level</parameterid>
								<valuemin>0</valuemin>
								<valuemax>3.98109</valuemax>
								<value>1</value>
							</parameter>
						</effect>
					</filter>
					<filter>
						<effect>
							<name>Audio Pan</name>
							<effectid>audiopan</effectid>
							<effectcategory>audiopan</effectcategory>
							<effecttype>audiopan</effecttype>
							<mediatype>audio</mediatype>
							<parameter>
								<name>Pan</name>
								<parameterid>pan</parameterid>
								<valuemin>-1</valuemin>
								<valuemax>1</valuemax>
								<value>0</value>
							</parameter>
						</effect>
					</filter>
					<sourcetrack>
						<mediatype>audio</mediatype>
						<trackindex>2</trackindex>
					</sourcetrack>
					<link>
						<linkclipref>GN-L2-Wide_42 5</linkclipref>
						<mediatype>video</mediatype>
						<trackindex>2</trackindex>
						<clipindex>8</clipindex>
					</link>
					<link>
						<linkclipref>GN-L2-Wide_42 6</linkclipref>
						<mediatype>audio</mediatype>
						<trackindex>3</trackindex>
						<clipindex>6</clipindex>
					</link>
					<link>
						<linkclipref>GN-L2-Wide_42 7</linkclipref>
						<mediatype>audio</mediatype>
						<trackindex>4</trackindex>
						<clipindex>6</clipindex>
					</link>
					<itemhistory>
						<uuid>A5074142-B294-40D3-AC0C-B62A4B01D854</uuid>
					</itemhistory>
				</clipitem>
				<clipitem id="GN-L2-Wide_44 4">
					<name>GN-L2-Wide_44</name>
					<duration>736</duration>
					<rate>
						<ntsc>TRUE</ntsc>
						<timebase>30</timebase>
					</rate>
					<in>404</in>
					<out>556</out>
					<start>5018</start>
					<end>5170</end>
					<masterclipid>GN-L2-Wide_44 6</masterclipid>
					<logginginfo>
						<scene/>
						<shottake/>
						<lognote/>
						<good>FALSE</good>
					</logginginfo>
					<labels>
						<label2/>
					</labels>
					<comments>
						<mastercomment1/>
						<mastercomment2/>
						<mastercomment3/>
						<mastercomment4/>
					</comments>
					<file id="GN-L2-Wide_44 2"/>
					<filter>
						<effect>
							<name>Audio Levels</name>
							<effectid>audiolevels</effectid>
							<effectcategory>audiolevels</effectcategory>
							<effecttype>audiolevels</effecttype>
							<mediatype>audio</mediatype>
							<parameter>
								<name>Level</name>
								<parameterid>level</parameterid>
								<valuemin>0</valuemin>
								<valuemax>3.98109</valuemax>
								<value>1</value>
							</parameter>
						</effect>
					</filter>
					<filter>
						<effect>
							<name>Audio Pan</name>
							<effectid>audiopan</effectid>
							<effectcategory>audiopan</effectcategory>
							<effecttype>audiopan</effecttype>
							<mediatype>audio</mediatype>
							<parameter>
								<name>Pan</name>
								<parameterid>pan</parameterid>
								<valuemin>-1</valuemin>
								<valuemax>1</valuemax>
								<value>0</value>
							</parameter>
						</effect>
					</filter>
					<sourcetrack>
						<mediatype>audio</mediatype>
						<trackindex>2</trackindex>
					</sourcetrack>
					<link>
						<linkclipref>GN-L2-Wide_44 </linkclipref>
						<mediatype>video</mediatype>
						<trackindex>2</trackindex>
						<clipindex>9</clipindex>
					</link>
					<link>
						<linkclipref>GN-L2-Wide_44 3</linkclipref>
						<mediatype>audio</mediatype>
						<trackindex>3</trackindex>
						<clipindex>7</clipindex>
					</link>
					<link>
						<linkclipref>GN-L2-Wide_44 4</linkclipref>
						<mediatype>audio</mediatype>
						<trackindex>4</trackindex>
						<clipindex>7</clipindex>
					</link>
					<itemhistory>
						<uuid>E71B4E6D-285C-4C57-BD2D-4C5C0336C643</uuid>
					</itemhistory>
				</clipitem>
				<clipitem id="GN-L2-Wide_47 4">
					<name>GN-L2-Wide_47</name>
					<duration>2983</duration>
					<rate>
						<ntsc>TRUE</ntsc>
						<timebase>30</timebase>
					</rate>
					<in>1722</in>
					<out>2841</out>
					<start>5698</start>
					<end>6817</end>
					<masterclipid>GN-L2-Wide_47 6</masterclipid>
					<logginginfo>
						<scene/>
						<shottake/>
						<lognote/>
						<good>FALSE</good>
					</logginginfo>
					<labels>
						<label2/>
					</labels>
					<comments>
						<mastercomment1/>
						<mastercomment2/>
						<mastercomment3/>
						<mastercomment4/>
					</comments>
					<file id="GN-L2-Wide_47 2"/>
					<filter>
						<effect>
							<name>Audio Levels</name>
							<effectid>audiolevels</effectid>
							<effectcategory>audiolevels</effectcategory>
							<effecttype>audiolevels</effecttype>
							<mediatype>audio</mediatype>
							<parameter>
								<name>Level</name>
								<parameterid>level</parameterid>
								<valuemin>0</valuemin>
								<valuemax>3.98109</valuemax>
								<value>1</value>
							</parameter>
						</effect>
					</filter>
					<filter>
						<effect>
							<name>Audio Pan</name>
							<effectid>audiopan</effectid>
							<effectcategory>audiopan</effectcategory>
							<effecttype>audiopan</effecttype>
							<mediatype>audio</mediatype>
							<parameter>
								<name>Pan</name>
								<parameterid>pan</parameterid>
								<valuemin>-1</valuemin>
								<valuemax>1</valuemax>
								<value>0</value>
							</parameter>
						</effect>
					</filter>
					<sourcetrack>
						<mediatype>audio</mediatype>
						<trackindex>2</trackindex>
					</sourcetrack>
					<link>
						<linkclipref>GN-L2-Wide_47 </linkclipref>
						<mediatype>video</mediatype>
						<trackindex>2</trackindex>
						<clipindex>10</clipindex>
					</link>
					<link>
						<linkclipref>GN-L2-Wide_47 3</linkclipref>
						<mediatype>audio</mediatype>
						<trackindex>3</trackindex>
						<clipindex>8</clipindex>
					</link>
					<link>
						<linkclipref>GN-L2-Wide_47 4</linkclipref>
						<mediatype>audio</mediatype>
						<trackindex>4</trackindex>
						<clipindex>8</clipindex>
					</link>
					<itemhistory>
						<uuid>611B85A2-C95B-43A2-940E-DF234AE7CFE9</uuid>
					</itemhistory>
				</clipitem>
				<clipitem id="GN-L2-Wide_48 4">
					<name>GN-L2-Wide_48</name>
					<duration>1159</duration>
					<rate>
						<ntsc>TRUE</ntsc>
						<timebase>30</timebase>
					</rate>
					<in>420</in>
					<out>635</out>
					<start>6817</start>
					<end>7032</end>
					<masterclipid>GN-L2-Wide_48 6</masterclipid>
					<logginginfo>
						<scene/>
						<shottake/>
						<lognote/>
						<good>FALSE</good>
					</logginginfo>
					<labels>
						<label2/>
					</labels>
					<comments>
						<mastercomment1/>
						<mastercomment2/>
						<mastercomment3/>
						<mastercomment4/>
					</comments>
					<file id="GN-L2-Wide_48 2"/>
					<filter>
						<effect>
							<name>Audio Levels</name>
							<effectid>audiolevels</effectid>
							<effectcategory>audiolevels</effectcategory>
							<effecttype>audiolevels</effecttype>
							<mediatype>audio</mediatype>
							<parameter>
								<name>Level</name>
								<parameterid>level</parameterid>
								<valuemin>0</valuemin>
								<valuemax>3.98109</valuemax>
								<value>1</value>
							</parameter>
						</effect>
					</filter>
					<filter>
						<effect>
							<name>Audio Pan</name>
							<effectid>audiopan</effectid>
							<effectcategory>audiopan</effectcategory>
							<effecttype>audiopan</effecttype>
							<mediatype>audio</mediatype>
							<parameter>
								<name>Pan</name>
								<parameterid>pan</parameterid>
								<valuemin>-1</valuemin>
								<valuemax>1</valuemax>
								<value>0</value>
							</parameter>
						</effect>
					</filter>
					<sourcetrack>
						<mediatype>audio</mediatype>
						<trackindex>2</trackindex>
					</sourcetrack>
					<link>
						<linkclipref>GN-L2-Wide_48 </linkclipref>
						<mediatype>video</mediatype>
						<trackindex>2</trackindex>
						<clipindex>11</clipindex>
					</link>
					<link>
						<linkclipref>GN-L2-Wide_48 3</linkclipref>
						<mediatype>audio</mediatype>
						<trackindex>3</trackindex>
						<clipindex>9</clipindex>
					</link>
					<link>
						<linkclipref>GN-L2-Wide_48 4</linkclipref>
						<mediatype>audio</mediatype>
						<trackindex>4</trackindex>
						<clipindex>9</clipindex>
					</link>
					<itemhistory>
						<uuid>39D314CF-4358-4C3E-9777-BA234ACB44F0</uuid>
					</itemhistory>
				</clipitem>
				<clipitem id="GN-L2-Wide_49 4">
					<name>GN-L2-Wide_49</name>
					<duration>2432</duration>
					<rate>
						<ntsc>TRUE</ntsc>
						<timebase>30</timebase>
					</rate>
					<in>1968</in>
					<out>2261</out>
					<start>7032</start>
					<end>7325</end>
					<masterclipid>GN-L2-Wide_49 6</masterclipid>
					<logginginfo>
						<scene/>
						<shottake/>
						<lognote/>
						<good>FALSE</good>
					</logginginfo>
					<labels>
						<label2/>
					</labels>
					<comments>
						<mastercomment1/>
						<mastercomment2/>
						<mastercomment3/>
						<mastercomment4/>
					</comments>
					<file id="GN-L2-Wide_49 2"/>
					<filter>
						<effect>
							<name>Audio Levels</name>
							<effectid>audiolevels</effectid>
							<effectcategory>audiolevels</effectcategory>
							<effecttype>audiolevels</effecttype>
							<mediatype>audio</mediatype>
							<parameter>
								<name>Level</name>
								<parameterid>level</parameterid>
								<valuemin>0</valuemin>
								<valuemax>3.98109</valuemax>
								<value>1</value>
							</parameter>
						</effect>
					</filter>
					<filter>
						<effect>
							<name>Audio Pan</name>
							<effectid>audiopan</effectid>
							<effectcategory>audiopan</effectcategory>
							<effecttype>audiopan</effecttype>
							<mediatype>audio</mediatype>
							<parameter>
								<name>Pan</name>
								<parameterid>pan</parameterid>
								<valuemin>-1</valuemin>
								<valuemax>1</valuemax>
								<value>0</value>
							</parameter>
						</effect>
					</filter>
					<sourcetrack>
						<mediatype>audio</mediatype>
						<trackindex>2</trackindex>
					</sourcetrack>
					<link>
						<linkclipref>GN-L2-Wide_49 </linkclipref>
						<mediatype>video</mediatype>
						<trackindex>2</trackindex>
						<clipindex>12</clipindex>
					</link>
					<link>
						<linkclipref>GN-L2-Wide_49 3</linkclipref>
						<mediatype>audio</mediatype>
						<trackindex>3</trackindex>
						<clipindex>10</clipindex>
					</link>
					<link>
						<linkclipref>GN-L2-Wide_49 4</linkclipref>
						<mediatype>audio</mediatype>
						<trackindex>4</trackindex>
						<clipindex>10</clipindex>
					</link>
					<itemhistory>
						<uuid>CD066DD8-BE41-448F-BE09-FCFA65ED4A2B</uuid>
					</itemhistory>
				</clipitem>
				<clipitem id="GN.ST-L1-wide_28 3">
					<name>GN.ST-L1-wide_28</name>
					<duration>3212</duration>
					<rate>
						<ntsc>TRUE</ntsc>
						<timebase>30</timebase>
					</rate>
					<in>410</in>
					<out>3136</out>
					<start>7325</start>
					<end>10051</end>
					<logginginfo>
						<scene/>
						<shottake/>
						<lognote/>
						<good>FALSE</good>
					</logginginfo>
					<labels>
						<label2/>
					</labels>
					<comments>
						<mastercomment1/>
						<mastercomment2/>
						<mastercomment3/>
						<mastercomment4/>
					</comments>
					<file id="GN.ST-L1-wide_28 1"/>
					<filter>
						<effect>
							<name>Audio Levels</name>
							<effectid>audiolevels</effectid>
							<effectcategory>audiolevels</effectcategory>
							<effecttype>audiolevels</effecttype>
							<mediatype>audio</mediatype>
							<parameter>
								<name>Level</name>
								<parameterid>level</parameterid>
								<valuemin>0</valuemin>
								<valuemax>3.98109</valuemax>
								<value>1</value>
							</parameter>
						</effect>
					</filter>
					<filter>
						<effect>
							<name>Audio Pan</name>
							<effectid>audiopan</effectid>
							<effectcategory>audiopan</effectcategory>
							<effecttype>audiopan</effecttype>
							<mediatype>audio</mediatype>
							<parameter>
								<name>Pan</name>
								<parameterid>pan</parameterid>
								<valuemin>-1</valuemin>
								<valuemax>1</valuemax>
								<value>0</value>
							</parameter>
						</effect>
					</filter>
					<sourcetrack>
						<mediatype>audio</mediatype>
						<trackindex>2</trackindex>
					</sourcetrack>
					<link>
						<linkclipref>GN.ST-L1-wide_28 </linkclipref>
						<mediatype>video</mediatype>
						<trackindex>2</trackindex>
						<clipindex>14</clipindex>
					</link>
					<link>
						<linkclipref>GN.ST-L1-wide_28 2</linkclipref>
						<mediatype>audio</mediatype>
						<trackindex>3</trackindex>
						<clipindex>11</clipindex>
					</link>
					<link>
						<linkclipref>GN.ST-L1-wide_28 3</linkclipref>
						<mediatype>audio</mediatype>
						<trackindex>4</trackindex>
						<clipindex>11</clipindex>
					</link>
					<itemhistory>
						<uuid>20C065F1-E02E-40FD-8FB3-2713DBA0A05A</uuid>
					</itemhistory>
				</clipitem>
				<enabled>FALSE</enabled>
				<locked>TRUE</locked>
				<outputchannelindex>2</outputchannelindex>
			</track>
			<filter>
				<effect>
					<name>Audio Levels</name>
					<effectid>audiolevels</effectid>
					<effectcategory>audiolevels</effectcategory>
					<effecttype>audiolevels</effecttype>
					<mediatype>audio</mediatype>
					<parameter>
						<name>Level</name>
						<parameterid>level</parameterid>
						<valuemin>0</valuemin>
						<valuemax>3.98109</valuemax>
						<value>1</value>
					</parameter>
				</effect>
			</filter>
		</audio>
	</media>
	<ismasterclip>FALSE</ismasterclip>
	<labels>
		<label>Reviewing</label>
	</labels>
</sequence>
</xmeml>


