<?xml version="1.0" encoding="UTF-8"?>
<!DOCTYPE xmeml>
<xmeml version="4">
<sequence id="GN_L1_Bible">
	<uuid>0209A70A-F329-421C-B537-9BCAB76502FD</uuid>
	<updatebehavior>add</updatebehavior>
	<name>GN_L1_Bible</name>
	<duration>9951</duration>
	<rate>
		<ntsc>TRUE</ntsc>
		<timebase>30</timebase>
	</rate>
	<timecode>
		<rate>
			<ntsc>TRUE</ntsc>
			<timebase>30</timebase>
		</rate>
		<string>01:00:00;00</string>
		<frame>107892</frame>
		<source>source</source>
		<displayformat>DF</displayformat>
	</timecode>
	<in>-1</in>
	<out>-1</out>
	<media>
		<video>
			<format>
				<samplecharacteristics>
					<width>1920</width>
					<height>1080</height>
					<anamorphic>FALSE</anamorphic>
					<pixelaspectratio>Square</pixelaspectratio>
					<fielddominance>none</fielddominance>
					<rate>
						<ntsc>TRUE</ntsc>
						<timebase>30</timebase>
					</rate>
					<colordepth>24</colordepth>
					<codec>
						<name>Apple ProRes 422</name>
						<appspecificdata>
							<appname>Final Cut Pro</appname>
							<appmanufacturer>Apple Inc.</appmanufacturer>
							<appversion>7.0</appversion>
							<data>
								<qtcodec>
									<codecname>Apple ProRes 422</codecname>
									<codectypename>Apple ProRes 422</codectypename>
									<codectypecode>apcn</codectypecode>
									<codecvendorcode>appl</codecvendorcode>
									<spatialquality>1023</spatialquality>
									<temporalquality>0</temporalquality>
									<keyframerate>0</keyframerate>
									<datarate>0</datarate>
								</qtcodec>
							</data>
						</appspecificdata>
					</codec>
				</samplecharacteristics>
				<appspecificdata>
					<appname>Final Cut Pro</appname>
					<appmanufacturer>Apple Inc.</appmanufacturer>
					<appversion>7.0</appversion>
					<data>
						<fcpimageprocessing>
							<useyuv>TRUE</useyuv>
							<usesuperwhite>FALSE</usesuperwhite>
							<rendermode>Float10BPP</rendermode>
						</fcpimageprocessing>
					</data>
				</appspecificdata>
			</format>
			<track>
				<clipitem id="GN.ST-L1-wide_2 ">
					<name>GN.ST-L1-wide_2</name>
					<duration>1762</duration>
					<rate>
						<ntsc>TRUE</ntsc>
						<timebase>30</timebase>
					</rate>
					<in>519</in>
					<out>1684</out>
					<start>0</start>
					<end>1165</end>
					<pixelaspectratio>Square</pixelaspectratio>
					<enabled>FALSE</enabled>
					<anamorphic>FALSE</anamorphic>
					<alphatype>none</alphatype>
					<masterclipid>GN.ST-L1-wide_2 1</masterclipid>
					<logginginfo>
						<scene/>
						<shottake/>
						<lognote/>
						<good>FALSE</good>
					</logginginfo>
					<labels>
						<label2/>
					</labels>
					<comments>
						<mastercomment1/>
						<mastercomment2/>
						<mastercomment3/>
						<mastercomment4/>
					</comments>
					<file id="GN.ST-L1-wide_2 2">
						<name>GN.ST-L1-wide_2.mov</name>
						<pathurl>file://localhost/Volumes/Xsan/ELEVATE/ELEVATE_FCP_Docs/Good_News_Kids/Capture_Scratch/BibleStories/L1/L1_VOX/GN.ST-L1-wide_2.mov</pathurl>
						<rate>
							<timebase>30</timebase>
							<ntsc>TRUE</ntsc>
						</rate>
						<duration>1762</duration>
						<timecode>
							<rate>
								<timebase>30</timebase>
								<ntsc>TRUE</ntsc>
							</rate>
							<string>09:34:55:10</string>
							<frame>1034860</frame>
							<displayformat>NDF</displayformat>
							<source>source</source>
							<reel>
								<name>1</name>
							</reel>
						</timecode>
						<media>
							<video>
								<duration>1762</duration>
								<samplecharacteristics>
									<width>1920</width>
									<height>1080</height>
								</samplecharacteristics>
							</video>
							<audio>
								<samplecharacteristics>
									<samplerate>48000</samplerate>
									<depth>24</depth>
								</samplecharacteristics>
								<channelcount>1</channelcount>
							</audio>
							<audio>
								<samplecharacteristics>
									<samplerate>48000</samplerate>
									<depth>24</depth>
								</samplecharacteristics>
								<channelcount>1</channelcount>
							</audio>
						</media>
					</file>
					<sourcetrack>
						<mediatype>video</mediatype>
					</sourcetrack>
					<link>
						<linkclipref>GN.ST-L1-wide_2 </linkclipref>
						<mediatype>video</mediatype>
						<trackindex>1</trackindex>
						<clipindex>1</clipindex>
					</link>
					<link>
						<linkclipref>GN.ST-L1-wide_2 3</linkclipref>
						<mediatype>audio</mediatype>
						<trackindex>1</trackindex>
						<clipindex>1</clipindex>
					</link>
					<link>
						<linkclipref>GN.ST-L1-wide_2 4</linkclipref>
						<mediatype>audio</mediatype>
						<trackindex>2</trackindex>
						<clipindex>1</clipindex>
					</link>
					<fielddominance>upper</fielddominance>
					<itemhistory>
						<uuid>F5D274E4-0F32-4FA9-B115-363DECD61585</uuid>
					</itemhistory>
				</clipitem>
				<clipitem id="GN.ST-L1-tigt_22 ">
					<name>GN.ST-L1-tigt_22</name>
					<duration>4013</duration>
					<rate>
						<ntsc>TRUE</ntsc>
						<timebase>30</timebase>
					</rate>
					<in>309</in>
					<out>921</out>
					<start>1270</start>
					<end>1882</end>
					<pixelaspectratio>Square</pixelaspectratio>
					<enabled>TRUE</enabled>
					<anamorphic>FALSE</anamorphic>
					<alphatype>none</alphatype>
					<logginginfo>
						<scene/>
						<shottake/>
						<lognote/>
						<good>FALSE</good>
					</logginginfo>
					<labels>
						<label2/>
					</labels>
					<comments>
						<mastercomment1/>
						<mastercomment2/>
						<mastercomment3/>
						<mastercomment4/>
					</comments>
					<file id="GN.ST-L1-tigt_22 1">
						<name>GN.ST-L1-tigt_22.mov</name>
						<pathurl>file://localhost/Volumes/Xsan/ELEVATE/ELEVATE_FCP_Docs/Good_News_Kids/Capture_Scratch/BibleStories/L1/Studio/GN.ST-L1-tigt_22.mov</pathurl>
						<rate>
							<timebase>30</timebase>
							<ntsc>TRUE</ntsc>
						</rate>
						<duration>4013</duration>
						<timecode>
							<rate>
								<timebase>30</timebase>
								<ntsc>TRUE</ntsc>
							</rate>
							<string>10:21:18:28</string>
							<frame>1118368</frame>
							<displayformat>NDF</displayformat>
							<source>source</source>
							<reel>
								<name>2</name>
							</reel>
						</timecode>
						<media>
							<video>
								<duration>4013</duration>
								<samplecharacteristics>
									<width>1920</width>
									<height>1080</height>
								</samplecharacteristics>
							</video>
							<audio>
								<samplecharacteristics>
									<samplerate>48000</samplerate>
									<depth>24</depth>
								</samplecharacteristics>
								<channelcount>1</channelcount>
							</audio>
							<audio>
								<samplecharacteristics>
									<samplerate>48000</samplerate>
									<depth>24</depth>
								</samplecharacteristics>
								<channelcount>1</channelcount>
							</audio>
						</media>
					</file>
					<sourcetrack>
						<mediatype>video</mediatype>
					</sourcetrack>
					<link>
						<linkclipref>GN.ST-L1-tigt_22 </linkclipref>
						<mediatype>video</mediatype>
						<trackindex>1</trackindex>
						<clipindex>2</clipindex>
					</link>
					<link>
						<linkclipref>GN.ST-L1-tigt_22 2</linkclipref>
						<mediatype>audio</mediatype>
						<trackindex>1</trackindex>
						<clipindex>2</clipindex>
					</link>
					<link>
						<linkclipref>GN.ST-L1-tigt_22 3</linkclipref>
						<mediatype>audio</mediatype>
						<trackindex>2</trackindex>
						<clipindex>2</clipindex>
					</link>
					<fielddominance>upper</fielddominance>
					<itemhistory>
						<uuid>CCCAEA2E-D7C0-4349-8A7A-3CDF3AFBEB62</uuid>
					</itemhistory>
				</clipitem>
				<clipitem id="GN-L1-Tight_3 ">
					<name>GN-L1-Tight_3</name>
					<duration>2188</duration>
					<rate>
						<ntsc>TRUE</ntsc>
						<timebase>30</timebase>
					</rate>
					<in>261</in>
					<out>2068</out>
					<start>1882</start>
					<end>3689</end>
					<pixelaspectratio>Square</pixelaspectratio>
					<anamorphic>FALSE</anamorphic>
					<alphatype>none</alphatype>
					<masterclipid>GN-L1-Tight_3 1</masterclipid>
					<logginginfo>
						<scene/>
						<shottake/>
						<lognote/>
						<good>FALSE</good>
					</logginginfo>
					<labels>
						<label2/>
					</labels>
					<comments>
						<mastercomment1/>
						<mastercomment2/>
						<mastercomment3/>
						<mastercomment4/>
					</comments>
					<file id="GN-L1-Tight_3 2">
						<name>GN-L1-Tight_3.mov</name>
						<pathurl>file://localhost/Volumes/Xsan/ELEVATE/ELEVATE_FCP_Docs/Good_News_Kids/Capture_Scratch/BibleStories/L1/Location/GN-L1-Tight_3.mov</pathurl>
						<rate>
							<timebase>30</timebase>
							<ntsc>TRUE</ntsc>
						</rate>
						<duration>2188</duration>
						<timecode>
							<rate>
								<timebase>30</timebase>
								<ntsc>TRUE</ntsc>
							</rate>
							<string>10:12:06:08</string>
							<frame>1101788</frame>
							<displayformat>NDF</displayformat>
							<source>source</source>
							<reel>
								<name>2</name>
							</reel>
						</timecode>
						<media>
							<video>
								<duration>2188</duration>
								<samplecharacteristics>
									<width>1920</width>
									<height>1080</height>
								</samplecharacteristics>
							</video>
							<audio>
								<samplecharacteristics>
									<samplerate>48000</samplerate>
									<depth>24</depth>
								</samplecharacteristics>
								<channelcount>1</channelcount>
							</audio>
							<audio>
								<samplecharacteristics>
									<samplerate>48000</samplerate>
									<depth>24</depth>
								</samplecharacteristics>
								<channelcount>1</channelcount>
							</audio>
						</media>
					</file>
					<sourcetrack>
						<mediatype>video</mediatype>
					</sourcetrack>
					<link>
						<linkclipref>GN-L1-Tight_3 </linkclipref>
						<mediatype>video</mediatype>
						<trackindex>1</trackindex>
						<clipindex>3</clipindex>
					</link>
					<link>
						<linkclipref>GN-L1-Tight_3 3</linkclipref>
						<mediatype>audio</mediatype>
						<trackindex>1</trackindex>
						<clipindex>3</clipindex>
					</link>
					<link>
						<linkclipref>GN-L1-Tight_3 4</linkclipref>
						<mediatype>audio</mediatype>
						<trackindex>2</trackindex>
						<clipindex>3</clipindex>
					</link>
					<fielddominance>upper</fielddominance>
					<itemhistory>
						<uuid>6916B8E9-C754-4443-998C-EF1C3B615594</uuid>
					</itemhistory>
				</clipitem>
				<clipitem id="GN-L1-Tight_5 ">
					<name>GN-L1-Tight_5</name>
					<duration>4352</duration>
					<rate>
						<ntsc>TRUE</ntsc>
						<timebase>30</timebase>
					</rate>
					<in>360</in>
					<out>1130</out>
					<start>3689</start>
					<end>4459</end>
					<pixelaspectratio>Square</pixelaspectratio>
					<anamorphic>FALSE</anamorphic>
					<alphatype>none</alphatype>
					<masterclipid>GN-L1-Tight_5 1</masterclipid>
					<logginginfo>
						<scene/>
						<shottake/>
						<lognote/>
						<good>FALSE</good>
					</logginginfo>
					<labels>
						<label2/>
					</labels>
					<comments>
						<mastercomment1/>
						<mastercomment2/>
						<mastercomment3/>
						<mastercomment4/>
					</comments>
					<file id="GN-L1-Tight_5 2">
						<name>GN-L1-Tight_5.mov</name>
						<pathurl>file://localhost/Volumes/Xsan/ELEVATE/ELEVATE_FCP_Docs/Good_News_Kids/Capture_Scratch/BibleStories/L1/Location/GN-L1-Tight_5.mov</pathurl>
						<rate>
							<timebase>30</timebase>
							<ntsc>TRUE</ntsc>
						</rate>
						<duration>4352</duration>
						<timecode>
							<rate>
								<timebase>30</timebase>
								<ntsc>TRUE</ntsc>
							</rate>
							<string>10:26:58:24</string>
							<frame>1128564</frame>
							<displayformat>NDF</displayformat>
							<source>source</source>
							<reel>
								<name>2</name>
							</reel>
						</timecode>
						<media>
							<video>
								<duration>4352</duration>
								<samplecharacteristics>
									<width>1920</width>
									<height>1080</height>
								</samplecharacteristics>
							</video>
							<audio>
								<samplecharacteristics>
									<samplerate>48000</samplerate>
									<depth>24</depth>
								</samplecharacteristics>
								<channelcount>1</channelcount>
							</audio>
							<audio>
								<samplecharacteristics>
									<samplerate>48000</samplerate>
									<depth>24</depth>
								</samplecharacteristics>
								<channelcount>1</channelcount>
							</audio>
						</media>
					</file>
					<sourcetrack>
						<mediatype>video</mediatype>
					</sourcetrack>
					<link>
						<linkclipref>GN-L1-Tight_5 </linkclipref>
						<mediatype>video</mediatype>
						<trackindex>1</trackindex>
						<clipindex>4</clipindex>
					</link>
					<link>
						<linkclipref>GN-L1-Tight_5 3</linkclipref>
						<mediatype>audio</mediatype>
						<trackindex>1</trackindex>
						<clipindex>4</clipindex>
					</link>
					<link>
						<linkclipref>GN-L1-Tight_5 4</linkclipref>
						<mediatype>audio</mediatype>
						<trackindex>2</trackindex>
						<clipindex>4</clipindex>
					</link>
					<fielddominance>upper</fielddominance>
					<itemhistory>
						<uuid>D3B4514E-0932-4A6B-9CAA-19491E7546E1</uuid>
					</itemhistory>
				</clipitem>
				<clipitem id="GN-L1-Tight_5 5">
					<name>GN-L1-Tight_5</name>
					<duration>4352</duration>
					<rate>
						<ntsc>TRUE</ntsc>
						<timebase>30</timebase>
					</rate>
					<in>1212</in>
					<out>1892</out>
					<start>4459</start>
					<end>5139</end>
					<pixelaspectratio>Square</pixelaspectratio>
					<anamorphic>FALSE</anamorphic>
					<alphatype>none</alphatype>
					<masterclipid>GN-L1-Tight_5 1</masterclipid>
					<logginginfo>
						<scene/>
						<shottake/>
						<lognote/>
						<good>FALSE</good>
					</logginginfo>
					<labels>
						<label2/>
					</labels>
					<comments>
						<mastercomment1/>
						<mastercomment2/>
						<mastercomment3/>
						<mastercomment4/>
					</comments>
					<file id="GN-L1-Tight_5 2"/>
					<sourcetrack>
						<mediatype>video</mediatype>
					</sourcetrack>
					<link>
						<linkclipref>GN-L1-Tight_5 5</linkclipref>
						<mediatype>video</mediatype>
						<trackindex>1</trackindex>
						<clipindex>5</clipindex>
					</link>
					<link>
						<linkclipref>GN-L1-Tight_5 6</linkclipref>
						<mediatype>audio</mediatype>
						<trackindex>1</trackindex>
						<clipindex>5</clipindex>
					</link>
					<link>
						<linkclipref>GN-L1-Tight_5 7</linkclipref>
						<mediatype>audio</mediatype>
						<trackindex>2</trackindex>
						<clipindex>5</clipindex>
					</link>
					<fielddominance>upper</fielddominance>
					<itemhistory>
						<uuid>D818C79C-7B07-48CE-9B1F-AC6D02EED224</uuid>
					</itemhistory>
				</clipitem>
				<clipitem id="GN-L1-Tight_5 8">
					<name>GN-L1-Tight_5</name>
					<duration>4352</duration>
					<rate>
						<ntsc>TRUE</ntsc>
						<timebase>30</timebase>
					</rate>
					<in>4007</in>
					<out>4202</out>
					<start>5139</start>
					<end>5334</end>
					<pixelaspectratio>Square</pixelaspectratio>
					<anamorphic>FALSE</anamorphic>
					<alphatype>none</alphatype>
					<masterclipid>GN-L1-Tight_5 1</masterclipid>
					<logginginfo>
						<scene/>
						<shottake/>
						<lognote/>
						<good>FALSE</good>
					</logginginfo>
					<labels>
						<label2/>
					</labels>
					<comments>
						<mastercomment1/>
						<mastercomment2/>
						<mastercomment3/>
						<mastercomment4/>
					</comments>
					<file id="GN-L1-Tight_5 2"/>
					<sourcetrack>
						<mediatype>video</mediatype>
					</sourcetrack>
					<link>
						<linkclipref>GN-L1-Tight_5 8</linkclipref>
						<mediatype>video</mediatype>
						<trackindex>1</trackindex>
						<clipindex>6</clipindex>
					</link>
					<link>
						<linkclipref>GN-L1-Tight_5 9</linkclipref>
						<mediatype>audio</mediatype>
						<trackindex>1</trackindex>
						<clipindex>6</clipindex>
					</link>
					<link>
						<linkclipref>GN-L1-Tight_5 10</linkclipref>
						<mediatype>audio</mediatype>
						<trackindex>2</trackindex>
						<clipindex>6</clipindex>
					</link>
					<fielddominance>upper</fielddominance>
					<itemhistory>
						<uuid>F8290F88-F8F8-4707-91B3-EEBCA9D3081F</uuid>
					</itemhistory>
				</clipitem>
				<clipitem id="GN-L1-Tight_8 ">
					<name>GN-L1-Tight_8</name>
					<duration>983</duration>
					<rate>
						<ntsc>TRUE</ntsc>
						<timebase>30</timebase>
					</rate>
					<in>258</in>
					<out>891</out>
					<start>5334</start>
					<end>5967</end>
					<pixelaspectratio>Square</pixelaspectratio>
					<anamorphic>FALSE</anamorphic>
					<alphatype>none</alphatype>
					<masterclipid>GN-L1-Tight_8 1</masterclipid>
					<logginginfo>
						<scene/>
						<shottake/>
						<lognote/>
						<good>FALSE</good>
					</logginginfo>
					<labels>
						<label2/>
					</labels>
					<comments>
						<mastercomment1/>
						<mastercomment2/>
						<mastercomment3/>
						<mastercomment4/>
					</comments>
					<file id="GN-L1-Tight_8 2">
						<name>GN-L1-Tight_8.mov</name>
						<pathurl>file://localhost/Volumes/Xsan/ELEVATE/ELEVATE_FCP_Docs/Good_News_Kids/Capture_Scratch/BibleStories/L1/Location/GN-L1-Tight_8.mov</pathurl>
						<rate>
							<timebase>30</timebase>
							<ntsc>TRUE</ntsc>
						</rate>
						<duration>983</duration>
						<timecode>
							<rate>
								<timebase>30</timebase>
								<ntsc>TRUE</ntsc>
							</rate>
							<string>10:38:08:21</string>
							<frame>1148661</frame>
							<displayformat>NDF</displayformat>
							<source>source</source>
							<reel>
								<name>2</name>
							</reel>
						</timecode>
						<media>
							<video>
								<duration>983</duration>
								<samplecharacteristics>
									<width>1920</width>
									<height>1080</height>
								</samplecharacteristics>
							</video>
							<audio>
								<samplecharacteristics>
									<samplerate>48000</samplerate>
									<depth>24</depth>
								</samplecharacteristics>
								<channelcount>1</channelcount>
							</audio>
							<audio>
								<samplecharacteristics>
									<samplerate>48000</samplerate>
									<depth>24</depth>
								</samplecharacteristics>
								<channelcount>1</channelcount>
							</audio>
						</media>
					</file>
					<sourcetrack>
						<mediatype>video</mediatype>
					</sourcetrack>
					<link>
						<linkclipref>GN-L1-Tight_8 </linkclipref>
						<mediatype>video</mediatype>
						<trackindex>1</trackindex>
						<clipindex>7</clipindex>
					</link>
					<link>
						<linkclipref>GN-L1-Tight_8 3</linkclipref>
						<mediatype>audio</mediatype>
						<trackindex>1</trackindex>
						<clipindex>7</clipindex>
					</link>
					<link>
						<linkclipref>GN-L1-Tight_8 4</linkclipref>
						<mediatype>audio</mediatype>
						<trackindex>2</trackindex>
						<clipindex>7</clipindex>
					</link>
					<fielddominance>upper</fielddominance>
					<itemhistory>
						<uuid>2E7CA3EB-7577-4B94-BF1D-BB6154B06598</uuid>
					</itemhistory>
				</clipitem>
				<clipitem id="GN-L1-Tigt_1 ">
					<name>GN-L1-Tigt_1</name>
					<duration>1442</duration>
					<rate>
						<ntsc>TRUE</ntsc>
						<timebase>30</timebase>
					</rate>
					<in>484</in>
					<out>1362</out>
					<start>6158</start>
					<end>7036</end>
					<pixelaspectratio>Square</pixelaspectratio>
					<anamorphic>FALSE</anamorphic>
					<alphatype>none</alphatype>
					<masterclipid>GN-L1-Tigt_1 1</masterclipid>
					<logginginfo>
						<scene/>
						<shottake/>
						<lognote/>
						<good>FALSE</good>
					</logginginfo>
					<labels>
						<label2/>
					</labels>
					<comments>
						<mastercomment1/>
						<mastercomment2/>
						<mastercomment3/>
						<mastercomment4/>
					</comments>
					<file id="GN-L1-Tigt_1 2">
						<name>GN-L1-Tigt_1.mov</name>
						<pathurl>file://localhost/Volumes/Xsan/ELEVATE/ELEVATE_FCP_Docs/Good_News_Kids/Capture_Scratch/BibleStories/L1/Location/GN-L1-Tigt_1.mov</pathurl>
						<rate>
							<timebase>30</timebase>
							<ntsc>TRUE</ntsc>
						</rate>
						<duration>1442</duration>
						<timecode>
							<rate>
								<timebase>30</timebase>
								<ntsc>TRUE</ntsc>
							</rate>
							<string>10:45:56:24</string>
							<frame>1162704</frame>
							<displayformat>NDF</displayformat>
							<source>source</source>
							<reel>
								<name>2</name>
							</reel>
						</timecode>
						<media>
							<video>
								<duration>1442</duration>
								<samplecharacteristics>
									<width>1920</width>
									<height>1080</height>
								</samplecharacteristics>
							</video>
							<audio>
								<samplecharacteristics>
									<samplerate>48000</samplerate>
									<depth>24</depth>
								</samplecharacteristics>
								<channelcount>1</channelcount>
							</audio>
							<audio>
								<samplecharacteristics>
									<samplerate>48000</samplerate>
									<depth>24</depth>
								</samplecharacteristics>
								<channelcount>1</channelcount>
							</audio>
						</media>
					</file>
					<sourcetrack>
						<mediatype>video</mediatype>
					</sourcetrack>
					<link>
						<linkclipref>GN-L1-Tigt_1 </linkclipref>
						<mediatype>video</mediatype>
						<trackindex>1</trackindex>
						<clipindex>8</clipindex>
					</link>
					<link>
						<linkclipref>GN-L1-Tigt_1 3</linkclipref>
						<mediatype>audio</mediatype>
						<trackindex>1</trackindex>
						<clipindex>10</clipindex>
					</link>
					<link>
						<linkclipref>GN-L1-Tigt_1 4</linkclipref>
						<mediatype>audio</mediatype>
						<trackindex>2</trackindex>
						<clipindex>8</clipindex>
					</link>
					<fielddominance>upper</fielddominance>
					<itemhistory>
						<uuid>AA4C552D-12AD-43D0-88A9-0E4BA4125F22</uuid>
					</itemhistory>
				</clipitem>
				<clipitem id="GN-L1-Tigt_14 ">
					<name>GN-L1-Tigt_14</name>
					<duration>935</duration>
					<rate>
						<ntsc>TRUE</ntsc>
						<timebase>30</timebase>
					</rate>
					<in>375</in>
					<out>784</out>
					<start>7036</start>
					<end>7445</end>
					<pixelaspectratio>Square</pixelaspectratio>
					<anamorphic>FALSE</anamorphic>
					<alphatype>none</alphatype>
					<masterclipid>GN-L1-Tigt_14 1</masterclipid>
					<logginginfo>
						<scene/>
						<shottake/>
						<lognote/>
						<good>FALSE</good>
					</logginginfo>
					<labels>
						<label2/>
					</labels>
					<comments>
						<mastercomment1/>
						<mastercomment2/>
						<mastercomment3/>
						<mastercomment4/>
					</comments>
					<file id="GN-L1-Tigt_14 2">
						<name>GN-L1-Tigt_14.mov</name>
						<pathurl>file://localhost/Volumes/Xsan/ELEVATE/ELEVATE_FCP_Docs/Good_News_Kids/Capture_Scratch/BibleStories/L1/Location/GN-L1-Tigt_14.mov</pathurl>
						<rate>
							<timebase>30</timebase>
							<ntsc>TRUE</ntsc>
						</rate>
						<duration>935</duration>
						<timecode>
							<rate>
								<timebase>30</timebase>
								<ntsc>TRUE</ntsc>
							</rate>
							<string>10:51:53:28</string>
							<frame>1173418</frame>
							<displayformat>NDF</displayformat>
							<source>source</source>
							<reel>
								<name>2</name>
							</reel>
						</timecode>
						<media>
							<video>
								<duration>935</duration>
								<samplecharacteristics>
									<width>1920</width>
									<height>1080</height>
								</samplecharacteristics>
							</video>
							<audio>
								<samplecharacteristics>
									<samplerate>48000</samplerate>
									<depth>24</depth>
								</samplecharacteristics>
								<channelcount>1</channelcount>
							</audio>
							<audio>
								<samplecharacteristics>
									<samplerate>48000</samplerate>
									<depth>24</depth>
								</samplecharacteristics>
								<channelcount>1</channelcount>
							</audio>
						</media>
					</file>
					<sourcetrack>
						<mediatype>video</mediatype>
					</sourcetrack>
					<link>
						<linkclipref>GN-L1-Tigt_14 </linkclipref>
						<mediatype>video</mediatype>
						<trackindex>1</trackindex>
						<clipindex>9</clipindex>
					</link>
					<link>
						<linkclipref>GN-L1-Tigt_14 3</linkclipref>
						<mediatype>audio</mediatype>
						<trackindex>1</trackindex>
						<clipindex>11</clipindex>
					</link>
					<link>
						<linkclipref>GN-L1-Tigt_14 4</linkclipref>
						<mediatype>audio</mediatype>
						<trackindex>2</trackindex>
						<clipindex>9</clipindex>
					</link>
					<fielddominance>upper</fielddominance>
					<itemhistory>
						<uuid>93C4C0DB-DBAE-4E0D-975B-4D47815A39E9</uuid>
					</itemhistory>
				</clipitem>
				<clipitem id="GN.ST-L1-tigt_22 4">
					<name>GN.ST-L1-tigt_22</name>
					<duration>4013</duration>
					<rate>
						<ntsc>TRUE</ntsc>
						<timebase>30</timebase>
					</rate>
					<in>1455</in>
					<out>3884</out>
					<start>7445</start>
					<end>9874</end>
					<pixelaspectratio>Square</pixelaspectratio>
					<anamorphic>FALSE</anamorphic>
					<alphatype>none</alphatype>
					<logginginfo>
						<scene/>
						<shottake/>
						<lognote/>
						<good>FALSE</good>
					</logginginfo>
					<labels>
						<label2/>
					</labels>
					<comments>
						<mastercomment1/>
						<mastercomment2/>
						<mastercomment3/>
						<mastercomment4/>
					</comments>
					<file id="GN.ST-L1-tigt_22 1"/>
					<sourcetrack>
						<mediatype>video</mediatype>
					</sourcetrack>
					<link>
						<linkclipref>GN.ST-L1-tigt_22 4</linkclipref>
						<mediatype>video</mediatype>
						<trackindex>1</trackindex>
						<clipindex>10</clipindex>
					</link>
					<link>
						<linkclipref>GN.ST-L1-tigt_22 5</linkclipref>
						<mediatype>audio</mediatype>
						<trackindex>1</trackindex>
						<clipindex>12</clipindex>
					</link>
					<link>
						<linkclipref>GN.ST-L1-tigt_22 6</linkclipref>
						<mediatype>audio</mediatype>
						<trackindex>2</trackindex>
						<clipindex>10</clipindex>
					</link>
					<fielddominance>upper</fielddominance>
					<itemhistory>
						<uuid>7B54A536-DAAA-4330-8F89-9F0530BA780D</uuid>
					</itemhistory>
				</clipitem>
				<enabled>TRUE</enabled>
				<locked>TRUE</locked>
			</track>
			<track>
				<transitionitem>
					<rate>
						<ntsc>TRUE</ntsc>
						<timebase>30</timebase>
					</rate>
					<start>1240</start>
					<end>1270</end>
					<alignment>center</alignment>
					<effect>
						<name>Cross Dissolve</name>
						<effectid>Cross Dissolve</effectid>
						<effectcategory>Dissolve</effectcategory>
						<effecttype>transition</effecttype>
						<mediatype>video</mediatype>
						<wipecode>0</wipecode>
						<wipeaccuracy>100</wipeaccuracy>
						<startratio>0</startratio>
						<endratio>1</endratio>
						<reverse>FALSE</reverse>
					</effect>
				</transitionitem>
				<clipitem id="GN.ST-L1-wide_22 ">
					<name>GN.ST-L1-wide_22</name>
					<duration>3946</duration>
					<rate>
						<ntsc>TRUE</ntsc>
						<timebase>30</timebase>
					</rate>
					<in>259</in>
					<out>911</out>
					<start>-1</start>
					<end>-1</end>
					<pixelaspectratio>Square</pixelaspectratio>
					<enabled>TRUE</enabled>
					<anamorphic>FALSE</anamorphic>
					<alphatype>none</alphatype>
					<logginginfo>
						<scene/>
						<shottake/>
						<lognote/>
						<good>FALSE</good>
					</logginginfo>
					<labels>
						<label2/>
					</labels>
					<comments>
						<mastercomment1/>
						<mastercomment2/>
						<mastercomment3/>
						<mastercomment4/>
					</comments>
					<file id="GN.ST-L1-wide_22 1">
						<name>GN.ST-L1-wide_22.mov</name>
						<pathurl>file://localhost/Volumes/Xsan/ELEVATE/ELEVATE_FCP_Docs/Good_News_Kids/Capture_Scratch/BibleStories/L1/Studio/GN.ST-L1-wide_22.mov</pathurl>
						<rate>
							<timebase>30</timebase>
							<ntsc>TRUE</ntsc>
						</rate>
						<duration>3946</duration>
						<timecode>
							<rate>
								<timebase>30</timebase>
								<ntsc>TRUE</ntsc>
							</rate>
							<string>10:21:19:15</string>
							<frame>1118385</frame>
							<displayformat>NDF</displayformat>
							<source>source</source>
							<reel>
								<name>1</name>
							</reel>
						</timecode>
						<media>
							<video>
								<duration>3946</duration>
								<samplecharacteristics>
									<width>1920</width>
									<height>1080</height>
								</samplecharacteristics>
							</video>
							<audio>
								<samplecharacteristics>
									<samplerate>48000</samplerate>
									<depth>24</depth>
								</samplecharacteristics>
								<channelcount>1</channelcount>
							</audio>
							<audio>
								<samplecharacteristics>
									<samplerate>48000</samplerate>
									<depth>24</depth>
								</samplecharacteristics>
								<channelcount>1</channelcount>
							</audio>
						</media>
					</file>
					<sourcetrack>
						<mediatype>video</mediatype>
					</sourcetrack>
					<link>
						<linkclipref>GN.ST-L1-wide_22 </linkclipref>
						<mediatype>video</mediatype>
						<trackindex>2</trackindex>
						<clipindex>2</clipindex>
					</link>
					<link>
						<linkclipref>GN.ST-L1-wide_22 2</linkclipref>
						<mediatype>audio</mediatype>
						<trackindex>3</trackindex>
						<clipindex>1</clipindex>
					</link>
					<link>
						<linkclipref>GN.ST-L1-wide_22 3</linkclipref>
						<mediatype>audio</mediatype>
						<trackindex>4</trackindex>
						<clipindex>1</clipindex>
					</link>
					<fielddominance>upper</fielddominance>
					<itemhistory>
						<uuid>AF6B8537-4022-4FDF-AA60-71672C06C8EA</uuid>
					</itemhistory>
				</clipitem>
				<transitionitem>
					<rate>
						<ntsc>TRUE</ntsc>
						<timebase>30</timebase>
					</rate>
					<start>1872</start>
					<end>1892</end>
					<alignment>center</alignment>
					<effect>
						<name>Dip to Color Dissolve</name>
						<effectid>Dip to Color Dissolve</effectid>
						<effectcategory>Dissolve</effectcategory>
						<effecttype>transition</effecttype>
						<mediatype>video</mediatype>
						<wipecode>0</wipecode>
						<wipeaccuracy>100</wipeaccuracy>
						<startratio>0</startratio>
						<endratio>1</endratio>
						<reverse>FALSE</reverse>
						<parameter>
							<parameterid>threshold</parameterid>
							<name>Threshold</name>
							<valuemin>0</valuemin>
							<valuemax>100</valuemax>
							<value>50</value>
						</parameter>
						<parameter>
							<parameterid>soft</parameterid>
							<name>Soft</name>
							<valuemin>0</valuemin>
							<valuemax>100</valuemax>
							<value>100</value>
						</parameter>
						<parameter>
							<parameterid>dipcolor</parameterid>
							<name>Color</name>
							<value>
								<alpha>255</alpha>
								<red>255</red>
								<green>255</green>
								<blue>255</blue>
							</value>
						</parameter>
					</effect>
				</transitionitem>
				<clipitem id="GN-L1-Wide_3 ">
					<name>GN-L1-Wide_3</name>
					<duration>2218</duration>
					<rate>
						<ntsc>TRUE</ntsc>
						<timebase>30</timebase>
					</rate>
					<in>264</in>
					<out>2081</out>
					<start>-1</start>
					<end>3689</end>
					<pixelaspectratio>Square</pixelaspectratio>
					<enabled>TRUE</enabled>
					<anamorphic>FALSE</anamorphic>
					<alphatype>none</alphatype>
					<masterclipid>GN-L1-Wide_3 1</masterclipid>
					<logginginfo>
						<scene/>
						<shottake/>
						<lognote/>
						<good>FALSE</good>
					</logginginfo>
					<labels>
						<label2/>
					</labels>
					<comments>
						<mastercomment1/>
						<mastercomment2/>
						<mastercomment3/>
						<mastercomment4/>
					</comments>
					<file id="GN-L1-Wide_3 2">
						<name>GN-L1-Wide_3.mov</name>
						<pathurl>file://localhost/Volumes/Xsan/ELEVATE/ELEVATE_FCP_Docs/Good_News_Kids/Capture_Scratch/BibleStories/L1/Location/GN-L1-Wide_3.mov</pathurl>
						<rate>
							<timebase>30</timebase>
							<ntsc>TRUE</ntsc>
						</rate>
						<duration>2218</duration>
						<timecode>
							<rate>
								<timebase>30</timebase>
								<ntsc>TRUE</ntsc>
							</rate>
							<string>10:12:05:25</string>
							<frame>1101775</frame>
							<displayformat>NDF</displayformat>
							<source>source</source>
							<reel>
								<name>1</name>
							</reel>
						</timecode>
						<media>
							<video>
								<duration>2218</duration>
								<samplecharacteristics>
									<width>1920</width>
									<height>1080</height>
								</samplecharacteristics>
							</video>
							<audio>
								<samplecharacteristics>
									<samplerate>48000</samplerate>
									<depth>24</depth>
								</samplecharacteristics>
								<channelcount>1</channelcount>
							</audio>
							<audio>
								<samplecharacteristics>
									<samplerate>48000</samplerate>
									<depth>24</depth>
								</samplecharacteristics>
								<channelcount>1</channelcount>
							</audio>
						</media>
					</file>
					<sourcetrack>
						<mediatype>video</mediatype>
					</sourcetrack>
					<link>
						<linkclipref>GN-L1-Wide_3 </linkclipref>
						<mediatype>video</mediatype>
						<trackindex>2</trackindex>
						<clipindex>4</clipindex>
					</link>
					<link>
						<linkclipref>GN-L1-Wide_3 3</linkclipref>
						<mediatype>audio</mediatype>
						<trackindex>3</trackindex>
						<clipindex>2</clipindex>
					</link>
					<link>
						<linkclipref>GN-L1-Wide_3 4</linkclipref>
						<mediatype>audio</mediatype>
						<trackindex>4</trackindex>
						<clipindex>2</clipindex>
					</link>
					<fielddominance>upper</fielddominance>
					<itemhistory>
						<uuid>DEB8B306-FC87-421A-BECC-86DD8E33133A</uuid>
					</itemhistory>
				</clipitem>
				<clipitem id="GN-L1-Wide_5 ">
					<name>GN-L1-Wide_5</name>
					<duration>4316</duration>
					<rate>
						<ntsc>TRUE</ntsc>
						<timebase>30</timebase>
					</rate>
					<in>348</in>
					<out>1118</out>
					<start>3689</start>
					<end>4459</end>
					<pixelaspectratio>Square</pixelaspectratio>
					<anamorphic>FALSE</anamorphic>
					<alphatype>none</alphatype>
					<masterclipid>GN-L1-Wide_5 1</masterclipid>
					<logginginfo>
						<scene/>
						<shottake/>
						<lognote/>
						<good>FALSE</good>
					</logginginfo>
					<labels>
						<label2/>
					</labels>
					<comments>
						<mastercomment1/>
						<mastercomment2/>
						<mastercomment3/>
						<mastercomment4/>
					</comments>
					<file id="GN-L1-Wide_5 2">
						<name>GN-L1-Wide_5.mov</name>
						<pathurl>file://localhost/Volumes/Xsan/ELEVATE/ELEVATE_FCP_Docs/Good_News_Kids/Capture_Scratch/BibleStories/L1/Location/GN-L1-Wide_5.mov</pathurl>
						<rate>
							<timebase>30</timebase>
							<ntsc>TRUE</ntsc>
						</rate>
						<duration>4316</duration>
						<timecode>
							<rate>
								<timebase>30</timebase>
								<ntsc>TRUE</ntsc>
							</rate>
							<string>10:26:59:06</string>
							<frame>1128576</frame>
							<displayformat>NDF</displayformat>
							<source>source</source>
							<reel>
								<name>1</name>
							</reel>
						</timecode>
						<media>
							<video>
								<duration>4316</duration>
								<samplecharacteristics>
									<width>1920</width>
									<height>1080</height>
								</samplecharacteristics>
							</video>
							<audio>
								<samplecharacteristics>
									<samplerate>48000</samplerate>
									<depth>24</depth>
								</samplecharacteristics>
								<channelcount>1</channelcount>
							</audio>
							<audio>
								<samplecharacteristics>
									<samplerate>48000</samplerate>
									<depth>24</depth>
								</samplecharacteristics>
								<channelcount>1</channelcount>
							</audio>
						</media>
					</file>
					<sourcetrack>
						<mediatype>video</mediatype>
					</sourcetrack>
					<link>
						<linkclipref>GN-L1-Wide_5 </linkclipref>
						<mediatype>video</mediatype>
						<trackindex>2</trackindex>
						<clipindex>5</clipindex>
					</link>
					<link>
						<linkclipref>GN-L1-Wide_5 3</linkclipref>
						<mediatype>audio</mediatype>
						<trackindex>3</trackindex>
						<clipindex>3</clipindex>
					</link>
					<link>
						<linkclipref>GN-L1-Wide_5 4</linkclipref>
						<mediatype>audio</mediatype>
						<trackindex>4</trackindex>
						<clipindex>3</clipindex>
					</link>
					<fielddominance>upper</fielddominance>
					<itemhistory>
						<uuid>C283D31E-859C-42A1-B6F2-D2A46DDC22D8</uuid>
					</itemhistory>
				</clipitem>
				<clipitem id="GN-L1-Wide_5 5">
					<name>GN-L1-Wide_5</name>
					<duration>4316</duration>
					<rate>
						<ntsc>TRUE</ntsc>
						<timebase>30</timebase>
					</rate>
					<in>1200</in>
					<out>1880</out>
					<start>4459</start>
					<end>5139</end>
					<pixelaspectratio>Square</pixelaspectratio>
					<anamorphic>FALSE</anamorphic>
					<alphatype>none</alphatype>
					<masterclipid>GN-L1-Wide_5 1</masterclipid>
					<logginginfo>
						<scene/>
						<shottake/>
						<lognote/>
						<good>FALSE</good>
					</logginginfo>
					<labels>
						<label2/>
					</labels>
					<comments>
						<mastercomment1/>
						<mastercomment2/>
						<mastercomment3/>
						<mastercomment4/>
					</comments>
					<file id="GN-L1-Wide_5 2"/>
					<sourcetrack>
						<mediatype>video</mediatype>
					</sourcetrack>
					<link>
						<linkclipref>GN-L1-Wide_5 5</linkclipref>
						<mediatype>video</mediatype>
						<trackindex>2</trackindex>
						<clipindex>6</clipindex>
					</link>
					<link>
						<linkclipref>GN-L1-Wide_5 6</linkclipref>
						<mediatype>audio</mediatype>
						<trackindex>3</trackindex>
						<clipindex>4</clipindex>
					</link>
					<link>
						<linkclipref>GN-L1-Wide_5 7</linkclipref>
						<mediatype>audio</mediatype>
						<trackindex>4</trackindex>
						<clipindex>4</clipindex>
					</link>
					<fielddominance>upper</fielddominance>
					<itemhistory>
						<uuid>5EA49F38-0F95-47B5-A869-A432C3CB5F75</uuid>
					</itemhistory>
				</clipitem>
				<clipitem id="GN-L1-Wide_5 8">
					<name>GN-L1-Wide_5</name>
					<duration>4316</duration>
					<rate>
						<ntsc>TRUE</ntsc>
						<timebase>30</timebase>
					</rate>
					<in>3995</in>
					<out>4190</out>
					<start>5139</start>
					<end>5334</end>
					<pixelaspectratio>Square</pixelaspectratio>
					<anamorphic>FALSE</anamorphic>
					<alphatype>none</alphatype>
					<masterclipid>GN-L1-Wide_5 1</masterclipid>
					<logginginfo>
						<scene/>
						<shottake/>
						<lognote/>
						<good>FALSE</good>
					</logginginfo>
					<labels>
						<label2/>
					</labels>
					<comments>
						<mastercomment1/>
						<mastercomment2/>
						<mastercomment3/>
						<mastercomment4/>
					</comments>
					<file id="GN-L1-Wide_5 2"/>
					<sourcetrack>
						<mediatype>video</mediatype>
					</sourcetrack>
					<link>
						<linkclipref>GN-L1-Wide_5 8</linkclipref>
						<mediatype>video</mediatype>
						<trackindex>2</trackindex>
						<clipindex>7</clipindex>
					</link>
					<link>
						<linkclipref>GN-L1-Wide_5 9</linkclipref>
						<mediatype>audio</mediatype>
						<trackindex>3</trackindex>
						<clipindex>5</clipindex>
					</link>
					<link>
						<linkclipref>GN-L1-Wide_5 10</linkclipref>
						<mediatype>audio</mediatype>
						<trackindex>4</trackindex>
						<clipindex>5</clipindex>
					</link>
					<fielddominance>upper</fielddominance>
					<itemhistory>
						<uuid>4B3FF130-9400-43DE-A7DA-915F11C91A04</uuid>
					</itemhistory>
				</clipitem>
				<clipitem id="GN-L1-Wide_8 ">
					<name>GN-L1-Wide_8</name>
					<duration>981</duration>
					<rate>
						<ntsc>TRUE</ntsc>
						<timebase>30</timebase>
					</rate>
					<in>242</in>
					<out>875</out>
					<start>5334</start>
					<end>5967</end>
					<pixelaspectratio>Square</pixelaspectratio>
					<anamorphic>FALSE</anamorphic>
					<alphatype>none</alphatype>
					<masterclipid>GN-L1-Wide_8 1</masterclipid>
					<logginginfo>
						<scene/>
						<shottake/>
						<lognote/>
						<good>FALSE</good>
					</logginginfo>
					<labels>
						<label2/>
					</labels>
					<comments>
						<mastercomment1/>
						<mastercomment2/>
						<mastercomment3/>
						<mastercomment4/>
					</comments>
					<file id="GN-L1-Wide_8 2">
						<name>GN-L1-Wide_8.mov</name>
						<pathurl>file://localhost/Volumes/Xsan/ELEVATE/ELEVATE_FCP_Docs/Good_News_Kids/Capture_Scratch/BibleStories/L1/Location/GN-L1-Wide_8.mov</pathurl>
						<rate>
							<timebase>30</timebase>
							<ntsc>TRUE</ntsc>
						</rate>
						<duration>981</duration>
						<timecode>
							<rate>
								<timebase>30</timebase>
								<ntsc>TRUE</ntsc>
							</rate>
							<string>10:38:09:07</string>
							<frame>1148677</frame>
							<displayformat>NDF</displayformat>
							<source>source</source>
							<reel>
								<name>1</name>
							</reel>
						</timecode>
						<media>
							<video>
								<duration>981</duration>
								<samplecharacteristics>
									<width>1920</width>
									<height>1080</height>
								</samplecharacteristics>
							</video>
							<audio>
								<samplecharacteristics>
									<samplerate>48000</samplerate>
									<depth>24</depth>
								</samplecharacteristics>
								<channelcount>1</channelcount>
							</audio>
							<audio>
								<samplecharacteristics>
									<samplerate>48000</samplerate>
									<depth>24</depth>
								</samplecharacteristics>
								<channelcount>1</channelcount>
							</audio>
						</media>
					</file>
					<sourcetrack>
						<mediatype>video</mediatype>
					</sourcetrack>
					<link>
						<linkclipref>GN-L1-Wide_8 </linkclipref>
						<mediatype>video</mediatype>
						<trackindex>2</trackindex>
						<clipindex>8</clipindex>
					</link>
					<link>
						<linkclipref>GN-L1-Wide_8 3</linkclipref>
						<mediatype>audio</mediatype>
						<trackindex>3</trackindex>
						<clipindex>6</clipindex>
					</link>
					<link>
						<linkclipref>GN-L1-Wide_8 4</linkclipref>
						<mediatype>audio</mediatype>
						<trackindex>4</trackindex>
						<clipindex>6</clipindex>
					</link>
					<fielddominance>upper</fielddominance>
					<itemhistory>
						<uuid>EE43BEFE-74A0-408E-B11C-2447B0259B72</uuid>
					</itemhistory>
				</clipitem>
				<clipitem id="GN-L1-Wide_11 ">
					<name>GN-L1-Wide_11</name>
					<duration>1333</duration>
					<rate>
						<ntsc>TRUE</ntsc>
						<timebase>30</timebase>
					</rate>
					<in>351</in>
					<out>1229</out>
					<start>6158</start>
					<end>7036</end>
					<pixelaspectratio>Square</pixelaspectratio>
					<enabled>TRUE</enabled>
					<anamorphic>FALSE</anamorphic>
					<alphatype>none</alphatype>
					<masterclipid>GN-L1-Wide_11 1</masterclipid>
					<logginginfo>
						<scene/>
						<shottake/>
						<lognote/>
						<good>FALSE</good>
					</logginginfo>
					<labels>
						<label2/>
					</labels>
					<comments>
						<mastercomment1/>
						<mastercomment2/>
						<mastercomment3/>
						<mastercomment4/>
					</comments>
					<file id="GN-L1-Wide_11 2">
						<name>GN-L1-Wide_11.mov</name>
						<pathurl>file://localhost/Volumes/Xsan/ELEVATE/ELEVATE_FCP_Docs/Good_News_Kids/Capture_Scratch/BibleStories/L1/Location/GN-L1-Wide_11.mov</pathurl>
						<rate>
							<timebase>30</timebase>
							<ntsc>TRUE</ntsc>
						</rate>
						<duration>1333</duration>
						<timecode>
							<rate>
								<timebase>30</timebase>
								<ntsc>TRUE</ntsc>
							</rate>
							<string>10:46:01:07</string>
							<frame>1162837</frame>
							<displayformat>NDF</displayformat>
							<source>source</source>
							<reel>
								<name>1</name>
							</reel>
						</timecode>
						<media>
							<video>
								<duration>1333</duration>
								<samplecharacteristics>
									<width>1920</width>
									<height>1080</height>
								</samplecharacteristics>
							</video>
							<audio>
								<samplecharacteristics>
									<samplerate>48000</samplerate>
									<depth>24</depth>
								</samplecharacteristics>
								<channelcount>1</channelcount>
							</audio>
							<audio>
								<samplecharacteristics>
									<samplerate>48000</samplerate>
									<depth>24</depth>
								</samplecharacteristics>
								<channelcount>1</channelcount>
							</audio>
						</media>
					</file>
					<sourcetrack>
						<mediatype>video</mediatype>
					</sourcetrack>
					<link>
						<linkclipref>GN-L1-Wide_11 </linkclipref>
						<mediatype>video</mediatype>
						<trackindex>2</trackindex>
						<clipindex>9</clipindex>
					</link>
					<link>
						<linkclipref>GN-L1-Wide_11 3</linkclipref>
						<mediatype>audio</mediatype>
						<trackindex>3</trackindex>
						<clipindex>7</clipindex>
					</link>
					<link>
						<linkclipref>GN-L1-Wide_11 4</linkclipref>
						<mediatype>audio</mediatype>
						<trackindex>4</trackindex>
						<clipindex>7</clipindex>
					</link>
					<fielddominance>upper</fielddominance>
					<itemhistory>
						<uuid>4B485609-9537-48CB-AB3B-B44DF11E29B8</uuid>
					</itemhistory>
				</clipitem>
				<clipitem id="GN-L1-Wide_14 ">
					<name>GN-L1-Wide_14</name>
					<duration>871</duration>
					<rate>
						<ntsc>TRUE</ntsc>
						<timebase>30</timebase>
					</rate>
					<in>294</in>
					<out>713</out>
					<start>7036</start>
					<end>-1</end>
					<pixelaspectratio>Square</pixelaspectratio>
					<anamorphic>FALSE</anamorphic>
					<alphatype>none</alphatype>
					<masterclipid>GN-L1-Wide_14 1</masterclipid>
					<logginginfo>
						<scene/>
						<shottake/>
						<lognote/>
						<good>FALSE</good>
					</logginginfo>
					<labels>
						<label2/>
					</labels>
					<comments>
						<mastercomment1/>
						<mastercomment2/>
						<mastercomment3/>
						<mastercomment4/>
					</comments>
					<file id="GN-L1-Wide_14 2">
						<name>GN-L1-Wide_14.mov</name>
						<pathurl>file://localhost/Volumes/Xsan/ELEVATE/ELEVATE_FCP_Docs/Good_News_Kids/Capture_Scratch/BibleStories/L1/Location/GN-L1-Wide_14.mov</pathurl>
						<rate>
							<timebase>30</timebase>
							<ntsc>TRUE</ntsc>
						</rate>
						<duration>871</duration>
						<timecode>
							<rate>
								<timebase>30</timebase>
								<ntsc>TRUE</ntsc>
							</rate>
							<string>10:51:56:19</string>
							<frame>1173499</frame>
							<displayformat>NDF</displayformat>
							<source>source</source>
							<reel>
								<name>1</name>
							</reel>
						</timecode>
						<media>
							<video>
								<duration>871</duration>
								<samplecharacteristics>
									<width>1920</width>
									<height>1080</height>
								</samplecharacteristics>
							</video>
							<audio>
								<samplecharacteristics>
									<samplerate>48000</samplerate>
									<depth>24</depth>
								</samplecharacteristics>
								<channelcount>1</channelcount>
							</audio>
							<audio>
								<samplecharacteristics>
									<samplerate>48000</samplerate>
									<depth>24</depth>
								</samplecharacteristics>
								<channelcount>1</channelcount>
							</audio>
						</media>
					</file>
					<sourcetrack>
						<mediatype>video</mediatype>
					</sourcetrack>
					<link>
						<linkclipref>GN-L1-Wide_14 </linkclipref>
						<mediatype>video</mediatype>
						<trackindex>2</trackindex>
						<clipindex>10</clipindex>
					</link>
					<link>
						<linkclipref>GN-L1-Wide_14 3</linkclipref>
						<mediatype>audio</mediatype>
						<trackindex>3</trackindex>
						<clipindex>8</clipindex>
					</link>
					<link>
						<linkclipref>GN-L1-Wide_14 4</linkclipref>
						<mediatype>audio</mediatype>
						<trackindex>4</trackindex>
						<clipindex>8</clipindex>
					</link>
					<fielddominance>upper</fielddominance>
					<itemhistory>
						<uuid>83C99B5E-CBB2-4EF6-A594-3288CB5DF8F9</uuid>
					</itemhistory>
				</clipitem>
				<transitionitem>
					<rate>
						<ntsc>TRUE</ntsc>
						<timebase>30</timebase>
					</rate>
					<start>7435</start>
					<end>7455</end>
					<alignment>center</alignment>
					<effect>
						<name>Dip to Color Dissolve</name>
						<effectid>Dip to Color Dissolve</effectid>
						<effectcategory>Dissolve</effectcategory>
						<effecttype>transition</effecttype>
						<mediatype>video</mediatype>
						<wipecode>0</wipecode>
						<wipeaccuracy>100</wipeaccuracy>
						<startratio>0</startratio>
						<endratio>1</endratio>
						<reverse>FALSE</reverse>
						<parameter>
							<parameterid>threshold</parameterid>
							<name>Threshold</name>
							<valuemin>0</valuemin>
							<valuemax>100</valuemax>
							<value>50</value>
						</parameter>
						<parameter>
							<parameterid>soft</parameterid>
							<name>Soft</name>
							<valuemin>0</valuemin>
							<valuemax>100</valuemax>
							<value>100</value>
						</parameter>
						<parameter>
							<parameterid>dipcolor</parameterid>
							<name>Color</name>
							<value>
								<alpha>255</alpha>
								<red>255</red>
								<green>255</green>
								<blue>255</blue>
							</value>
						</parameter>
					</effect>
				</transitionitem>
				<clipitem id="GN.ST-L1-wide_22 4">
					<name>GN.ST-L1-wide_22</name>
					<duration>3946</duration>
					<rate>
						<ntsc>TRUE</ntsc>
						<timebase>30</timebase>
					</rate>
					<in>1425</in>
					<out>3864</out>
					<start>-1</start>
					<end>9874</end>
					<pixelaspectratio>Square</pixelaspectratio>
					<enabled>TRUE</enabled>
					<anamorphic>FALSE</anamorphic>
					<alphatype>none</alphatype>
					<logginginfo>
						<scene/>
						<shottake/>
						<lognote/>
						<good>FALSE</good>
					</logginginfo>
					<labels>
						<label2/>
					</labels>
					<comments>
						<mastercomment1/>
						<mastercomment2/>
						<mastercomment3/>
						<mastercomment4/>
					</comments>
					<file id="GN.ST-L1-wide_22 1"/>
					<sourcetrack>
						<mediatype>video</mediatype>
					</sourcetrack>
					<link>
						<linkclipref>GN.ST-L1-wide_22 4</linkclipref>
						<mediatype>video</mediatype>
						<trackindex>2</trackindex>
						<clipindex>12</clipindex>
					</link>
					<link>
						<linkclipref>GN.ST-L1-wide_22 5</linkclipref>
						<mediatype>audio</mediatype>
						<trackindex>3</trackindex>
						<clipindex>9</clipindex>
					</link>
					<link>
						<linkclipref>GN.ST-L1-wide_22 6</linkclipref>
						<mediatype>audio</mediatype>
						<trackindex>4</trackindex>
						<clipindex>9</clipindex>
					</link>
					<fielddominance>upper</fielddominance>
					<itemhistory>
						<uuid>652A6177-A4AD-4EC3-B3C7-543E2779ECFC</uuid>
					</itemhistory>
				</clipitem>
				<enabled>TRUE</enabled>
				<locked>TRUE</locked>
			</track>
			<track>
				<generatoritem id="Text">
					<name>Text</name>
					<duration>3600</duration>
					<rate>
						<ntsc>TRUE</ntsc>
						<timebase>30</timebase>
					</rate>
					<in>697</in>
					<out>1857</out>
					<start>0</start>
					<end>-1</end>
					<enabled>TRUE</enabled>
					<anamorphic>FALSE</anamorphic>
					<alphatype>black</alphatype>
					<effect>
						<name>Text</name>
						<effectid>Text</effectid>
						<effectcategory>Text</effectcategory>
						<effecttype>generator</effecttype>
						<mediatype>video</mediatype>
						<parameter>
							<parameterid>str</parameterid>
							<name>Text</name>
							<value>Narrative Intro&#13; &amp; Pictures</value>
						</parameter>
						<parameter>
							<parameterid>fontname</parameterid>
							<name>Font</name>
							<value>Lucida Grande</value>
						</parameter>
						<parameter>
							<parameterid>fontsize</parameterid>
							<name>Size</name>
							<valuemin>0</valuemin>
							<valuemax>1000</valuemax>
							<value>36</value>
						</parameter>
						<parameter>
							<parameterid>fontstyle</parameterid>
							<name>Style</name>
							<valuemin>1</valuemin>
							<valuemax>4</valuemax>
							<valuelist>
								<valueentry>
									<name>Plain</name>
									<value>1</value>
								</valueentry>
								<valueentry>
									<name>Bold</name>
									<value>2</value>
								</valueentry>
								<valueentry>
									<name>Italic</name>
									<value>3</value>
								</valueentry>
								<valueentry>
									<name>Bold/Italic</name>
									<value>4</value>
								</valueentry>
							</valuelist>
							<value>1</value>
						</parameter>
						<parameter>
							<parameterid>fontalign</parameterid>
							<name>Alignment</name>
							<valuemin>1</valuemin>
							<valuemax>3</valuemax>
							<valuelist>
								<valueentry>
									<name>Left</name>
									<value>1</value>
								</valueentry>
								<valueentry>
									<name>Center</name>
									<value>2</value>
								</valueentry>
								<valueentry>
									<name>Right</name>
									<value>3</value>
								</valueentry>
							</valuelist>
							<value>2</value>
						</parameter>
						<parameter>
							<parameterid>fontcolor</parameterid>
							<name>Font Color</name>
							<value>
								<alpha>255</alpha>
								<red>255</red>
								<green>255</green>
								<blue>255</blue>
							</value>
						</parameter>
						<parameter>
							<parameterid>origin</parameterid>
							<name>Origin</name>
							<value>
								<horiz>0</horiz>
								<vert>0</vert>
							</value>
						</parameter>
						<parameter>
							<parameterid>fonttrack</parameterid>
							<name>Tracking</name>
							<valuemin>-200</valuemin>
							<valuemax>200</valuemax>
							<value>1</value>
						</parameter>
						<parameter>
							<parameterid>leading</parameterid>
							<name>Leading</name>
							<valuemin>-100</valuemin>
							<valuemax>100</valuemax>
							<value>0</value>
						</parameter>
						<parameter>
							<parameterid>aspect</parameterid>
							<name>Aspect</name>
							<valuemin>0.1</valuemin>
							<valuemax>5</valuemax>
							<value>1</value>
						</parameter>
						<parameter>
							<parameterid>autokern</parameterid>
							<name>Auto Kerning</name>
							<value>TRUE</value>
						</parameter>
						<parameter>
							<parameterid>subpixel</parameterid>
							<name>Use Subpixel</name>
							<value>TRUE</value>
						</parameter>
					</effect>
					<sourcetrack>
						<mediatype>video</mediatype>
					</sourcetrack>
					<itemhistory>
						<uuid>6384EAC9-55EE-4525-8592-D3076EF29255</uuid>
					</itemhistory>
				</generatoritem>
				<transitionitem>
					<rate>
						<ntsc>TRUE</ntsc>
						<timebase>30</timebase>
					</rate>
					<start>1130</start>
					<end>1160</end>
					<alignment>center</alignment>
					<effect>
						<name>Cross Dissolve</name>
						<effectid>Cross Dissolve</effectid>
						<effectcategory>Dissolve</effectcategory>
						<effecttype>transition</effecttype>
						<mediatype>video</mediatype>
						<wipecode>0</wipecode>
						<wipeaccuracy>100</wipeaccuracy>
						<startratio>0</startratio>
						<endratio>1</endratio>
						<reverse>FALSE</reverse>
					</effect>
				</transitionitem>
				<generatoritem id="Text1">
					<name>Text</name>
					<duration>3600</duration>
					<rate>
						<ntsc>TRUE</ntsc>
						<timebase>30</timebase>
					</rate>
					<in>1615</in>
					<out>1755</out>
					<start>-1</start>
					<end>-1</end>
					<enabled>TRUE</enabled>
					<anamorphic>FALSE</anamorphic>
					<alphatype>black</alphatype>
					<effect>
						<name>Text</name>
						<effectid>Text</effectid>
						<effectcategory>Text</effectcategory>
						<effecttype>generator</effecttype>
						<mediatype>video</mediatype>
						<parameter>
							<parameterid>str</parameterid>
							<name>Text</name>
							<value>3-5 Second&#13;"Good News"&#13;Logo &amp; Theme Music&#13;</value>
						</parameter>
						<parameter>
							<parameterid>fontname</parameterid>
							<name>Font</name>
							<value>Lucida Grande</value>
						</parameter>
						<parameter>
							<parameterid>fontsize</parameterid>
							<name>Size</name>
							<valuemin>0</valuemin>
							<valuemax>1000</valuemax>
							<value>36</value>
						</parameter>
						<parameter>
							<parameterid>fontstyle</parameterid>
							<name>Style</name>
							<valuemin>1</valuemin>
							<valuemax>4</valuemax>
							<valuelist>
								<valueentry>
									<name>Plain</name>
									<value>1</value>
								</valueentry>
								<valueentry>
									<name>Bold</name>
									<value>2</value>
								</valueentry>
								<valueentry>
									<name>Italic</name>
									<value>3</value>
								</valueentry>
								<valueentry>
									<name>Bold/Italic</name>
									<value>4</value>
								</valueentry>
							</valuelist>
							<value>1</value>
						</parameter>
						<parameter>
							<parameterid>fontalign</parameterid>
							<name>Alignment</name>
							<valuemin>1</valuemin>
							<valuemax>3</valuemax>
							<valuelist>
								<valueentry>
									<name>Left</name>
									<value>1</value>
								</valueentry>
								<valueentry>
									<name>Center</name>
									<value>2</value>
								</valueentry>
								<valueentry>
									<name>Right</name>
									<value>3</value>
								</valueentry>
							</valuelist>
							<value>2</value>
						</parameter>
						<parameter>
							<parameterid>fontcolor</parameterid>
							<name>Font Color</name>
							<value>
								<alpha>255</alpha>
								<red>255</red>
								<green>255</green>
								<blue>255</blue>
							</value>
						</parameter>
						<parameter>
							<parameterid>origin</parameterid>
							<name>Origin</name>
							<value>
								<horiz>0</horiz>
								<vert>0</vert>
							</value>
						</parameter>
						<parameter>
							<parameterid>fonttrack</parameterid>
							<name>Tracking</name>
							<valuemin>-200</valuemin>
							<valuemax>200</valuemax>
							<value>1</value>
						</parameter>
						<parameter>
							<parameterid>leading</parameterid>
							<name>Leading</name>
							<valuemin>-100</valuemin>
							<valuemax>100</valuemax>
							<value>0</value>
						</parameter>
						<parameter>
							<parameterid>aspect</parameterid>
							<name>Aspect</name>
							<valuemin>0.1</valuemin>
							<valuemax>5</valuemax>
							<value>1</value>
						</parameter>
						<parameter>
							<parameterid>autokern</parameterid>
							<name>Auto Kerning</name>
							<value>TRUE</value>
						</parameter>
						<parameter>
							<parameterid>subpixel</parameterid>
							<name>Use Subpixel</name>
							<value>TRUE</value>
						</parameter>
					</effect>
					<sourcetrack>
						<mediatype>video</mediatype>
					</sourcetrack>
					<itemhistory>
						<uuid>7A835BE5-D0A0-4316-8D5A-C37E33FA42C5</uuid>
					</itemhistory>
				</generatoritem>
				<transitionitem>
					<rate>
						<ntsc>TRUE</ntsc>
						<timebase>30</timebase>
					</rate>
					<start>1240</start>
					<end>1270</end>
					<alignment>center</alignment>
					<effect>
						<name>Cross Dissolve</name>
						<effectid>Cross Dissolve</effectid>
						<effectcategory>Dissolve</effectcategory>
						<effecttype>transition</effecttype>
						<mediatype>video</mediatype>
						<wipecode>0</wipecode>
						<wipeaccuracy>100</wipeaccuracy>
						<startratio>0</startratio>
						<endratio>1</endratio>
						<reverse>FALSE</reverse>
					</effect>
				</transitionitem>
				<transitionitem>
					<rate>
						<ntsc>TRUE</ntsc>
						<timebase>30</timebase>
					</rate>
					<start>9826</start>
					<end>9856</end>
					<alignment>center</alignment>
					<effect>
						<name>Cross Dissolve</name>
						<effectid>Cross Dissolve</effectid>
						<effectcategory>Dissolve</effectcategory>
						<effecttype>transition</effecttype>
						<mediatype>video</mediatype>
						<wipecode>0</wipecode>
						<wipeaccuracy>100</wipeaccuracy>
						<startratio>0</startratio>
						<endratio>1</endratio>
						<reverse>FALSE</reverse>
					</effect>
				</transitionitem>
				<generatoritem id="Text2">
					<name>Text</name>
					<duration>3600</duration>
					<rate>
						<ntsc>TRUE</ntsc>
						<timebase>30</timebase>
					</rate>
					<in>1615</in>
					<out>1740</out>
					<start>-1</start>
					<end>9951</end>
					<enabled>TRUE</enabled>
					<anamorphic>FALSE</anamorphic>
					<alphatype>black</alphatype>
					<effect>
						<name>Text</name>
						<effectid>Text</effectid>
						<effectcategory>Text</effectcategory>
						<effecttype>generator</effecttype>
						<mediatype>video</mediatype>
						<parameter>
							<parameterid>str</parameterid>
							<name>Text</name>
							<value>3-5 Second&#13;"Good News"&#13;Logo &amp; Theme Music&#13;</value>
						</parameter>
						<parameter>
							<parameterid>fontname</parameterid>
							<name>Font</name>
							<value>Lucida Grande</value>
						</parameter>
						<parameter>
							<parameterid>fontsize</parameterid>
							<name>Size</name>
							<valuemin>0</valuemin>
							<valuemax>1000</valuemax>
							<value>36</value>
						</parameter>
						<parameter>
							<parameterid>fontstyle</parameterid>
							<name>Style</name>
							<valuemin>1</valuemin>
							<valuemax>4</valuemax>
							<valuelist>
								<valueentry>
									<name>Plain</name>
									<value>1</value>
								</valueentry>
								<valueentry>
									<name>Bold</name>
									<value>2</value>
								</valueentry>
								<valueentry>
									<name>Italic</name>
									<value>3</value>
								</valueentry>
								<valueentry>
									<name>Bold/Italic</name>
									<value>4</value>
								</valueentry>
							</valuelist>
							<value>1</value>
						</parameter>
						<parameter>
							<parameterid>fontalign</parameterid>
							<name>Alignment</name>
							<valuemin>1</valuemin>
							<valuemax>3</valuemax>
							<valuelist>
								<valueentry>
									<name>Left</name>
									<value>1</value>
								</valueentry>
								<valueentry>
									<name>Center</name>
									<value>2</value>
								</valueentry>
								<valueentry>
									<name>Right</name>
									<value>3</value>
								</valueentry>
							</valuelist>
							<value>2</value>
						</parameter>
						<parameter>
							<parameterid>fontcolor</parameterid>
							<name>Font Color</name>
							<value>
								<alpha>255</alpha>
								<red>255</red>
								<green>255</green>
								<blue>255</blue>
							</value>
						</parameter>
						<parameter>
							<parameterid>origin</parameterid>
							<name>Origin</name>
							<value>
								<horiz>0</horiz>
								<vert>0</vert>
							</value>
						</parameter>
						<parameter>
							<parameterid>fonttrack</parameterid>
							<name>Tracking</name>
							<valuemin>-200</valuemin>
							<valuemax>200</valuemax>
							<value>1</value>
						</parameter>
						<parameter>
							<parameterid>leading</parameterid>
							<name>Leading</name>
							<valuemin>-100</valuemin>
							<valuemax>100</valuemax>
							<value>0</value>
						</parameter>
						<parameter>
							<parameterid>aspect</parameterid>
							<name>Aspect</name>
							<valuemin>0.1</valuemin>
							<valuemax>5</valuemax>
							<value>1</value>
						</parameter>
						<parameter>
							<parameterid>autokern</parameterid>
							<name>Auto Kerning</name>
							<value>TRUE</value>
						</parameter>
						<parameter>
							<parameterid>subpixel</parameterid>
							<name>Use Subpixel</name>
							<value>TRUE</value>
						</parameter>
					</effect>
					<sourcetrack>
						<mediatype>video</mediatype>
					</sourcetrack>
					<itemhistory>
						<uuid>E31DE0B4-1CEE-4861-949C-73A472832868</uuid>
					</itemhistory>
				</generatoritem>
				<enabled>TRUE</enabled>
				<locked>TRUE</locked>
			</track>
		</video>
		<audio>
			<format>
				<samplecharacteristics>
					<depth>24</depth>
					<samplerate>48000</samplerate>
				</samplecharacteristics>
			</format>
			<outputs>
				<group>
					<index>1</index>
					<numchannels>2</numchannels>
					<downmix>0</downmix>
					<channel>
						<index>1</index>
					</channel>
					<channel>
						<index>2</index>
					</channel>
				</group>
			</outputs>
			<in>-1</in>
			<out>-1</out>
			<track>
				<clipitem id="GN.ST-L1-wide_2 3">
					<name>GN.ST-L1-wide_2</name>
					<duration>1762</duration>
					<rate>
						<ntsc>TRUE</ntsc>
						<timebase>30</timebase>
					</rate>
					<in>519</in>
					<out>1684</out>
					<start>0</start>
					<end>1165</end>
					<masterclipid>GN.ST-L1-wide_2 1</masterclipid>
					<logginginfo>
						<scene/>
						<shottake/>
						<lognote/>
						<good>FALSE</good>
					</logginginfo>
					<labels>
						<label2/>
					</labels>
					<comments>
						<mastercomment1/>
						<mastercomment2/>
						<mastercomment3/>
						<mastercomment4/>
					</comments>
					<file id="GN.ST-L1-wide_2 2"/>
					<filter>
						<effect>
							<name>Audio Levels</name>
							<effectid>audiolevels</effectid>
							<effectcategory>audiolevels</effectcategory>
							<effecttype>audiolevels</effecttype>
							<mediatype>audio</mediatype>
							<parameter>
								<name>Level</name>
								<parameterid>level</parameterid>
								<valuemin>0</valuemin>
								<valuemax>3.98109</valuemax>
								<value>1</value>
							</parameter>
						</effect>
					</filter>
					<filter>
						<effect>
							<name>Audio Pan</name>
							<effectid>audiopan</effectid>
							<effectcategory>audiopan</effectcategory>
							<effecttype>audiopan</effecttype>
							<mediatype>audio</mediatype>
							<parameter>
								<name>Pan</name>
								<parameterid>pan</parameterid>
								<valuemin>-1</valuemin>
								<valuemax>1</valuemax>
								<value>0</value>
							</parameter>
						</effect>
					</filter>
					<sourcetrack>
						<mediatype>audio</mediatype>
						<trackindex>1</trackindex>
					</sourcetrack>
					<link>
						<linkclipref>GN.ST-L1-wide_2 </linkclipref>
						<mediatype>video</mediatype>
						<trackindex>1</trackindex>
						<clipindex>1</clipindex>
					</link>
					<link>
						<linkclipref>GN.ST-L1-wide_2 3</linkclipref>
						<mediatype>audio</mediatype>
						<trackindex>1</trackindex>
						<clipindex>1</clipindex>
					</link>
					<link>
						<linkclipref>GN.ST-L1-wide_2 4</linkclipref>
						<mediatype>audio</mediatype>
						<trackindex>2</trackindex>
						<clipindex>1</clipindex>
					</link>
					<itemhistory>
						<uuid>2D614C05-0878-4729-B566-81FF13DA8B73</uuid>
					</itemhistory>
				</clipitem>
				<clipitem id="GN.ST-L1-tigt_22 2">
					<name>GN.ST-L1-tigt_22</name>
					<duration>4013</duration>
					<rate>
						<ntsc>TRUE</ntsc>
						<timebase>30</timebase>
					</rate>
					<in>309</in>
					<out>921</out>
					<start>1270</start>
					<end>1882</end>
					<logginginfo>
						<scene/>
						<shottake/>
						<lognote/>
						<good>FALSE</good>
					</logginginfo>
					<labels>
						<label2/>
					</labels>
					<comments>
						<mastercomment1/>
						<mastercomment2/>
						<mastercomment3/>
						<mastercomment4/>
					</comments>
					<file id="GN.ST-L1-tigt_22 1"/>
					<filter>
						<effect>
							<name>Audio Levels</name>
							<effectid>audiolevels</effectid>
							<effectcategory>audiolevels</effectcategory>
							<effecttype>audiolevels</effecttype>
							<mediatype>audio</mediatype>
							<parameter>
								<name>Level</name>
								<parameterid>level</parameterid>
								<valuemin>0</valuemin>
								<valuemax>3.98109</valuemax>
								<value>1</value>
							</parameter>
						</effect>
					</filter>
					<filter>
						<effect>
							<name>Audio Pan</name>
							<effectid>audiopan</effectid>
							<effectcategory>audiopan</effectcategory>
							<effecttype>audiopan</effecttype>
							<mediatype>audio</mediatype>
							<parameter>
								<name>Pan</name>
								<parameterid>pan</parameterid>
								<valuemin>-1</valuemin>
								<valuemax>1</valuemax>
								<value>0</value>
							</parameter>
						</effect>
					</filter>
					<sourcetrack>
						<mediatype>audio</mediatype>
						<trackindex>1</trackindex>
					</sourcetrack>
					<link>
						<linkclipref>GN.ST-L1-tigt_22 </linkclipref>
						<mediatype>video</mediatype>
						<trackindex>1</trackindex>
						<clipindex>2</clipindex>
					</link>
					<link>
						<linkclipref>GN.ST-L1-tigt_22 2</linkclipref>
						<mediatype>audio</mediatype>
						<trackindex>1</trackindex>
						<clipindex>2</clipindex>
					</link>
					<link>
						<linkclipref>GN.ST-L1-tigt_22 3</linkclipref>
						<mediatype>audio</mediatype>
						<trackindex>2</trackindex>
						<clipindex>2</clipindex>
					</link>
					<itemhistory>
						<uuid>E106758B-4B4B-4651-8600-58E8527C478C</uuid>
					</itemhistory>
				</clipitem>
				<clipitem id="GN-L1-Tight_3 3">
					<name>GN-L1-Tight_3</name>
					<duration>2188</duration>
					<rate>
						<ntsc>TRUE</ntsc>
						<timebase>30</timebase>
					</rate>
					<in>261</in>
					<out>2068</out>
					<start>1882</start>
					<end>3689</end>
					<masterclipid>GN-L1-Tight_3 5</masterclipid>
					<logginginfo>
						<scene/>
						<shottake/>
						<lognote/>
						<good>FALSE</good>
					</logginginfo>
					<labels>
						<label2/>
					</labels>
					<comments>
						<mastercomment1/>
						<mastercomment2/>
						<mastercomment3/>
						<mastercomment4/>
					</comments>
					<file id="GN-L1-Tight_3 2"/>
					<filter>
						<effect>
							<name>Audio Levels</name>
							<effectid>audiolevels</effectid>
							<effectcategory>audiolevels</effectcategory>
							<effecttype>audiolevels</effecttype>
							<mediatype>audio</mediatype>
							<parameter>
								<name>Level</name>
								<parameterid>level</parameterid>
								<valuemin>0</valuemin>
								<valuemax>3.98109</valuemax>
								<value>1</value>
							</parameter>
						</effect>
					</filter>
					<filter>
						<effect>
							<name>Audio Pan</name>
							<effectid>audiopan</effectid>
							<effectcategory>audiopan</effectcategory>
							<effecttype>audiopan</effecttype>
							<mediatype>audio</mediatype>
							<parameter>
								<name>Pan</name>
								<parameterid>pan</parameterid>
								<valuemin>-1</valuemin>
								<valuemax>1</valuemax>
								<value>0</value>
							</parameter>
						</effect>
					</filter>
					<sourcetrack>
						<mediatype>audio</mediatype>
						<trackindex>1</trackindex>
					</sourcetrack>
					<link>
						<linkclipref>GN-L1-Tight_3 </linkclipref>
						<mediatype>video</mediatype>
						<trackindex>1</trackindex>
						<clipindex>3</clipindex>
					</link>
					<link>
						<linkclipref>GN-L1-Tight_3 3</linkclipref>
						<mediatype>audio</mediatype>
						<trackindex>1</trackindex>
						<clipindex>3</clipindex>
					</link>
					<link>
						<linkclipref>GN-L1-Tight_3 4</linkclipref>
						<mediatype>audio</mediatype>
						<trackindex>2</trackindex>
						<clipindex>3</clipindex>
					</link>
					<itemhistory>
						<uuid>2111B3D5-2E91-44CB-8A94-20C8EF647060</uuid>
					</itemhistory>
				</clipitem>
				<clipitem id="GN-L1-Tight_5 3">
					<name>GN-L1-Tight_5</name>
					<duration>4352</duration>
					<rate>
						<ntsc>TRUE</ntsc>
						<timebase>30</timebase>
					</rate>
					<in>360</in>
					<out>1130</out>
					<start>3689</start>
					<end>4459</end>
					<masterclipid>GN-L1-Tight_5 11</masterclipid>
					<logginginfo>
						<scene/>
						<shottake/>
						<lognote/>
						<good>FALSE</good>
					</logginginfo>
					<labels>
						<label2/>
					</labels>
					<comments>
						<mastercomment1/>
						<mastercomment2/>
						<mastercomment3/>
						<mastercomment4/>
					</comments>
					<file id="GN-L1-Tight_5 2"/>
					<filter>
						<effect>
							<name>Audio Levels</name>
							<effectid>audiolevels</effectid>
							<effectcategory>audiolevels</effectcategory>
							<effecttype>audiolevels</effecttype>
							<mediatype>audio</mediatype>
							<parameter>
								<name>Level</name>
								<parameterid>level</parameterid>
								<valuemin>0</valuemin>
								<valuemax>3.98109</valuemax>
								<value>1</value>
							</parameter>
						</effect>
					</filter>
					<filter>
						<effect>
							<name>Audio Pan</name>
							<effectid>audiopan</effectid>
							<effectcategory>audiopan</effectcategory>
							<effecttype>audiopan</effecttype>
							<mediatype>audio</mediatype>
							<parameter>
								<name>Pan</name>
								<parameterid>pan</parameterid>
								<valuemin>-1</valuemin>
								<valuemax>1</valuemax>
								<value>0</value>
							</parameter>
						</effect>
					</filter>
					<sourcetrack>
						<mediatype>audio</mediatype>
						<trackindex>1</trackindex>
					</sourcetrack>
					<link>
						<linkclipref>GN-L1-Tight_5 </linkclipref>
						<mediatype>video</mediatype>
						<trackindex>1</trackindex>
						<clipindex>4</clipindex>
					</link>
					<link>
						<linkclipref>GN-L1-Tight_5 3</linkclipref>
						<mediatype>audio</mediatype>
						<trackindex>1</trackindex>
						<clipindex>4</clipindex>
					</link>
					<link>
						<linkclipref>GN-L1-Tight_5 4</linkclipref>
						<mediatype>audio</mediatype>
						<trackindex>2</trackindex>
						<clipindex>4</clipindex>
					</link>
					<itemhistory>
						<uuid>37FDDDAA-E240-47D8-90DA-076979B0A11A</uuid>
					</itemhistory>
				</clipitem>
				<clipitem id="GN-L1-Tight_5 6">
					<name>GN-L1-Tight_5</name>
					<duration>4352</duration>
					<rate>
						<ntsc>TRUE</ntsc>
						<timebase>30</timebase>
					</rate>
					<in>1212</in>
					<out>1892</out>
					<start>4459</start>
					<end>5139</end>
					<masterclipid>GN-L1-Tight_5 11</masterclipid>
					<logginginfo>
						<scene/>
						<shottake/>
						<lognote/>
						<good>FALSE</good>
					</logginginfo>
					<labels>
						<label2/>
					</labels>
					<comments>
						<mastercomment1/>
						<mastercomment2/>
						<mastercomment3/>
						<mastercomment4/>
					</comments>
					<file id="GN-L1-Tight_5 2"/>
					<filter>
						<effect>
							<name>Audio Levels</name>
							<effectid>audiolevels</effectid>
							<effectcategory>audiolevels</effectcategory>
							<effecttype>audiolevels</effecttype>
							<mediatype>audio</mediatype>
							<parameter>
								<name>Level</name>
								<parameterid>level</parameterid>
								<valuemin>0</valuemin>
								<valuemax>3.98109</valuemax>
								<value>1</value>
							</parameter>
						</effect>
					</filter>
					<filter>
						<effect>
							<name>Audio Pan</name>
							<effectid>audiopan</effectid>
							<effectcategory>audiopan</effectcategory>
							<effecttype>audiopan</effecttype>
							<mediatype>audio</mediatype>
							<parameter>
								<name>Pan</name>
								<parameterid>pan</parameterid>
								<valuemin>-1</valuemin>
								<valuemax>1</valuemax>
								<value>0</value>
							</parameter>
						</effect>
					</filter>
					<sourcetrack>
						<mediatype>audio</mediatype>
						<trackindex>1</trackindex>
					</sourcetrack>
					<link>
						<linkclipref>GN-L1-Tight_5 5</linkclipref>
						<mediatype>video</mediatype>
						<trackindex>1</trackindex>
						<clipindex>5</clipindex>
					</link>
					<link>
						<linkclipref>GN-L1-Tight_5 6</linkclipref>
						<mediatype>audio</mediatype>
						<trackindex>1</trackindex>
						<clipindex>5</clipindex>
					</link>
					<link>
						<linkclipref>GN-L1-Tight_5 7</linkclipref>
						<mediatype>audio</mediatype>
						<trackindex>2</trackindex>
						<clipindex>5</clipindex>
					</link>
					<itemhistory>
						<uuid>AE8FFEA4-D77B-4C67-BF3F-53BB065A3CA1</uuid>
					</itemhistory>
				</clipitem>
				<clipitem id="GN-L1-Tight_5 9">
					<name>GN-L1-Tight_5</name>
					<duration>4352</duration>
					<rate>
						<ntsc>TRUE</ntsc>
						<timebase>30</timebase>
					</rate>
					<in>4007</in>
					<out>4202</out>
					<start>5139</start>
					<end>5334</end>
					<masterclipid>GN-L1-Tight_5 11</masterclipid>
					<logginginfo>
						<scene/>
						<shottake/>
						<lognote/>
						<good>FALSE</good>
					</logginginfo>
					<labels>
						<label2/>
					</labels>
					<comments>
						<mastercomment1/>
						<mastercomment2/>
						<mastercomment3/>
						<mastercomment4/>
					</comments>
					<file id="GN-L1-Tight_5 2"/>
					<filter>
						<effect>
							<name>Audio Levels</name>
							<effectid>audiolevels</effectid>
							<effectcategory>audiolevels</effectcategory>
							<effecttype>audiolevels</effecttype>
							<mediatype>audio</mediatype>
							<parameter>
								<name>Level</name>
								<parameterid>level</parameterid>
								<valuemin>0</valuemin>
								<valuemax>3.98109</valuemax>
								<value>1</value>
							</parameter>
						</effect>
					</filter>
					<filter>
						<effect>
							<name>Audio Pan</name>
							<effectid>audiopan</effectid>
							<effectcategory>audiopan</effectcategory>
							<effecttype>audiopan</effecttype>
							<mediatype>audio</mediatype>
							<parameter>
								<name>Pan</name>
								<parameterid>pan</parameterid>
								<valuemin>-1</valuemin>
								<valuemax>1</valuemax>
								<value>0</value>
							</parameter>
						</effect>
					</filter>
					<sourcetrack>
						<mediatype>audio</mediatype>
						<trackindex>1</trackindex>
					</sourcetrack>
					<link>
						<linkclipref>GN-L1-Tight_5 8</linkclipref>
						<mediatype>video</mediatype>
						<trackindex>1</trackindex>
						<clipindex>6</clipindex>
					</link>
					<link>
						<linkclipref>GN-L1-Tight_5 9</linkclipref>
						<mediatype>audio</mediatype>
						<trackindex>1</trackindex>
						<clipindex>6</clipindex>
					</link>
					<link>
						<linkclipref>GN-L1-Tight_5 10</linkclipref>
						<mediatype>audio</mediatype>
						<trackindex>2</trackindex>
						<clipindex>6</clipindex>
					</link>
					<itemhistory>
						<uuid>322B86C5-0A9B-4F57-9DF6-B73BA958D2A3</uuid>
					</itemhistory>
				</clipitem>
				<clipitem id="GN-L1-Tight_8 3">
					<name>GN-L1-Tight_8</name>
					<duration>983</duration>
					<rate>
						<ntsc>TRUE</ntsc>
						<timebase>30</timebase>
					</rate>
					<in>258</in>
					<out>891</out>
					<start>5334</start>
					<end>5967</end>
					<masterclipid>GN-L1-Tight_8 5</masterclipid>
					<logginginfo>
						<scene/>
						<shottake/>
						<lognote/>
						<good>FALSE</good>
					</logginginfo>
					<labels>
						<label2/>
					</labels>
					<comments>
						<mastercomment1/>
						<mastercomment2/>
						<mastercomment3/>
						<mastercomment4/>
					</comments>
					<file id="GN-L1-Tight_8 2"/>
					<filter>
						<effect>
							<name>Audio Levels</name>
							<effectid>audiolevels</effectid>
							<effectcategory>audiolevels</effectcategory>
							<effecttype>audiolevels</effecttype>
							<mediatype>audio</mediatype>
							<parameter>
								<name>Level</name>
								<parameterid>level</parameterid>
								<valuemin>0</valuemin>
								<valuemax>3.98109</valuemax>
								<value>1</value>
							</parameter>
						</effect>
					</filter>
					<filter>
						<effect>
							<name>Audio Pan</name>
							<effectid>audiopan</effectid>
							<effectcategory>audiopan</effectcategory>
							<effecttype>audiopan</effecttype>
							<mediatype>audio</mediatype>
							<parameter>
								<name>Pan</name>
								<parameterid>pan</parameterid>
								<valuemin>-1</valuemin>
								<valuemax>1</valuemax>
								<value>0</value>
							</parameter>
						</effect>
					</filter>
					<sourcetrack>
						<mediatype>audio</mediatype>
						<trackindex>1</trackindex>
					</sourcetrack>
					<link>
						<linkclipref>GN-L1-Tight_8 </linkclipref>
						<mediatype>video</mediatype>
						<trackindex>1</trackindex>
						<clipindex>7</clipindex>
					</link>
					<link>
						<linkclipref>GN-L1-Tight_8 3</linkclipref>
						<mediatype>audio</mediatype>
						<trackindex>1</trackindex>
						<clipindex>7</clipindex>
					</link>
					<link>
						<linkclipref>GN-L1-Tight_8 4</linkclipref>
						<mediatype>audio</mediatype>
						<trackindex>2</trackindex>
						<clipindex>7</clipindex>
					</link>
					<itemhistory>
						<uuid>BE02749C-6F02-47A3-A20E-2AAAAF08F0DE</uuid>
					</itemhistory>
				</clipitem>
				<clipitem id="1_crowd_a.wav">
					<name>1_crowd_a.wav</name>
					<duration>102</duration>
					<rate>
						<ntsc>TRUE</ntsc>
						<timebase>30</timebase>
					</rate>
					<in>0</in>
					<out>102</out>
					<start>5967</start>
					<end>6069</end>
					<enabled>TRUE</enabled>
					<masterclipid>1_crowd_a.wav1</masterclipid>
					<logginginfo>
						<scene/>
						<shottake/>
						<lognote/>
						<good>FALSE</good>
					</logginginfo>
					<labels>
						<label2/>
					</labels>
					<comments>
						<mastercomment1/>
						<mastercomment2/>
						<mastercomment3/>
						<mastercomment4/>
					</comments>
					<file id="1_crowd_a">
						<name>1_crowd_a.wav</name>
						<pathurl>file://localhost/Volumes/Xsan/ELEVATE/ELEVATE_Kids/GoodNews/Audio_Assets/GN_Kids_VO_Bounces/L1/1_crowd_a.wav</pathurl>
						<rate>
							<timebase>30</timebase>
							<ntsc>TRUE</ntsc>
						</rate>
						<duration>102</duration>
						<timecode>
							<rate>
								<timebase>30</timebase>
								<ntsc>TRUE</ntsc>
							</rate>
							<string>00:09:46:02</string>
							<frame>17582</frame>
							<displayformat>NDF</displayformat>
							<source>source</source>
						</timecode>
						<media>
							<audio>
								<samplecharacteristics>
									<samplerate>48000</samplerate>
									<depth>24</depth>
								</samplecharacteristics>
								<channelcount>1</channelcount>
							</audio>
						</media>
					</file>
					<filter>
						<effect>
							<name>Audio Levels</name>
							<effectid>audiolevels</effectid>
							<effectcategory>audiolevels</effectcategory>
							<effecttype>audiolevels</effecttype>
							<mediatype>audio</mediatype>
							<parameter>
								<name>Level</name>
								<parameterid>level</parameterid>
								<valuemin>0</valuemin>
								<valuemax>3.98109</valuemax>
								<value>0.1</value>
							</parameter>
						</effect>
					</filter>
					<filter>
						<effect>
							<name>Audio Pan</name>
							<effectid>audiopan</effectid>
							<effectcategory>audiopan</effectcategory>
							<effecttype>audiopan</effecttype>
							<mediatype>audio</mediatype>
							<parameter>
								<name>Pan</name>
								<parameterid>pan</parameterid>
								<valuemin>-1</valuemin>
								<valuemax>1</valuemax>
								<value>0</value>
							</parameter>
						</effect>
					</filter>
					<sourcetrack>
						<mediatype>audio</mediatype>
						<trackindex>1</trackindex>
					</sourcetrack>
					<itemhistory>
						<uuid>68AFC538-9815-4CAA-A6EC-4C6376656AE1</uuid>
					</itemhistory>
				</clipitem>
				<clipitem id="2_crowd_b.wav">
					<name>2_crowd_b.wav</name>
					<duration>89</duration>
					<rate>
						<ntsc>TRUE</ntsc>
						<timebase>30</timebase>
					</rate>
					<in>0</in>
					<out>89</out>
					<start>6069</start>
					<end>6158</end>
					<enabled>TRUE</enabled>
					<masterclipid>2_crowd_b.wav1</masterclipid>
					<logginginfo>
						<scene/>
						<shottake/>
						<lognote/>
						<good>FALSE</good>
					</logginginfo>
					<labels>
						<label2/>
					</labels>
					<comments>
						<mastercomment1/>
						<mastercomment2/>
						<mastercomment3/>
						<mastercomment4/>
					</comments>
					<file id="2_crowd_b">
						<name>2_crowd_b.wav</name>
						<pathurl>file://localhost/Volumes/Xsan/ELEVATE/ELEVATE_Kids/GoodNews/Audio_Assets/GN_Kids_VO_Bounces/L1/2_crowd_b.wav</pathurl>
						<rate>
							<timebase>30</timebase>
							<ntsc>TRUE</ntsc>
						</rate>
						<duration>89</duration>
						<timecode>
							<rate>
								<timebase>30</timebase>
								<ntsc>TRUE</ntsc>
							</rate>
							<string>00:09:49:15</string>
							<frame>17685</frame>
							<displayformat>NDF</displayformat>
							<source>source</source>
						</timecode>
						<media>
							<audio>
								<samplecharacteristics>
									<samplerate>48000</samplerate>
									<depth>24</depth>
								</samplecharacteristics>
								<channelcount>1</channelcount>
							</audio>
						</media>
					</file>
					<filter>
						<effect>
							<name>Audio Levels</name>
							<effectid>audiolevels</effectid>
							<effectcategory>audiolevels</effectcategory>
							<effecttype>audiolevels</effecttype>
							<mediatype>audio</mediatype>
							<parameter>
								<name>Level</name>
								<parameterid>level</parameterid>
								<valuemin>0</valuemin>
								<valuemax>3.98109</valuemax>
								<value>0.1</value>
							</parameter>
						</effect>
					</filter>
					<filter>
						<effect>
							<name>Audio Pan</name>
							<effectid>audiopan</effectid>
							<effectcategory>audiopan</effectcategory>
							<effecttype>audiopan</effecttype>
							<mediatype>audio</mediatype>
							<parameter>
								<name>Pan</name>
								<parameterid>pan</parameterid>
								<valuemin>-1</valuemin>
								<valuemax>1</valuemax>
								<value>0</value>
							</parameter>
						</effect>
					</filter>
					<sourcetrack>
						<mediatype>audio</mediatype>
						<trackindex>1</trackindex>
					</sourcetrack>
					<itemhistory>
						<uuid>5FBC5D0D-93C6-4C29-9293-03115DEDA026</uuid>
					</itemhistory>
				</clipitem>
				<clipitem id="GN-L1-Tigt_1 3">
					<name>GN-L1-Tigt_1</name>
					<duration>1442</duration>
					<rate>
						<ntsc>TRUE</ntsc>
						<timebase>30</timebase>
					</rate>
					<in>484</in>
					<out>1362</out>
					<start>6158</start>
					<end>7036</end>
					<masterclipid>GN-L1-Tigt_1 5</masterclipid>
					<logginginfo>
						<scene/>
						<shottake/>
						<lognote/>
						<good>FALSE</good>
					</logginginfo>
					<labels>
						<label2/>
					</labels>
					<comments>
						<mastercomment1/>
						<mastercomment2/>
						<mastercomment3/>
						<mastercomment4/>
					</comments>
					<file id="GN-L1-Tigt_1 2"/>
					<filter>
						<effect>
							<name>Audio Levels</name>
							<effectid>audiolevels</effectid>
							<effectcategory>audiolevels</effectcategory>
							<effecttype>audiolevels</effecttype>
							<mediatype>audio</mediatype>
							<parameter>
								<name>Level</name>
								<parameterid>level</parameterid>
								<valuemin>0</valuemin>
								<valuemax>3.98109</valuemax>
								<value>1</value>
							</parameter>
						</effect>
					</filter>
					<filter>
						<effect>
							<name>Audio Pan</name>
							<effectid>audiopan</effectid>
							<effectcategory>audiopan</effectcategory>
							<effecttype>audiopan</effecttype>
							<mediatype>audio</mediatype>
							<parameter>
								<name>Pan</name>
								<parameterid>pan</parameterid>
								<valuemin>-1</valuemin>
								<valuemax>1</valuemax>
								<value>0</value>
							</parameter>
						</effect>
					</filter>
					<sourcetrack>
						<mediatype>audio</mediatype>
						<trackindex>1</trackindex>
					</sourcetrack>
					<link>
						<linkclipref>GN-L1-Tigt_1 </linkclipref>
						<mediatype>video</mediatype>
						<trackindex>1</trackindex>
						<clipindex>8</clipindex>
					</link>
					<link>
						<linkclipref>GN-L1-Tigt_1 3</linkclipref>
						<mediatype>audio</mediatype>
						<trackindex>1</trackindex>
						<clipindex>10</clipindex>
					</link>
					<link>
						<linkclipref>GN-L1-Tigt_1 4</linkclipref>
						<mediatype>audio</mediatype>
						<trackindex>2</trackindex>
						<clipindex>8</clipindex>
					</link>
					<itemhistory>
						<uuid>7FDD4A02-5082-47DB-9D0E-25081D763864</uuid>
					</itemhistory>
				</clipitem>
				<clipitem id="GN-L1-Tigt_14 3">
					<name>GN-L1-Tigt_14</name>
					<duration>935</duration>
					<rate>
						<ntsc>TRUE</ntsc>
						<timebase>30</timebase>
					</rate>
					<in>375</in>
					<out>784</out>
					<start>7036</start>
					<end>7445</end>
					<masterclipid>GN-L1-Tigt_14 5</masterclipid>
					<logginginfo>
						<scene/>
						<shottake/>
						<lognote/>
						<good>FALSE</good>
					</logginginfo>
					<labels>
						<label2/>
					</labels>
					<comments>
						<mastercomment1/>
						<mastercomment2/>
						<mastercomment3/>
						<mastercomment4/>
					</comments>
					<file id="GN-L1-Tigt_14 2"/>
					<filter>
						<effect>
							<name>Audio Levels</name>
							<effectid>audiolevels</effectid>
							<effectcategory>audiolevels</effectcategory>
							<effecttype>audiolevels</effecttype>
							<mediatype>audio</mediatype>
							<parameter>
								<name>Level</name>
								<parameterid>level</parameterid>
								<valuemin>0</valuemin>
								<valuemax>3.98109</valuemax>
								<value>1</value>
							</parameter>
						</effect>
					</filter>
					<filter>
						<effect>
							<name>Audio Pan</name>
							<effectid>audiopan</effectid>
							<effectcategory>audiopan</effectcategory>
							<effecttype>audiopan</effecttype>
							<mediatype>audio</mediatype>
							<parameter>
								<name>Pan</name>
								<parameterid>pan</parameterid>
								<valuemin>-1</valuemin>
								<valuemax>1</valuemax>
								<value>0</value>
							</parameter>
						</effect>
					</filter>
					<sourcetrack>
						<mediatype>audio</mediatype>
						<trackindex>1</trackindex>
					</sourcetrack>
					<link>
						<linkclipref>GN-L1-Tigt_14 </linkclipref>
						<mediatype>video</mediatype>
						<trackindex>1</trackindex>
						<clipindex>9</clipindex>
					</link>
					<link>
						<linkclipref>GN-L1-Tigt_14 3</linkclipref>
						<mediatype>audio</mediatype>
						<trackindex>1</trackindex>
						<clipindex>11</clipindex>
					</link>
					<link>
						<linkclipref>GN-L1-Tigt_14 4</linkclipref>
						<mediatype>audio</mediatype>
						<trackindex>2</trackindex>
						<clipindex>9</clipindex>
					</link>
					<itemhistory>
						<uuid>1297EF65-C4AC-4BDB-9AAE-684EE47D9BB3</uuid>
					</itemhistory>
				</clipitem>
				<clipitem id="GN.ST-L1-tigt_22 5">
					<name>GN.ST-L1-tigt_22</name>
					<duration>4013</duration>
					<rate>
						<ntsc>TRUE</ntsc>
						<timebase>30</timebase>
					</rate>
					<in>1455</in>
					<out>3884</out>
					<start>7445</start>
					<end>9874</end>
					<logginginfo>
						<scene/>
						<shottake/>
						<lognote/>
						<good>FALSE</good>
					</logginginfo>
					<labels>
						<label2/>
					</labels>
					<comments>
						<mastercomment1/>
						<mastercomment2/>
						<mastercomment3/>
						<mastercomment4/>
					</comments>
					<file id="GN.ST-L1-tigt_22 1"/>
					<filter>
						<effect>
							<name>Audio Levels</name>
							<effectid>audiolevels</effectid>
							<effectcategory>audiolevels</effectcategory>
							<effecttype>audiolevels</effecttype>
							<mediatype>audio</mediatype>
							<parameter>
								<name>Level</name>
								<parameterid>level</parameterid>
								<valuemin>0</valuemin>
								<valuemax>3.98109</valuemax>
								<value>1</value>
							</parameter>
						</effect>
					</filter>
					<filter>
						<effect>
							<name>Audio Pan</name>
							<effectid>audiopan</effectid>
							<effectcategory>audiopan</effectcategory>
							<effecttype>audiopan</effecttype>
							<mediatype>audio</mediatype>
							<parameter>
								<name>Pan</name>
								<parameterid>pan</parameterid>
								<valuemin>-1</valuemin>
								<valuemax>1</valuemax>
								<value>0</value>
							</parameter>
						</effect>
					</filter>
					<sourcetrack>
						<mediatype>audio</mediatype>
						<trackindex>1</trackindex>
					</sourcetrack>
					<link>
						<linkclipref>GN.ST-L1-tigt_22 4</linkclipref>
						<mediatype>video</mediatype>
						<trackindex>1</trackindex>
						<clipindex>10</clipindex>
					</link>
					<link>
						<linkclipref>GN.ST-L1-tigt_22 5</linkclipref>
						<mediatype>audio</mediatype>
						<trackindex>1</trackindex>
						<clipindex>12</clipindex>
					</link>
					<link>
						<linkclipref>GN.ST-L1-tigt_22 6</linkclipref>
						<mediatype>audio</mediatype>
						<trackindex>2</trackindex>
						<clipindex>10</clipindex>
					</link>
					<itemhistory>
						<uuid>D515657E-AE3B-4A66-A5FB-350E578AA879</uuid>
					</itemhistory>
				</clipitem>
				<enabled>TRUE</enabled>
				<locked>TRUE</locked>
				<outputchannelindex>1</outputchannelindex>
			</track>
			<track>
				<clipitem id="GN.ST-L1-wide_2 4">
					<name>GN.ST-L1-wide_2</name>
					<duration>1762</duration>
					<rate>
						<ntsc>TRUE</ntsc>
						<timebase>30</timebase>
					</rate>
					<in>519</in>
					<out>1684</out>
					<start>0</start>
					<end>1165</end>
					<masterclipid>GN.ST-L1-wide_2 1</masterclipid>
					<logginginfo>
						<scene/>
						<shottake/>
						<lognote/>
						<good>FALSE</good>
					</logginginfo>
					<labels>
						<label2/>
					</labels>
					<comments>
						<mastercomment1/>
						<mastercomment2/>
						<mastercomment3/>
						<mastercomment4/>
					</comments>
					<file id="GN.ST-L1-wide_2 2"/>
					<filter>
						<effect>
							<name>Audio Levels</name>
							<effectid>audiolevels</effectid>
							<effectcategory>audiolevels</effectcategory>
							<effecttype>audiolevels</effecttype>
							<mediatype>audio</mediatype>
							<parameter>
								<name>Level</name>
								<parameterid>level</parameterid>
								<valuemin>0</valuemin>
								<valuemax>3.98109</valuemax>
								<value>1</value>
							</parameter>
						</effect>
					</filter>
					<filter>
						<effect>
							<name>Audio Pan</name>
							<effectid>audiopan</effectid>
							<effectcategory>audiopan</effectcategory>
							<effecttype>audiopan</effecttype>
							<mediatype>audio</mediatype>
							<parameter>
								<name>Pan</name>
								<parameterid>pan</parameterid>
								<valuemin>-1</valuemin>
								<valuemax>1</valuemax>
								<value>0</value>
							</parameter>
						</effect>
					</filter>
					<sourcetrack>
						<mediatype>audio</mediatype>
						<trackindex>2</trackindex>
					</sourcetrack>
					<link>
						<linkclipref>GN.ST-L1-wide_2 </linkclipref>
						<mediatype>video</mediatype>
						<trackindex>1</trackindex>
						<clipindex>1</clipindex>
					</link>
					<link>
						<linkclipref>GN.ST-L1-wide_2 3</linkclipref>
						<mediatype>audio</mediatype>
						<trackindex>1</trackindex>
						<clipindex>1</clipindex>
					</link>
					<link>
						<linkclipref>GN.ST-L1-wide_2 4</linkclipref>
						<mediatype>audio</mediatype>
						<trackindex>2</trackindex>
						<clipindex>1</clipindex>
					</link>
					<itemhistory>
						<uuid>27F3D6C3-B97E-49BD-9B05-2AFB8B231653</uuid>
					</itemhistory>
				</clipitem>
				<clipitem id="GN.ST-L1-tigt_22 3">
					<name>GN.ST-L1-tigt_22</name>
					<duration>4013</duration>
					<rate>
						<ntsc>TRUE</ntsc>
						<timebase>30</timebase>
					</rate>
					<in>309</in>
					<out>921</out>
					<start>1270</start>
					<end>1882</end>
					<logginginfo>
						<scene/>
						<shottake/>
						<lognote/>
						<good>FALSE</good>
					</logginginfo>
					<labels>
						<label2/>
					</labels>
					<comments>
						<mastercomment1/>
						<mastercomment2/>
						<mastercomment3/>
						<mastercomment4/>
					</comments>
					<file id="GN.ST-L1-tigt_22 1"/>
					<filter>
						<effect>
							<name>Audio Levels</name>
							<effectid>audiolevels</effectid>
							<effectcategory>audiolevels</effectcategory>
							<effecttype>audiolevels</effecttype>
							<mediatype>audio</mediatype>
							<parameter>
								<name>Level</name>
								<parameterid>level</parameterid>
								<valuemin>0</valuemin>
								<valuemax>3.98109</valuemax>
								<value>1</value>
							</parameter>
						</effect>
					</filter>
					<filter>
						<effect>
							<name>Audio Pan</name>
							<effectid>audiopan</effectid>
							<effectcategory>audiopan</effectcategory>
							<effecttype>audiopan</effecttype>
							<mediatype>audio</mediatype>
							<parameter>
								<name>Pan</name>
								<parameterid>pan</parameterid>
								<valuemin>-1</valuemin>
								<valuemax>1</valuemax>
								<value>0</value>
							</parameter>
						</effect>
					</filter>
					<sourcetrack>
						<mediatype>audio</mediatype>
						<trackindex>2</trackindex>
					</sourcetrack>
					<link>
						<linkclipref>GN.ST-L1-tigt_22 </linkclipref>
						<mediatype>video</mediatype>
						<trackindex>1</trackindex>
						<clipindex>2</clipindex>
					</link>
					<link>
						<linkclipref>GN.ST-L1-tigt_22 2</linkclipref>
						<mediatype>audio</mediatype>
						<trackindex>1</trackindex>
						<clipindex>2</clipindex>
					</link>
					<link>
						<linkclipref>GN.ST-L1-tigt_22 3</linkclipref>
						<mediatype>audio</mediatype>
						<trackindex>2</trackindex>
						<clipindex>2</clipindex>
					</link>
					<itemhistory>
						<uuid>D56B7C2E-178B-4E42-990A-341F1EAAF398</uuid>
					</itemhistory>
				</clipitem>
				<clipitem id="GN-L1-Tight_3 4">
					<name>GN-L1-Tight_3</name>
					<duration>2188</duration>
					<rate>
						<ntsc>TRUE</ntsc>
						<timebase>30</timebase>
					</rate>
					<in>261</in>
					<out>2068</out>
					<start>1882</start>
					<end>3689</end>
					<masterclipid>GN-L1-Tight_3 6</masterclipid>
					<logginginfo>
						<scene/>
						<shottake/>
						<lognote/>
						<good>FALSE</good>
					</logginginfo>
					<labels>
						<label2/>
					</labels>
					<comments>
						<mastercomment1/>
						<mastercomment2/>
						<mastercomment3/>
						<mastercomment4/>
					</comments>
					<file id="GN-L1-Tight_3 2"/>
					<filter>
						<effect>
							<name>Audio Levels</name>
							<effectid>audiolevels</effectid>
							<effectcategory>audiolevels</effectcategory>
							<effecttype>audiolevels</effecttype>
							<mediatype>audio</mediatype>
							<parameter>
								<name>Level</name>
								<parameterid>level</parameterid>
								<valuemin>0</valuemin>
								<valuemax>3.98109</valuemax>
								<value>1</value>
							</parameter>
						</effect>
					</filter>
					<filter>
						<effect>
							<name>Audio Pan</name>
							<effectid>audiopan</effectid>
							<effectcategory>audiopan</effectcategory>
							<effecttype>audiopan</effecttype>
							<mediatype>audio</mediatype>
							<parameter>
								<name>Pan</name>
								<parameterid>pan</parameterid>
								<valuemin>-1</valuemin>
								<valuemax>1</valuemax>
								<value>0</value>
							</parameter>
						</effect>
					</filter>
					<sourcetrack>
						<mediatype>audio</mediatype>
						<trackindex>2</trackindex>
					</sourcetrack>
					<link>
						<linkclipref>GN-L1-Tight_3 </linkclipref>
						<mediatype>video</mediatype>
						<trackindex>1</trackindex>
						<clipindex>3</clipindex>
					</link>
					<link>
						<linkclipref>GN-L1-Tight_3 3</linkclipref>
						<mediatype>audio</mediatype>
						<trackindex>1</trackindex>
						<clipindex>3</clipindex>
					</link>
					<link>
						<linkclipref>GN-L1-Tight_3 4</linkclipref>
						<mediatype>audio</mediatype>
						<trackindex>2</trackindex>
						<clipindex>3</clipindex>
					</link>
					<itemhistory>
						<uuid>BFAE9EB4-6F74-4961-A4E8-255DE56EB3E0</uuid>
					</itemhistory>
				</clipitem>
				<clipitem id="GN-L1-Tight_5 4">
					<name>GN-L1-Tight_5</name>
					<duration>4352</duration>
					<rate>
						<ntsc>TRUE</ntsc>
						<timebase>30</timebase>
					</rate>
					<in>360</in>
					<out>1130</out>
					<start>3689</start>
					<end>4459</end>
					<masterclipid>GN-L1-Tight_5 12</masterclipid>
					<logginginfo>
						<scene/>
						<shottake/>
						<lognote/>
						<good>FALSE</good>
					</logginginfo>
					<labels>
						<label2/>
					</labels>
					<comments>
						<mastercomment1/>
						<mastercomment2/>
						<mastercomment3/>
						<mastercomment4/>
					</comments>
					<file id="GN-L1-Tight_5 2"/>
					<filter>
						<effect>
							<name>Audio Levels</name>
							<effectid>audiolevels</effectid>
							<effectcategory>audiolevels</effectcategory>
							<effecttype>audiolevels</effecttype>
							<mediatype>audio</mediatype>
							<parameter>
								<name>Level</name>
								<parameterid>level</parameterid>
								<valuemin>0</valuemin>
								<valuemax>3.98109</valuemax>
								<value>1</value>
							</parameter>
						</effect>
					</filter>
					<filter>
						<effect>
							<name>Audio Pan</name>
							<effectid>audiopan</effectid>
							<effectcategory>audiopan</effectcategory>
							<effecttype>audiopan</effecttype>
							<mediatype>audio</mediatype>
							<parameter>
								<name>Pan</name>
								<parameterid>pan</parameterid>
								<valuemin>-1</valuemin>
								<valuemax>1</valuemax>
								<value>0</value>
							</parameter>
						</effect>
					</filter>
					<sourcetrack>
						<mediatype>audio</mediatype>
						<trackindex>2</trackindex>
					</sourcetrack>
					<link>
						<linkclipref>GN-L1-Tight_5 </linkclipref>
						<mediatype>video</mediatype>
						<trackindex>1</trackindex>
						<clipindex>4</clipindex>
					</link>
					<link>
						<linkclipref>GN-L1-Tight_5 3</linkclipref>
						<mediatype>audio</mediatype>
						<trackindex>1</trackindex>
						<clipindex>4</clipindex>
					</link>
					<link>
						<linkclipref>GN-L1-Tight_5 4</linkclipref>
						<mediatype>audio</mediatype>
						<trackindex>2</trackindex>
						<clipindex>4</clipindex>
					</link>
					<itemhistory>
						<uuid>1417F4DE-E840-4569-9AAE-E6462C4F7F71</uuid>
					</itemhistory>
				</clipitem>
				<clipitem id="GN-L1-Tight_5 7">
					<name>GN-L1-Tight_5</name>
					<duration>4352</duration>
					<rate>
						<ntsc>TRUE</ntsc>
						<timebase>30</timebase>
					</rate>
					<in>1212</in>
					<out>1892</out>
					<start>4459</start>
					<end>5139</end>
					<masterclipid>GN-L1-Tight_5 12</masterclipid>
					<logginginfo>
						<scene/>
						<shottake/>
						<lognote/>
						<good>FALSE</good>
					</logginginfo>
					<labels>
						<label2/>
					</labels>
					<comments>
						<mastercomment1/>
						<mastercomment2/>
						<mastercomment3/>
						<mastercomment4/>
					</comments>
					<file id="GN-L1-Tight_5 2"/>
					<filter>
						<effect>
							<name>Audio Levels</name>
							<effectid>audiolevels</effectid>
							<effectcategory>audiolevels</effectcategory>
							<effecttype>audiolevels</effecttype>
							<mediatype>audio</mediatype>
							<parameter>
								<name>Level</name>
								<parameterid>level</parameterid>
								<valuemin>0</valuemin>
								<valuemax>3.98109</valuemax>
								<value>1</value>
							</parameter>
						</effect>
					</filter>
					<filter>
						<effect>
							<name>Audio Pan</name>
							<effectid>audiopan</effectid>
							<effectcategory>audiopan</effectcategory>
							<effecttype>audiopan</effecttype>
							<mediatype>audio</mediatype>
							<parameter>
								<name>Pan</name>
								<parameterid>pan</parameterid>
								<valuemin>-1</valuemin>
								<valuemax>1</valuemax>
								<value>0</value>
							</parameter>
						</effect>
					</filter>
					<sourcetrack>
						<mediatype>audio</mediatype>
						<trackindex>2</trackindex>
					</sourcetrack>
					<link>
						<linkclipref>GN-L1-Tight_5 5</linkclipref>
						<mediatype>video</mediatype>
						<trackindex>1</trackindex>
						<clipindex>5</clipindex>
					</link>
					<link>
						<linkclipref>GN-L1-Tight_5 6</linkclipref>
						<mediatype>audio</mediatype>
						<trackindex>1</trackindex>
						<clipindex>5</clipindex>
					</link>
					<link>
						<linkclipref>GN-L1-Tight_5 7</linkclipref>
						<mediatype>audio</mediatype>
						<trackindex>2</trackindex>
						<clipindex>5</clipindex>
					</link>
					<itemhistory>
						<uuid>01F7CAF4-9E78-43A0-9CE1-94B56A73E2E1</uuid>
					</itemhistory>
				</clipitem>
				<clipitem id="GN-L1-Tight_5 10">
					<name>GN-L1-Tight_5</name>
					<duration>4352</duration>
					<rate>
						<ntsc>TRUE</ntsc>
						<timebase>30</timebase>
					</rate>
					<in>4007</in>
					<out>4202</out>
					<start>5139</start>
					<end>5334</end>
					<masterclipid>GN-L1-Tight_5 12</masterclipid>
					<logginginfo>
						<scene/>
						<shottake/>
						<lognote/>
						<good>FALSE</good>
					</logginginfo>
					<labels>
						<label2/>
					</labels>
					<comments>
						<mastercomment1/>
						<mastercomment2/>
						<mastercomment3/>
						<mastercomment4/>
					</comments>
					<file id="GN-L1-Tight_5 2"/>
					<filter>
						<effect>
							<name>Audio Levels</name>
							<effectid>audiolevels</effectid>
							<effectcategory>audiolevels</effectcategory>
							<effecttype>audiolevels</effecttype>
							<mediatype>audio</mediatype>
							<parameter>
								<name>Level</name>
								<parameterid>level</parameterid>
								<valuemin>0</valuemin>
								<valuemax>3.98109</valuemax>
								<value>1</value>
							</parameter>
						</effect>
					</filter>
					<filter>
						<effect>
							<name>Audio Pan</name>
							<effectid>audiopan</effectid>
							<effectcategory>audiopan</effectcategory>
							<effecttype>audiopan</effecttype>
							<mediatype>audio</mediatype>
							<parameter>
								<name>Pan</name>
								<parameterid>pan</parameterid>
								<valuemin>-1</valuemin>
								<valuemax>1</valuemax>
								<value>0</value>
							</parameter>
						</effect>
					</filter>
					<sourcetrack>
						<mediatype>audio</mediatype>
						<trackindex>2</trackindex>
					</sourcetrack>
					<link>
						<linkclipref>GN-L1-Tight_5 8</linkclipref>
						<mediatype>video</mediatype>
						<trackindex>1</trackindex>
						<clipindex>6</clipindex>
					</link>
					<link>
						<linkclipref>GN-L1-Tight_5 9</linkclipref>
						<mediatype>audio</mediatype>
						<trackindex>1</trackindex>
						<clipindex>6</clipindex>
					</link>
					<link>
						<linkclipref>GN-L1-Tight_5 10</linkclipref>
						<mediatype>audio</mediatype>
						<trackindex>2</trackindex>
						<clipindex>6</clipindex>
					</link>
					<itemhistory>
						<uuid>8F9948B3-9C88-4B8E-90B1-B8580A4AB55B</uuid>
					</itemhistory>
				</clipitem>
				<clipitem id="GN-L1-Tight_8 4">
					<name>GN-L1-Tight_8</name>
					<duration>983</duration>
					<rate>
						<ntsc>TRUE</ntsc>
						<timebase>30</timebase>
					</rate>
					<in>258</in>
					<out>891</out>
					<start>5334</start>
					<end>5967</end>
					<masterclipid>GN-L1-Tight_8 6</masterclipid>
					<logginginfo>
						<scene/>
						<shottake/>
						<lognote/>
						<good>FALSE</good>
					</logginginfo>
					<labels>
						<label2/>
					</labels>
					<comments>
						<mastercomment1/>
						<mastercomment2/>
						<mastercomment3/>
						<mastercomment4/>
					</comments>
					<file id="GN-L1-Tight_8 2"/>
					<filter>
						<effect>
							<name>Audio Levels</name>
							<effectid>audiolevels</effectid>
							<effectcategory>audiolevels</effectcategory>
							<effecttype>audiolevels</effecttype>
							<mediatype>audio</mediatype>
							<parameter>
								<name>Level</name>
								<parameterid>level</parameterid>
								<valuemin>0</valuemin>
								<valuemax>3.98109</valuemax>
								<value>1</value>
							</parameter>
						</effect>
					</filter>
					<filter>
						<effect>
							<name>Audio Pan</name>
							<effectid>audiopan</effectid>
							<effectcategory>audiopan</effectcategory>
							<effecttype>audiopan</effecttype>
							<mediatype>audio</mediatype>
							<parameter>
								<name>Pan</name>
								<parameterid>pan</parameterid>
								<valuemin>-1</valuemin>
								<valuemax>1</valuemax>
								<value>0</value>
							</parameter>
						</effect>
					</filter>
					<sourcetrack>
						<mediatype>audio</mediatype>
						<trackindex>2</trackindex>
					</sourcetrack>
					<link>
						<linkclipref>GN-L1-Tight_8 </linkclipref>
						<mediatype>video</mediatype>
						<trackindex>1</trackindex>
						<clipindex>7</clipindex>
					</link>
					<link>
						<linkclipref>GN-L1-Tight_8 3</linkclipref>
						<mediatype>audio</mediatype>
						<trackindex>1</trackindex>
						<clipindex>7</clipindex>
					</link>
					<link>
						<linkclipref>GN-L1-Tight_8 4</linkclipref>
						<mediatype>audio</mediatype>
						<trackindex>2</trackindex>
						<clipindex>7</clipindex>
					</link>
					<itemhistory>
						<uuid>489EF390-25CA-4FA6-8AB8-8F2621678469</uuid>
					</itemhistory>
				</clipitem>
				<clipitem id="GN-L1-Tigt_1 4">
					<name>GN-L1-Tigt_1</name>
					<duration>1442</duration>
					<rate>
						<ntsc>TRUE</ntsc>
						<timebase>30</timebase>
					</rate>
					<in>484</in>
					<out>1362</out>
					<start>6158</start>
					<end>7036</end>
					<masterclipid>GN-L1-Tigt_1 6</masterclipid>
					<logginginfo>
						<scene/>
						<shottake/>
						<lognote/>
						<good>FALSE</good>
					</logginginfo>
					<labels>
						<label2/>
					</labels>
					<comments>
						<mastercomment1/>
						<mastercomment2/>
						<mastercomment3/>
						<mastercomment4/>
					</comments>
					<file id="GN-L1-Tigt_1 2"/>
					<filter>
						<effect>
							<name>Audio Levels</name>
							<effectid>audiolevels</effectid>
							<effectcategory>audiolevels</effectcategory>
							<effecttype>audiolevels</effecttype>
							<mediatype>audio</mediatype>
							<parameter>
								<name>Level</name>
								<parameterid>level</parameterid>
								<valuemin>0</valuemin>
								<valuemax>3.98109</valuemax>
								<value>1</value>
							</parameter>
						</effect>
					</filter>
					<filter>
						<effect>
							<name>Audio Pan</name>
							<effectid>audiopan</effectid>
							<effectcategory>audiopan</effectcategory>
							<effecttype>audiopan</effecttype>
							<mediatype>audio</mediatype>
							<parameter>
								<name>Pan</name>
								<parameterid>pan</parameterid>
								<valuemin>-1</valuemin>
								<valuemax>1</valuemax>
								<value>0</value>
							</parameter>
						</effect>
					</filter>
					<sourcetrack>
						<mediatype>audio</mediatype>
						<trackindex>2</trackindex>
					</sourcetrack>
					<link>
						<linkclipref>GN-L1-Tigt_1 </linkclipref>
						<mediatype>video</mediatype>
						<trackindex>1</trackindex>
						<clipindex>8</clipindex>
					</link>
					<link>
						<linkclipref>GN-L1-Tigt_1 3</linkclipref>
						<mediatype>audio</mediatype>
						<trackindex>1</trackindex>
						<clipindex>10</clipindex>
					</link>
					<link>
						<linkclipref>GN-L1-Tigt_1 4</linkclipref>
						<mediatype>audio</mediatype>
						<trackindex>2</trackindex>
						<clipindex>8</clipindex>
					</link>
					<itemhistory>
						<uuid>8F7E4227-5974-45FE-B106-B41A1A7B1BC8</uuid>
					</itemhistory>
				</clipitem>
				<clipitem id="GN-L1-Tigt_14 4">
					<name>GN-L1-Tigt_14</name>
					<duration>935</duration>
					<rate>
						<ntsc>TRUE</ntsc>
						<timebase>30</timebase>
					</rate>
					<in>375</in>
					<out>784</out>
					<start>7036</start>
					<end>7445</end>
					<masterclipid>GN-L1-Tigt_14 6</masterclipid>
					<logginginfo>
						<scene/>
						<shottake/>
						<lognote/>
						<good>FALSE</good>
					</logginginfo>
					<labels>
						<label2/>
					</labels>
					<comments>
						<mastercomment1/>
						<mastercomment2/>
						<mastercomment3/>
						<mastercomment4/>
					</comments>
					<file id="GN-L1-Tigt_14 2"/>
					<filter>
						<effect>
							<name>Audio Levels</name>
							<effectid>audiolevels</effectid>
							<effectcategory>audiolevels</effectcategory>
							<effecttype>audiolevels</effecttype>
							<mediatype>audio</mediatype>
							<parameter>
								<name>Level</name>
								<parameterid>level</parameterid>
								<valuemin>0</valuemin>
								<valuemax>3.98109</valuemax>
								<value>1</value>
							</parameter>
						</effect>
					</filter>
					<filter>
						<effect>
							<name>Audio Pan</name>
							<effectid>audiopan</effectid>
							<effectcategory>audiopan</effectcategory>
							<effecttype>audiopan</effecttype>
							<mediatype>audio</mediatype>
							<parameter>
								<name>Pan</name>
								<parameterid>pan</parameterid>
								<valuemin>-1</valuemin>
								<valuemax>1</valuemax>
								<value>0</value>
							</parameter>
						</effect>
					</filter>
					<sourcetrack>
						<mediatype>audio</mediatype>
						<trackindex>2</trackindex>
					</sourcetrack>
					<link>
						<linkclipref>GN-L1-Tigt_14 </linkclipref>
						<mediatype>video</mediatype>
						<trackindex>1</trackindex>
						<clipindex>9</clipindex>
					</link>
					<link>
						<linkclipref>GN-L1-Tigt_14 3</linkclipref>
						<mediatype>audio</mediatype>
						<trackindex>1</trackindex>
						<clipindex>11</clipindex>
					</link>
					<link>
						<linkclipref>GN-L1-Tigt_14 4</linkclipref>
						<mediatype>audio</mediatype>
						<trackindex>2</trackindex>
						<clipindex>9</clipindex>
					</link>
					<itemhistory>
						<uuid>7B7EC23A-3263-4B0E-9515-9505BF9B9901</uuid>
					</itemhistory>
				</clipitem>
				<clipitem id="GN.ST-L1-tigt_22 6">
					<name>GN.ST-L1-tigt_22</name>
					<duration>4013</duration>
					<rate>
						<ntsc>TRUE</ntsc>
						<timebase>30</timebase>
					</rate>
					<in>1455</in>
					<out>3884</out>
					<start>7445</start>
					<end>9874</end>
					<logginginfo>
						<scene/>
						<shottake/>
						<lognote/>
						<good>FALSE</good>
					</logginginfo>
					<labels>
						<label2/>
					</labels>
					<comments>
						<mastercomment1/>
						<mastercomment2/>
						<mastercomment3/>
						<mastercomment4/>
					</comments>
					<file id="GN.ST-L1-tigt_22 1"/>
					<filter>
						<effect>
							<name>Audio Levels</name>
							<effectid>audiolevels</effectid>
							<effectcategory>audiolevels</effectcategory>
							<effecttype>audiolevels</effecttype>
							<mediatype>audio</mediatype>
							<parameter>
								<name>Level</name>
								<parameterid>level</parameterid>
								<valuemin>0</valuemin>
								<valuemax>3.98109</valuemax>
								<value>1</value>
							</parameter>
						</effect>
					</filter>
					<filter>
						<effect>
							<name>Audio Pan</name>
							<effectid>audiopan</effectid>
							<effectcategory>audiopan</effectcategory>
							<effecttype>audiopan</effecttype>
							<mediatype>audio</mediatype>
							<parameter>
								<name>Pan</name>
								<parameterid>pan</parameterid>
								<valuemin>-1</valuemin>
								<valuemax>1</valuemax>
								<value>0</value>
							</parameter>
						</effect>
					</filter>
					<sourcetrack>
						<mediatype>audio</mediatype>
						<trackindex>2</trackindex>
					</sourcetrack>
					<link>
						<linkclipref>GN.ST-L1-tigt_22 4</linkclipref>
						<mediatype>video</mediatype>
						<trackindex>1</trackindex>
						<clipindex>10</clipindex>
					</link>
					<link>
						<linkclipref>GN.ST-L1-tigt_22 5</linkclipref>
						<mediatype>audio</mediatype>
						<trackindex>1</trackindex>
						<clipindex>12</clipindex>
					</link>
					<link>
						<linkclipref>GN.ST-L1-tigt_22 6</linkclipref>
						<mediatype>audio</mediatype>
						<trackindex>2</trackindex>
						<clipindex>10</clipindex>
					</link>
					<itemhistory>
						<uuid>225DDF8D-AF8A-475A-ABDC-2511D4D8F1B5</uuid>
					</itemhistory>
				</clipitem>
				<enabled>TRUE</enabled>
				<locked>TRUE</locked>
				<outputchannelindex>2</outputchannelindex>
			</track>
			<track>
				<clipitem id="GN.ST-L1-wide_22 2">
					<name>GN.ST-L1-wide_22</name>
					<duration>3946</duration>
					<rate>
						<ntsc>TRUE</ntsc>
						<timebase>30</timebase>
					</rate>
					<in>274</in>
					<out>901</out>
					<start>1255</start>
					<end>1882</end>
					<logginginfo>
						<scene/>
						<shottake/>
						<lognote/>
						<good>FALSE</good>
					</logginginfo>
					<labels>
						<label2/>
					</labels>
					<comments>
						<mastercomment1/>
						<mastercomment2/>
						<mastercomment3/>
						<mastercomment4/>
					</comments>
					<file id="GN.ST-L1-wide_22 1"/>
					<filter>
						<effect>
							<name>Audio Levels</name>
							<effectid>audiolevels</effectid>
							<effectcategory>audiolevels</effectcategory>
							<effecttype>audiolevels</effecttype>
							<mediatype>audio</mediatype>
							<parameter>
								<name>Level</name>
								<parameterid>level</parameterid>
								<valuemin>0</valuemin>
								<valuemax>3.98109</valuemax>
								<value>1</value>
							</parameter>
						</effect>
					</filter>
					<filter>
						<effect>
							<name>Audio Pan</name>
							<effectid>audiopan</effectid>
							<effectcategory>audiopan</effectcategory>
							<effecttype>audiopan</effecttype>
							<mediatype>audio</mediatype>
							<parameter>
								<name>Pan</name>
								<parameterid>pan</parameterid>
								<valuemin>-1</valuemin>
								<valuemax>1</valuemax>
								<value>0</value>
							</parameter>
						</effect>
					</filter>
					<sourcetrack>
						<mediatype>audio</mediatype>
						<trackindex>1</trackindex>
					</sourcetrack>
					<link>
						<linkclipref>GN.ST-L1-wide_22 </linkclipref>
						<mediatype>video</mediatype>
						<trackindex>2</trackindex>
						<clipindex>2</clipindex>
					</link>
					<link>
						<linkclipref>GN.ST-L1-wide_22 2</linkclipref>
						<mediatype>audio</mediatype>
						<trackindex>3</trackindex>
						<clipindex>1</clipindex>
					</link>
					<link>
						<linkclipref>GN.ST-L1-wide_22 3</linkclipref>
						<mediatype>audio</mediatype>
						<trackindex>4</trackindex>
						<clipindex>1</clipindex>
					</link>
					<itemhistory>
						<uuid>F4851B97-D44E-41B7-9C2A-3C287DE28F47</uuid>
					</itemhistory>
				</clipitem>
				<clipitem id="GN-L1-Wide_3 3">
					<name>GN-L1-Wide_3</name>
					<duration>2218</duration>
					<rate>
						<ntsc>TRUE</ntsc>
						<timebase>30</timebase>
					</rate>
					<in>274</in>
					<out>2081</out>
					<start>1882</start>
					<end>3689</end>
					<masterclipid>GN-L1-Wide_3 5</masterclipid>
					<logginginfo>
						<scene/>
						<shottake/>
						<lognote/>
						<good>FALSE</good>
					</logginginfo>
					<labels>
						<label2/>
					</labels>
					<comments>
						<mastercomment1/>
						<mastercomment2/>
						<mastercomment3/>
						<mastercomment4/>
					</comments>
					<file id="GN-L1-Wide_3 2"/>
					<filter>
						<effect>
							<name>Audio Levels</name>
							<effectid>audiolevels</effectid>
							<effectcategory>audiolevels</effectcategory>
							<effecttype>audiolevels</effecttype>
							<mediatype>audio</mediatype>
							<parameter>
								<name>Level</name>
								<parameterid>level</parameterid>
								<valuemin>0</valuemin>
								<valuemax>3.98109</valuemax>
								<value>1</value>
							</parameter>
						</effect>
					</filter>
					<filter>
						<effect>
							<name>Audio Pan</name>
							<effectid>audiopan</effectid>
							<effectcategory>audiopan</effectcategory>
							<effecttype>audiopan</effecttype>
							<mediatype>audio</mediatype>
							<parameter>
								<name>Pan</name>
								<parameterid>pan</parameterid>
								<valuemin>-1</valuemin>
								<valuemax>1</valuemax>
								<value>0</value>
							</parameter>
						</effect>
					</filter>
					<sourcetrack>
						<mediatype>audio</mediatype>
						<trackindex>1</trackindex>
					</sourcetrack>
					<link>
						<linkclipref>GN-L1-Wide_3 </linkclipref>
						<mediatype>video</mediatype>
						<trackindex>2</trackindex>
						<clipindex>4</clipindex>
					</link>
					<link>
						<linkclipref>GN-L1-Wide_3 3</linkclipref>
						<mediatype>audio</mediatype>
						<trackindex>3</trackindex>
						<clipindex>2</clipindex>
					</link>
					<link>
						<linkclipref>GN-L1-Wide_3 4</linkclipref>
						<mediatype>audio</mediatype>
						<trackindex>4</trackindex>
						<clipindex>2</clipindex>
					</link>
					<itemhistory>
						<uuid>5FA16629-02D3-4C8F-9756-0B3AA2E6D36D</uuid>
					</itemhistory>
				</clipitem>
				<clipitem id="GN-L1-Wide_5 3">
					<name>GN-L1-Wide_5</name>
					<duration>4316</duration>
					<rate>
						<ntsc>TRUE</ntsc>
						<timebase>30</timebase>
					</rate>
					<in>348</in>
					<out>1118</out>
					<start>3689</start>
					<end>4459</end>
					<masterclipid>GN-L1-Wide_5 11</masterclipid>
					<logginginfo>
						<scene/>
						<shottake/>
						<lognote/>
						<good>FALSE</good>
					</logginginfo>
					<labels>
						<label2/>
					</labels>
					<comments>
						<mastercomment1/>
						<mastercomment2/>
						<mastercomment3/>
						<mastercomment4/>
					</comments>
					<file id="GN-L1-Wide_5 2"/>
					<filter>
						<effect>
							<name>Audio Levels</name>
							<effectid>audiolevels</effectid>
							<effectcategory>audiolevels</effectcategory>
							<effecttype>audiolevels</effecttype>
							<mediatype>audio</mediatype>
							<parameter>
								<name>Level</name>
								<parameterid>level</parameterid>
								<valuemin>0</valuemin>
								<valuemax>3.98109</valuemax>
								<value>1</value>
							</parameter>
						</effect>
					</filter>
					<filter>
						<effect>
							<name>Audio Pan</name>
							<effectid>audiopan</effectid>
							<effectcategory>audiopan</effectcategory>
							<effecttype>audiopan</effecttype>
							<mediatype>audio</mediatype>
							<parameter>
								<name>Pan</name>
								<parameterid>pan</parameterid>
								<valuemin>-1</valuemin>
								<valuemax>1</valuemax>
								<value>0</value>
							</parameter>
						</effect>
					</filter>
					<sourcetrack>
						<mediatype>audio</mediatype>
						<trackindex>1</trackindex>
					</sourcetrack>
					<link>
						<linkclipref>GN-L1-Wide_5 </linkclipref>
						<mediatype>video</mediatype>
						<trackindex>2</trackindex>
						<clipindex>5</clipindex>
					</link>
					<link>
						<linkclipref>GN-L1-Wide_5 3</linkclipref>
						<mediatype>audio</mediatype>
						<trackindex>3</trackindex>
						<clipindex>3</clipindex>
					</link>
					<link>
						<linkclipref>GN-L1-Wide_5 4</linkclipref>
						<mediatype>audio</mediatype>
						<trackindex>4</trackindex>
						<clipindex>3</clipindex>
					</link>
					<itemhistory>
						<uuid>AD3223D7-D9E4-42B3-A05B-5785F40A258F</uuid>
					</itemhistory>
				</clipitem>
				<clipitem id="GN-L1-Wide_5 6">
					<name>GN-L1-Wide_5</name>
					<duration>4316</duration>
					<rate>
						<ntsc>TRUE</ntsc>
						<timebase>30</timebase>
					</rate>
					<in>1200</in>
					<out>1880</out>
					<start>4459</start>
					<end>5139</end>
					<masterclipid>GN-L1-Wide_5 11</masterclipid>
					<logginginfo>
						<scene/>
						<shottake/>
						<lognote/>
						<good>FALSE</good>
					</logginginfo>
					<labels>
						<label2/>
					</labels>
					<comments>
						<mastercomment1/>
						<mastercomment2/>
						<mastercomment3/>
						<mastercomment4/>
					</comments>
					<file id="GN-L1-Wide_5 2"/>
					<filter>
						<effect>
							<name>Audio Levels</name>
							<effectid>audiolevels</effectid>
							<effectcategory>audiolevels</effectcategory>
							<effecttype>audiolevels</effecttype>
							<mediatype>audio</mediatype>
							<parameter>
								<name>Level</name>
								<parameterid>level</parameterid>
								<valuemin>0</valuemin>
								<valuemax>3.98109</valuemax>
								<value>1</value>
							</parameter>
						</effect>
					</filter>
					<filter>
						<effect>
							<name>Audio Pan</name>
							<effectid>audiopan</effectid>
							<effectcategory>audiopan</effectcategory>
							<effecttype>audiopan</effecttype>
							<mediatype>audio</mediatype>
							<parameter>
								<name>Pan</name>
								<parameterid>pan</parameterid>
								<valuemin>-1</valuemin>
								<valuemax>1</valuemax>
								<value>0</value>
							</parameter>
						</effect>
					</filter>
					<sourcetrack>
						<mediatype>audio</mediatype>
						<trackindex>1</trackindex>
					</sourcetrack>
					<link>
						<linkclipref>GN-L1-Wide_5 5</linkclipref>
						<mediatype>video</mediatype>
						<trackindex>2</trackindex>
						<clipindex>6</clipindex>
					</link>
					<link>
						<linkclipref>GN-L1-Wide_5 6</linkclipref>
						<mediatype>audio</mediatype>
						<trackindex>3</trackindex>
						<clipindex>4</clipindex>
					</link>
					<link>
						<linkclipref>GN-L1-Wide_5 7</linkclipref>
						<mediatype>audio</mediatype>
						<trackindex>4</trackindex>
						<clipindex>4</clipindex>
					</link>
					<itemhistory>
						<uuid>D7E7C299-7909-4054-B1CA-6EA4B1A00CC5</uuid>
					</itemhistory>
				</clipitem>
				<clipitem id="GN-L1-Wide_5 9">
					<name>GN-L1-Wide_5</name>
					<duration>4316</duration>
					<rate>
						<ntsc>TRUE</ntsc>
						<timebase>30</timebase>
					</rate>
					<in>3995</in>
					<out>4190</out>
					<start>5139</start>
					<end>5334</end>
					<masterclipid>GN-L1-Wide_5 11</masterclipid>
					<logginginfo>
						<scene/>
						<shottake/>
						<lognote/>
						<good>FALSE</good>
					</logginginfo>
					<labels>
						<label2/>
					</labels>
					<comments>
						<mastercomment1/>
						<mastercomment2/>
						<mastercomment3/>
						<mastercomment4/>
					</comments>
					<file id="GN-L1-Wide_5 2"/>
					<filter>
						<effect>
							<name>Audio Levels</name>
							<effectid>audiolevels</effectid>
							<effectcategory>audiolevels</effectcategory>
							<effecttype>audiolevels</effecttype>
							<mediatype>audio</mediatype>
							<parameter>
								<name>Level</name>
								<parameterid>level</parameterid>
								<valuemin>0</valuemin>
								<valuemax>3.98109</valuemax>
								<value>1</value>
							</parameter>
						</effect>
					</filter>
					<filter>
						<effect>
							<name>Audio Pan</name>
							<effectid>audiopan</effectid>
							<effectcategory>audiopan</effectcategory>
							<effecttype>audiopan</effecttype>
							<mediatype>audio</mediatype>
							<parameter>
								<name>Pan</name>
								<parameterid>pan</parameterid>
								<valuemin>-1</valuemin>
								<valuemax>1</valuemax>
								<value>0</value>
							</parameter>
						</effect>
					</filter>
					<sourcetrack>
						<mediatype>audio</mediatype>
						<trackindex>1</trackindex>
					</sourcetrack>
					<link>
						<linkclipref>GN-L1-Wide_5 8</linkclipref>
						<mediatype>video</mediatype>
						<trackindex>2</trackindex>
						<clipindex>7</clipindex>
					</link>
					<link>
						<linkclipref>GN-L1-Wide_5 9</linkclipref>
						<mediatype>audio</mediatype>
						<trackindex>3</trackindex>
						<clipindex>5</clipindex>
					</link>
					<link>
						<linkclipref>GN-L1-Wide_5 10</linkclipref>
						<mediatype>audio</mediatype>
						<trackindex>4</trackindex>
						<clipindex>5</clipindex>
					</link>
					<itemhistory>
						<uuid>3E07427A-44CC-4C64-A221-CA0F3F2661CD</uuid>
					</itemhistory>
				</clipitem>
				<clipitem id="GN-L1-Wide_8 3">
					<name>GN-L1-Wide_8</name>
					<duration>981</duration>
					<rate>
						<ntsc>TRUE</ntsc>
						<timebase>30</timebase>
					</rate>
					<in>242</in>
					<out>875</out>
					<start>5334</start>
					<end>5967</end>
					<masterclipid>GN-L1-Wide_8 5</masterclipid>
					<logginginfo>
						<scene/>
						<shottake/>
						<lognote/>
						<good>FALSE</good>
					</logginginfo>
					<labels>
						<label2/>
					</labels>
					<comments>
						<mastercomment1/>
						<mastercomment2/>
						<mastercomment3/>
						<mastercomment4/>
					</comments>
					<file id="GN-L1-Wide_8 2"/>
					<filter>
						<effect>
							<name>Audio Levels</name>
							<effectid>audiolevels</effectid>
							<effectcategory>audiolevels</effectcategory>
							<effecttype>audiolevels</effecttype>
							<mediatype>audio</mediatype>
							<parameter>
								<name>Level</name>
								<parameterid>level</parameterid>
								<valuemin>0</valuemin>
								<valuemax>3.98109</valuemax>
								<value>1</value>
							</parameter>
						</effect>
					</filter>
					<filter>
						<effect>
							<name>Audio Pan</name>
							<effectid>audiopan</effectid>
							<effectcategory>audiopan</effectcategory>
							<effecttype>audiopan</effecttype>
							<mediatype>audio</mediatype>
							<parameter>
								<name>Pan</name>
								<parameterid>pan</parameterid>
								<valuemin>-1</valuemin>
								<valuemax>1</valuemax>
								<value>0</value>
							</parameter>
						</effect>
					</filter>
					<sourcetrack>
						<mediatype>audio</mediatype>
						<trackindex>1</trackindex>
					</sourcetrack>
					<link>
						<linkclipref>GN-L1-Wide_8 </linkclipref>
						<mediatype>video</mediatype>
						<trackindex>2</trackindex>
						<clipindex>8</clipindex>
					</link>
					<link>
						<linkclipref>GN-L1-Wide_8 3</linkclipref>
						<mediatype>audio</mediatype>
						<trackindex>3</trackindex>
						<clipindex>6</clipindex>
					</link>
					<link>
						<linkclipref>GN-L1-Wide_8 4</linkclipref>
						<mediatype>audio</mediatype>
						<trackindex>4</trackindex>
						<clipindex>6</clipindex>
					</link>
					<itemhistory>
						<uuid>DD76BEAD-094A-4B47-81EF-FE05218B728D</uuid>
					</itemhistory>
				</clipitem>
				<clipitem id="GN-L1-Wide_11 3">
					<name>GN-L1-Wide_11</name>
					<duration>1333</duration>
					<rate>
						<ntsc>TRUE</ntsc>
						<timebase>30</timebase>
					</rate>
					<in>351</in>
					<out>1229</out>
					<start>6158</start>
					<end>7036</end>
					<enabled>TRUE</enabled>
					<masterclipid>GN-L1-Wide_11 5</masterclipid>
					<logginginfo>
						<scene/>
						<shottake/>
						<lognote/>
						<good>FALSE</good>
					</logginginfo>
					<labels>
						<label2/>
					</labels>
					<comments>
						<mastercomment1/>
						<mastercomment2/>
						<mastercomment3/>
						<mastercomment4/>
					</comments>
					<file id="GN-L1-Wide_11 2"/>
					<filter>
						<effect>
							<name>Audio Levels</name>
							<effectid>audiolevels</effectid>
							<effectcategory>audiolevels</effectcategory>
							<effecttype>audiolevels</effecttype>
							<mediatype>audio</mediatype>
							<parameter>
								<name>Level</name>
								<parameterid>level</parameterid>
								<valuemin>0</valuemin>
								<valuemax>3.98109</valuemax>
								<value>1</value>
							</parameter>
						</effect>
					</filter>
					<filter>
						<effect>
							<name>Audio Pan</name>
							<effectid>audiopan</effectid>
							<effectcategory>audiopan</effectcategory>
							<effecttype>audiopan</effecttype>
							<mediatype>audio</mediatype>
							<parameter>
								<name>Pan</name>
								<parameterid>pan</parameterid>
								<valuemin>-1</valuemin>
								<valuemax>1</valuemax>
								<value>0</value>
							</parameter>
						</effect>
					</filter>
					<sourcetrack>
						<mediatype>audio</mediatype>
						<trackindex>1</trackindex>
					</sourcetrack>
					<link>
						<linkclipref>GN-L1-Wide_11 </linkclipref>
						<mediatype>video</mediatype>
						<trackindex>2</trackindex>
						<clipindex>9</clipindex>
					</link>
					<link>
						<linkclipref>GN-L1-Wide_11 3</linkclipref>
						<mediatype>audio</mediatype>
						<trackindex>3</trackindex>
						<clipindex>7</clipindex>
					</link>
					<link>
						<linkclipref>GN-L1-Wide_11 4</linkclipref>
						<mediatype>audio</mediatype>
						<trackindex>4</trackindex>
						<clipindex>7</clipindex>
					</link>
					<itemhistory>
						<uuid>5EFB1181-7DE0-429B-B62F-64DB13439E35</uuid>
					</itemhistory>
				</clipitem>
				<clipitem id="GN-L1-Wide_14 3">
					<name>GN-L1-Wide_14</name>
					<duration>871</duration>
					<rate>
						<ntsc>TRUE</ntsc>
						<timebase>30</timebase>
					</rate>
					<in>294</in>
					<out>703</out>
					<start>7036</start>
					<end>7445</end>
					<masterclipid>GN-L1-Wide_14 5</masterclipid>
					<logginginfo>
						<scene/>
						<shottake/>
						<lognote/>
						<good>FALSE</good>
					</logginginfo>
					<labels>
						<label2/>
					</labels>
					<comments>
						<mastercomment1/>
						<mastercomment2/>
						<mastercomment3/>
						<mastercomment4/>
					</comments>
					<file id="GN-L1-Wide_14 2"/>
					<filter>
						<effect>
							<name>Audio Levels</name>
							<effectid>audiolevels</effectid>
							<effectcategory>audiolevels</effectcategory>
							<effecttype>audiolevels</effecttype>
							<mediatype>audio</mediatype>
							<parameter>
								<name>Level</name>
								<parameterid>level</parameterid>
								<valuemin>0</valuemin>
								<valuemax>3.98109</valuemax>
								<value>1</value>
							</parameter>
						</effect>
					</filter>
					<filter>
						<effect>
							<name>Audio Pan</name>
							<effectid>audiopan</effectid>
							<effectcategory>audiopan</effectcategory>
							<effecttype>audiopan</effecttype>
							<mediatype>audio</mediatype>
							<parameter>
								<name>Pan</name>
								<parameterid>pan</parameterid>
								<valuemin>-1</valuemin>
								<valuemax>1</valuemax>
								<value>0</value>
							</parameter>
						</effect>
					</filter>
					<sourcetrack>
						<mediatype>audio</mediatype>
						<trackindex>1</trackindex>
					</sourcetrack>
					<link>
						<linkclipref>GN-L1-Wide_14 </linkclipref>
						<mediatype>video</mediatype>
						<trackindex>2</trackindex>
						<clipindex>10</clipindex>
					</link>
					<link>
						<linkclipref>GN-L1-Wide_14 3</linkclipref>
						<mediatype>audio</mediatype>
						<trackindex>3</trackindex>
						<clipindex>8</clipindex>
					</link>
					<link>
						<linkclipref>GN-L1-Wide_14 4</linkclipref>
						<mediatype>audio</mediatype>
						<trackindex>4</trackindex>
						<clipindex>8</clipindex>
					</link>
					<itemhistory>
						<uuid>DB79F5F4-346A-4112-8757-1CC566E7B52F</uuid>
					</itemhistory>
				</clipitem>
				<clipitem id="GN.ST-L1-wide_22 5">
					<name>GN.ST-L1-wide_22</name>
					<duration>3946</duration>
					<rate>
						<ntsc>TRUE</ntsc>
						<timebase>30</timebase>
					</rate>
					<in>1435</in>
					<out>3864</out>
					<start>7445</start>
					<end>9874</end>
					<logginginfo>
						<scene/>
						<shottake/>
						<lognote/>
						<good>FALSE</good>
					</logginginfo>
					<labels>
						<label2/>
					</labels>
					<comments>
						<mastercomment1/>
						<mastercomment2/>
						<mastercomment3/>
						<mastercomment4/>
					</comments>
					<file id="GN.ST-L1-wide_22 1"/>
					<filter>
						<effect>
							<name>Audio Levels</name>
							<effectid>audiolevels</effectid>
							<effectcategory>audiolevels</effectcategory>
							<effecttype>audiolevels</effecttype>
							<mediatype>audio</mediatype>
							<parameter>
								<name>Level</name>
								<parameterid>level</parameterid>
								<valuemin>0</valuemin>
								<valuemax>3.98109</valuemax>
								<value>1</value>
							</parameter>
						</effect>
					</filter>
					<filter>
						<effect>
							<name>Audio Pan</name>
							<effectid>audiopan</effectid>
							<effectcategory>audiopan</effectcategory>
							<effecttype>audiopan</effecttype>
							<mediatype>audio</mediatype>
							<parameter>
								<name>Pan</name>
								<parameterid>pan</parameterid>
								<valuemin>-1</valuemin>
								<valuemax>1</valuemax>
								<value>0</value>
							</parameter>
						</effect>
					</filter>
					<sourcetrack>
						<mediatype>audio</mediatype>
						<trackindex>1</trackindex>
					</sourcetrack>
					<link>
						<linkclipref>GN.ST-L1-wide_22 4</linkclipref>
						<mediatype>video</mediatype>
						<trackindex>2</trackindex>
						<clipindex>12</clipindex>
					</link>
					<link>
						<linkclipref>GN.ST-L1-wide_22 5</linkclipref>
						<mediatype>audio</mediatype>
						<trackindex>3</trackindex>
						<clipindex>9</clipindex>
					</link>
					<link>
						<linkclipref>GN.ST-L1-wide_22 6</linkclipref>
						<mediatype>audio</mediatype>
						<trackindex>4</trackindex>
						<clipindex>9</clipindex>
					</link>
					<itemhistory>
						<uuid>0BE45C34-4B90-43F5-A81A-0027B516440E</uuid>
					</itemhistory>
				</clipitem>
				<enabled>FALSE</enabled>
				<locked>TRUE</locked>
				<outputchannelindex>1</outputchannelindex>
			</track>
			<track>
				<clipitem id="GN.ST-L1-wide_22 3">
					<name>GN.ST-L1-wide_22</name>
					<duration>3946</duration>
					<rate>
						<ntsc>TRUE</ntsc>
						<timebase>30</timebase>
					</rate>
					<in>274</in>
					<out>901</out>
					<start>1255</start>
					<end>1882</end>
					<logginginfo>
						<scene/>
						<shottake/>
						<lognote/>
						<good>FALSE</good>
					</logginginfo>
					<labels>
						<label2/>
					</labels>
					<comments>
						<mastercomment1/>
						<mastercomment2/>
						<mastercomment3/>
						<mastercomment4/>
					</comments>
					<file id="GN.ST-L1-wide_22 1"/>
					<filter>
						<effect>
							<name>Audio Levels</name>
							<effectid>audiolevels</effectid>
							<effectcategory>audiolevels</effectcategory>
							<effecttype>audiolevels</effecttype>
							<mediatype>audio</mediatype>
							<parameter>
								<name>Level</name>
								<parameterid>level</parameterid>
								<valuemin>0</valuemin>
								<valuemax>3.98109</valuemax>
								<value>1</value>
							</parameter>
						</effect>
					</filter>
					<filter>
						<effect>
							<name>Audio Pan</name>
							<effectid>audiopan</effectid>
							<effectcategory>audiopan</effectcategory>
							<effecttype>audiopan</effecttype>
							<mediatype>audio</mediatype>
							<parameter>
								<name>Pan</name>
								<parameterid>pan</parameterid>
								<valuemin>-1</valuemin>
								<valuemax>1</valuemax>
								<value>0</value>
							</parameter>
						</effect>
					</filter>
					<sourcetrack>
						<mediatype>audio</mediatype>
						<trackindex>2</trackindex>
					</sourcetrack>
					<link>
						<linkclipref>GN.ST-L1-wide_22 </linkclipref>
						<mediatype>video</mediatype>
						<trackindex>2</trackindex>
						<clipindex>2</clipindex>
					</link>
					<link>
						<linkclipref>GN.ST-L1-wide_22 2</linkclipref>
						<mediatype>audio</mediatype>
						<trackindex>3</trackindex>
						<clipindex>1</clipindex>
					</link>
					<link>
						<linkclipref>GN.ST-L1-wide_22 3</linkclipref>
						<mediatype>audio</mediatype>
						<trackindex>4</trackindex>
						<clipindex>1</clipindex>
					</link>
					<itemhistory>
						<uuid>C0E83A46-E0E9-4141-B510-0DAE800EF46B</uuid>
					</itemhistory>
				</clipitem>
				<clipitem id="GN-L1-Wide_3 4">
					<name>GN-L1-Wide_3</name>
					<duration>2218</duration>
					<rate>
						<ntsc>TRUE</ntsc>
						<timebase>30</timebase>
					</rate>
					<in>274</in>
					<out>2081</out>
					<start>1882</start>
					<end>3689</end>
					<masterclipid>GN-L1-Wide_3 6</masterclipid>
					<logginginfo>
						<scene/>
						<shottake/>
						<lognote/>
						<good>FALSE</good>
					</logginginfo>
					<labels>
						<label2/>
					</labels>
					<comments>
						<mastercomment1/>
						<mastercomment2/>
						<mastercomment3/>
						<mastercomment4/>
					</comments>
					<file id="GN-L1-Wide_3 2"/>
					<filter>
						<effect>
							<name>Audio Levels</name>
							<effectid>audiolevels</effectid>
							<effectcategory>audiolevels</effectcategory>
							<effecttype>audiolevels</effecttype>
							<mediatype>audio</mediatype>
							<parameter>
								<name>Level</name>
								<parameterid>level</parameterid>
								<valuemin>0</valuemin>
								<valuemax>3.98109</valuemax>
								<value>1</value>
							</parameter>
						</effect>
					</filter>
					<filter>
						<effect>
							<name>Audio Pan</name>
							<effectid>audiopan</effectid>
							<effectcategory>audiopan</effectcategory>
							<effecttype>audiopan</effecttype>
							<mediatype>audio</mediatype>
							<parameter>
								<name>Pan</name>
								<parameterid>pan</parameterid>
								<valuemin>-1</valuemin>
								<valuemax>1</valuemax>
								<value>0</value>
							</parameter>
						</effect>
					</filter>
					<sourcetrack>
						<mediatype>audio</mediatype>
						<trackindex>2</trackindex>
					</sourcetrack>
					<link>
						<linkclipref>GN-L1-Wide_3 </linkclipref>
						<mediatype>video</mediatype>
						<trackindex>2</trackindex>
						<clipindex>4</clipindex>
					</link>
					<link>
						<linkclipref>GN-L1-Wide_3 3</linkclipref>
						<mediatype>audio</mediatype>
						<trackindex>3</trackindex>
						<clipindex>2</clipindex>
					</link>
					<link>
						<linkclipref>GN-L1-Wide_3 4</linkclipref>
						<mediatype>audio</mediatype>
						<trackindex>4</trackindex>
						<clipindex>2</clipindex>
					</link>
					<itemhistory>
						<uuid>76879C09-C8F3-4773-BA55-1BE924D7B96C</uuid>
					</itemhistory>
				</clipitem>
				<clipitem id="GN-L1-Wide_5 4">
					<name>GN-L1-Wide_5</name>
					<duration>4316</duration>
					<rate>
						<ntsc>TRUE</ntsc>
						<timebase>30</timebase>
					</rate>
					<in>348</in>
					<out>1118</out>
					<start>3689</start>
					<end>4459</end>
					<masterclipid>GN-L1-Wide_5 12</masterclipid>
					<logginginfo>
						<scene/>
						<shottake/>
						<lognote/>
						<good>FALSE</good>
					</logginginfo>
					<labels>
						<label2/>
					</labels>
					<comments>
						<mastercomment1/>
						<mastercomment2/>
						<mastercomment3/>
						<mastercomment4/>
					</comments>
					<file id="GN-L1-Wide_5 2"/>
					<filter>
						<effect>
							<name>Audio Levels</name>
							<effectid>audiolevels</effectid>
							<effectcategory>audiolevels</effectcategory>
							<effecttype>audiolevels</effecttype>
							<mediatype>audio</mediatype>
							<parameter>
								<name>Level</name>
								<parameterid>level</parameterid>
								<valuemin>0</valuemin>
								<valuemax>3.98109</valuemax>
								<value>1</value>
							</parameter>
						</effect>
					</filter>
					<filter>
						<effect>
							<name>Audio Pan</name>
							<effectid>audiopan</effectid>
							<effectcategory>audiopan</effectcategory>
							<effecttype>audiopan</effecttype>
							<mediatype>audio</mediatype>
							<parameter>
								<name>Pan</name>
								<parameterid>pan</parameterid>
								<valuemin>-1</valuemin>
								<valuemax>1</valuemax>
								<value>0</value>
							</parameter>
						</effect>
					</filter>
					<sourcetrack>
						<mediatype>audio</mediatype>
						<trackindex>2</trackindex>
					</sourcetrack>
					<link>
						<linkclipref>GN-L1-Wide_5 </linkclipref>
						<mediatype>video</mediatype>
						<trackindex>2</trackindex>
						<clipindex>5</clipindex>
					</link>
					<link>
						<linkclipref>GN-L1-Wide_5 3</linkclipref>
						<mediatype>audio</mediatype>
						<trackindex>3</trackindex>
						<clipindex>3</clipindex>
					</link>
					<link>
						<linkclipref>GN-L1-Wide_5 4</linkclipref>
						<mediatype>audio</mediatype>
						<trackindex>4</trackindex>
						<clipindex>3</clipindex>
					</link>
					<itemhistory>
						<uuid>F96E9BAF-11CD-47B6-BAA4-98DCD311126E</uuid>
					</itemhistory>
				</clipitem>
				<clipitem id="GN-L1-Wide_5 7">
					<name>GN-L1-Wide_5</name>
					<duration>4316</duration>
					<rate>
						<ntsc>TRUE</ntsc>
						<timebase>30</timebase>
					</rate>
					<in>1200</in>
					<out>1880</out>
					<start>4459</start>
					<end>5139</end>
					<masterclipid>GN-L1-Wide_5 12</masterclipid>
					<logginginfo>
						<scene/>
						<shottake/>
						<lognote/>
						<good>FALSE</good>
					</logginginfo>
					<labels>
						<label2/>
					</labels>
					<comments>
						<mastercomment1/>
						<mastercomment2/>
						<mastercomment3/>
						<mastercomment4/>
					</comments>
					<file id="GN-L1-Wide_5 2"/>
					<filter>
						<effect>
							<name>Audio Levels</name>
							<effectid>audiolevels</effectid>
							<effectcategory>audiolevels</effectcategory>
							<effecttype>audiolevels</effecttype>
							<mediatype>audio</mediatype>
							<parameter>
								<name>Level</name>
								<parameterid>level</parameterid>
								<valuemin>0</valuemin>
								<valuemax>3.98109</valuemax>
								<value>1</value>
							</parameter>
						</effect>
					</filter>
					<filter>
						<effect>
							<name>Audio Pan</name>
							<effectid>audiopan</effectid>
							<effectcategory>audiopan</effectcategory>
							<effecttype>audiopan</effecttype>
							<mediatype>audio</mediatype>
							<parameter>
								<name>Pan</name>
								<parameterid>pan</parameterid>
								<valuemin>-1</valuemin>
								<valuemax>1</valuemax>
								<value>0</value>
							</parameter>
						</effect>
					</filter>
					<sourcetrack>
						<mediatype>audio</mediatype>
						<trackindex>2</trackindex>
					</sourcetrack>
					<link>
						<linkclipref>GN-L1-Wide_5 5</linkclipref>
						<mediatype>video</mediatype>
						<trackindex>2</trackindex>
						<clipindex>6</clipindex>
					</link>
					<link>
						<linkclipref>GN-L1-Wide_5 6</linkclipref>
						<mediatype>audio</mediatype>
						<trackindex>3</trackindex>
						<clipindex>4</clipindex>
					</link>
					<link>
						<linkclipref>GN-L1-Wide_5 7</linkclipref>
						<mediatype>audio</mediatype>
						<trackindex>4</trackindex>
						<clipindex>4</clipindex>
					</link>
					<itemhistory>
						<uuid>A9803AC6-83B9-4D2F-8BAC-AA671F0E2C85</uuid>
					</itemhistory>
				</clipitem>
				<clipitem id="GN-L1-Wide_5 10">
					<name>GN-L1-Wide_5</name>
					<duration>4316</duration>
					<rate>
						<ntsc>TRUE</ntsc>
						<timebase>30</timebase>
					</rate>
					<in>3995</in>
					<out>4190</out>
					<start>5139</start>
					<end>5334</end>
					<masterclipid>GN-L1-Wide_5 12</masterclipid>
					<logginginfo>
						<scene/>
						<shottake/>
						<lognote/>
						<good>FALSE</good>
					</logginginfo>
					<labels>
						<label2/>
					</labels>
					<comments>
						<mastercomment1/>
						<mastercomment2/>
						<mastercomment3/>
						<mastercomment4/>
					</comments>
					<file id="GN-L1-Wide_5 2"/>
					<filter>
						<effect>
							<name>Audio Levels</name>
							<effectid>audiolevels</effectid>
							<effectcategory>audiolevels</effectcategory>
							<effecttype>audiolevels</effecttype>
							<mediatype>audio</mediatype>
							<parameter>
								<name>Level</name>
								<parameterid>level</parameterid>
								<valuemin>0</valuemin>
								<valuemax>3.98109</valuemax>
								<value>1</value>
							</parameter>
						</effect>
					</filter>
					<filter>
						<effect>
							<name>Audio Pan</name>
							<effectid>audiopan</effectid>
							<effectcategory>audiopan</effectcategory>
							<effecttype>audiopan</effecttype>
							<mediatype>audio</mediatype>
							<parameter>
								<name>Pan</name>
								<parameterid>pan</parameterid>
								<valuemin>-1</valuemin>
								<valuemax>1</valuemax>
								<value>0</value>
							</parameter>
						</effect>
					</filter>
					<sourcetrack>
						<mediatype>audio</mediatype>
						<trackindex>2</trackindex>
					</sourcetrack>
					<link>
						<linkclipref>GN-L1-Wide_5 8</linkclipref>
						<mediatype>video</mediatype>
						<trackindex>2</trackindex>
						<clipindex>7</clipindex>
					</link>
					<link>
						<linkclipref>GN-L1-Wide_5 9</linkclipref>
						<mediatype>audio</mediatype>
						<trackindex>3</trackindex>
						<clipindex>5</clipindex>
					</link>
					<link>
						<linkclipref>GN-L1-Wide_5 10</linkclipref>
						<mediatype>audio</mediatype>
						<trackindex>4</trackindex>
						<clipindex>5</clipindex>
					</link>
					<itemhistory>
						<uuid>E92FC28D-7AE5-4830-8723-168C6F2BC0D2</uuid>
					</itemhistory>
				</clipitem>
				<clipitem id="GN-L1-Wide_8 4">
					<name>GN-L1-Wide_8</name>
					<duration>981</duration>
					<rate>
						<ntsc>TRUE</ntsc>
						<timebase>30</timebase>
					</rate>
					<in>242</in>
					<out>875</out>
					<start>5334</start>
					<end>5967</end>
					<masterclipid>GN-L1-Wide_8 6</masterclipid>
					<logginginfo>
						<scene/>
						<shottake/>
						<lognote/>
						<good>FALSE</good>
					</logginginfo>
					<labels>
						<label2/>
					</labels>
					<comments>
						<mastercomment1/>
						<mastercomment2/>
						<mastercomment3/>
						<mastercomment4/>
					</comments>
					<file id="GN-L1-Wide_8 2"/>
					<filter>
						<effect>
							<name>Audio Levels</name>
							<effectid>audiolevels</effectid>
							<effectcategory>audiolevels</effectcategory>
							<effecttype>audiolevels</effecttype>
							<mediatype>audio</mediatype>
							<parameter>
								<name>Level</name>
								<parameterid>level</parameterid>
								<valuemin>0</valuemin>
								<valuemax>3.98109</valuemax>
								<value>1</value>
							</parameter>
						</effect>
					</filter>
					<filter>
						<effect>
							<name>Audio Pan</name>
							<effectid>audiopan</effectid>
							<effectcategory>audiopan</effectcategory>
							<effecttype>audiopan</effecttype>
							<mediatype>audio</mediatype>
							<parameter>
								<name>Pan</name>
								<parameterid>pan</parameterid>
								<valuemin>-1</valuemin>
								<valuemax>1</valuemax>
								<value>0</value>
							</parameter>
						</effect>
					</filter>
					<sourcetrack>
						<mediatype>audio</mediatype>
						<trackindex>2</trackindex>
					</sourcetrack>
					<link>
						<linkclipref>GN-L1-Wide_8 </linkclipref>
						<mediatype>video</mediatype>
						<trackindex>2</trackindex>
						<clipindex>8</clipindex>
					</link>
					<link>
						<linkclipref>GN-L1-Wide_8 3</linkclipref>
						<mediatype>audio</mediatype>
						<trackindex>3</trackindex>
						<clipindex>6</clipindex>
					</link>
					<link>
						<linkclipref>GN-L1-Wide_8 4</linkclipref>
						<mediatype>audio</mediatype>
						<trackindex>4</trackindex>
						<clipindex>6</clipindex>
					</link>
					<itemhistory>
						<uuid>2E9424DD-4B3D-4D96-965C-CC56E51074F3</uuid>
					</itemhistory>
				</clipitem>
				<clipitem id="GN-L1-Wide_11 4">
					<name>GN-L1-Wide_11</name>
					<duration>1333</duration>
					<rate>
						<ntsc>TRUE</ntsc>
						<timebase>30</timebase>
					</rate>
					<in>351</in>
					<out>1229</out>
					<start>6158</start>
					<end>7036</end>
					<enabled>TRUE</enabled>
					<masterclipid>GN-L1-Wide_11 6</masterclipid>
					<logginginfo>
						<scene/>
						<shottake/>
						<lognote/>
						<good>FALSE</good>
					</logginginfo>
					<labels>
						<label2/>
					</labels>
					<comments>
						<mastercomment1/>
						<mastercomment2/>
						<mastercomment3/>
						<mastercomment4/>
					</comments>
					<file id="GN-L1-Wide_11 2"/>
					<filter>
						<effect>
							<name>Audio Levels</name>
							<effectid>audiolevels</effectid>
							<effectcategory>audiolevels</effectcategory>
							<effecttype>audiolevels</effecttype>
							<mediatype>audio</mediatype>
							<parameter>
								<name>Level</name>
								<parameterid>level</parameterid>
								<valuemin>0</valuemin>
								<valuemax>3.98109</valuemax>
								<value>1</value>
							</parameter>
						</effect>
					</filter>
					<filter>
						<effect>
							<name>Audio Pan</name>
							<effectid>audiopan</effectid>
							<effectcategory>audiopan</effectcategory>
							<effecttype>audiopan</effecttype>
							<mediatype>audio</mediatype>
							<parameter>
								<name>Pan</name>
								<parameterid>pan</parameterid>
								<valuemin>-1</valuemin>
								<valuemax>1</valuemax>
								<value>0</value>
							</parameter>
						</effect>
					</filter>
					<sourcetrack>
						<mediatype>audio</mediatype>
						<trackindex>2</trackindex>
					</sourcetrack>
					<link>
						<linkclipref>GN-L1-Wide_11 </linkclipref>
						<mediatype>video</mediatype>
						<trackindex>2</trackindex>
						<clipindex>9</clipindex>
					</link>
					<link>
						<linkclipref>GN-L1-Wide_11 3</linkclipref>
						<mediatype>audio</mediatype>
						<trackindex>3</trackindex>
						<clipindex>7</clipindex>
					</link>
					<link>
						<linkclipref>GN-L1-Wide_11 4</linkclipref>
						<mediatype>audio</mediatype>
						<trackindex>4</trackindex>
						<clipindex>7</clipindex>
					</link>
					<itemhistory>
						<uuid>68AA4700-DF97-40B0-828C-D82570B8F63A</uuid>
					</itemhistory>
				</clipitem>
				<clipitem id="GN-L1-Wide_14 4">
					<name>GN-L1-Wide_14</name>
					<duration>871</duration>
					<rate>
						<ntsc>TRUE</ntsc>
						<timebase>30</timebase>
					</rate>
					<in>294</in>
					<out>703</out>
					<start>7036</start>
					<end>7445</end>
					<masterclipid>GN-L1-Wide_14 6</masterclipid>
					<logginginfo>
						<scene/>
						<shottake/>
						<lognote/>
						<good>FALSE</good>
					</logginginfo>
					<labels>
						<label2/>
					</labels>
					<comments>
						<mastercomment1/>
						<mastercomment2/>
						<mastercomment3/>
						<mastercomment4/>
					</comments>
					<file id="GN-L1-Wide_14 2"/>
					<filter>
						<effect>
							<name>Audio Levels</name>
							<effectid>audiolevels</effectid>
							<effectcategory>audiolevels</effectcategory>
							<effecttype>audiolevels</effecttype>
							<mediatype>audio</mediatype>
							<parameter>
								<name>Level</name>
								<parameterid>level</parameterid>
								<valuemin>0</valuemin>
								<valuemax>3.98109</valuemax>
								<value>1</value>
							</parameter>
						</effect>
					</filter>
					<filter>
						<effect>
							<name>Audio Pan</name>
							<effectid>audiopan</effectid>
							<effectcategory>audiopan</effectcategory>
							<effecttype>audiopan</effecttype>
							<mediatype>audio</mediatype>
							<parameter>
								<name>Pan</name>
								<parameterid>pan</parameterid>
								<valuemin>-1</valuemin>
								<valuemax>1</valuemax>
								<value>0</value>
							</parameter>
						</effect>
					</filter>
					<sourcetrack>
						<mediatype>audio</mediatype>
						<trackindex>2</trackindex>
					</sourcetrack>
					<link>
						<linkclipref>GN-L1-Wide_14 </linkclipref>
						<mediatype>video</mediatype>
						<trackindex>2</trackindex>
						<clipindex>10</clipindex>
					</link>
					<link>
						<linkclipref>GN-L1-Wide_14 3</linkclipref>
						<mediatype>audio</mediatype>
						<trackindex>3</trackindex>
						<clipindex>8</clipindex>
					</link>
					<link>
						<linkclipref>GN-L1-Wide_14 4</linkclipref>
						<mediatype>audio</mediatype>
						<trackindex>4</trackindex>
						<clipindex>8</clipindex>
					</link>
					<itemhistory>
						<uuid>C166776A-DBCD-4989-B27D-9D8EA88A06FF</uuid>
					</itemhistory>
				</clipitem>
				<clipitem id="GN.ST-L1-wide_22 6">
					<name>GN.ST-L1-wide_22</name>
					<duration>3946</duration>
					<rate>
						<ntsc>TRUE</ntsc>
						<timebase>30</timebase>
					</rate>
					<in>1435</in>
					<out>3864</out>
					<start>7445</start>
					<end>9874</end>
					<logginginfo>
						<scene/>
						<shottake/>
						<lognote/>
						<good>FALSE</good>
					</logginginfo>
					<labels>
						<label2/>
					</labels>
					<comments>
						<mastercomment1/>
						<mastercomment2/>
						<mastercomment3/>
						<mastercomment4/>
					</comments>
					<file id="GN.ST-L1-wide_22 1"/>
					<filter>
						<effect>
							<name>Audio Levels</name>
							<effectid>audiolevels</effectid>
							<effectcategory>audiolevels</effectcategory>
							<effecttype>audiolevels</effecttype>
							<mediatype>audio</mediatype>
							<parameter>
								<name>Level</name>
								<parameterid>level</parameterid>
								<valuemin>0</valuemin>
								<valuemax>3.98109</valuemax>
								<value>1</value>
							</parameter>
						</effect>
					</filter>
					<filter>
						<effect>
							<name>Audio Pan</name>
							<effectid>audiopan</effectid>
							<effectcategory>audiopan</effectcategory>
							<effecttype>audiopan</effecttype>
							<mediatype>audio</mediatype>
							<parameter>
								<name>Pan</name>
								<parameterid>pan</parameterid>
								<valuemin>-1</valuemin>
								<valuemax>1</valuemax>
								<value>0</value>
							</parameter>
						</effect>
					</filter>
					<sourcetrack>
						<mediatype>audio</mediatype>
						<trackindex>2</trackindex>
					</sourcetrack>
					<link>
						<linkclipref>GN.ST-L1-wide_22 4</linkclipref>
						<mediatype>video</mediatype>
						<trackindex>2</trackindex>
						<clipindex>12</clipindex>
					</link>
					<link>
						<linkclipref>GN.ST-L1-wide_22 5</linkclipref>
						<mediatype>audio</mediatype>
						<trackindex>3</trackindex>
						<clipindex>9</clipindex>
					</link>
					<link>
						<linkclipref>GN.ST-L1-wide_22 6</linkclipref>
						<mediatype>audio</mediatype>
						<trackindex>4</trackindex>
						<clipindex>9</clipindex>
					</link>
					<itemhistory>
						<uuid>46E65988-27E3-491C-8E52-7AA3C566AE73</uuid>
					</itemhistory>
				</clipitem>
				<enabled>FALSE</enabled>
				<locked>TRUE</locked>
				<outputchannelindex>2</outputchannelindex>
			</track>
			<filter>
				<effect>
					<name>Audio Levels</name>
					<effectid>audiolevels</effectid>
					<effectcategory>audiolevels</effectcategory>
					<effecttype>audiolevels</effecttype>
					<mediatype>audio</mediatype>
					<parameter>
						<name>Level</name>
						<parameterid>level</parameterid>
						<valuemin>0</valuemin>
						<valuemax>3.98109</valuemax>
						<value>1</value>
					</parameter>
				</effect>
			</filter>
		</audio>
	</media>
	<ismasterclip>FALSE</ismasterclip>
	<labels>
		<label>Reviewing</label>
	</labels>
</sequence>
</xmeml>


